<?xml version="1.0" encoding="utf-8"?>
<!-- Generator: Adobe Illustrator 16.0.0, SVG Export Plug-In . SVG Version: 6.00 Build 0)  -->
<!DOCTYPE svg PUBLIC "-//W3C//DTD SVG 1.1//EN" "http://www.w3.org/Graphics/SVG/1.1/DTD/svg11.dtd">
<svg version="1.1" id="Layer_1" xmlns="http://www.w3.org/2000/svg" xmlns:xlink="http://www.w3.org/1999/xlink" x="0px" y="0px"
	 width="76.958px" height="76.958px" viewBox="0 0 76.958 76.958" enable-background="new 0 0 76.958 76.958" xml:space="preserve">
<circle cx="38.478" cy="17.942" r="9.582"/>
<path d="M17.939,51.641C17.93,36.043,34.625,26.129,48.317,33.599c6.366,3.473,10.428,10.047,10.688,17.296
	c0.127,3.543,0.014,7.084,0.014,10.628c0,1.772,0,3.547,0,5.321c0,0.888,0,1.773,0,2.662c0,0.443,0,0.888,0,1.33
	c0,0.223,0,0.443,0,0.666c0,0.222,0,1.107,0,0.664c0-7.795-8.346-12.748-15.188-9.014c-3.707,2.023-5.197,4.436-5.345,8.657
	c-0.014,0.385-0.032-0.386-0.049-0.579c-0.041-0.441-0.109-0.877-0.207-1.311c-0.198-0.891-0.503-1.715-0.924-2.521
	c-0.862-1.646-1.971-2.857-3.533-3.863c-6.561-4.23-15.256,0.118-15.807,7.905c-0.154,2.194-0.026-2.198-0.026-3.299
	c0-1.834,0-3.667,0-5.5C17.939,58.976,17.939,55.309,17.939,51.641z M23.417,55.323c0,2.645,2.145,4.791,4.791,4.791
	S33,57.969,33,55.323s-2.145-4.789-4.791-4.789S23.417,52.676,23.417,55.323z M53.54,55.323c0-2.646-2.146-4.789-4.791-4.789
	c-2.646,0-4.791,2.143-4.791,4.789c0,2.645,2.145,4.791,4.791,4.791C51.394,60.114,53.54,57.969,53.54,55.323z"/>
</svg>
