<?xml version="1.0" encoding="utf-8"?>
<!-- Generator: Adobe Illustrator 16.0.0, SVG Export Plug-In . SVG Version: 6.00 Build 0)  -->
<!DOCTYPE svg PUBLIC "-//W3C//DTD SVG 1.1//EN" "http://www.w3.org/Graphics/SVG/1.1/DTD/svg11.dtd">
<svg version="1.1" xmlns="http://www.w3.org/2000/svg" xmlns:xlink="http://www.w3.org/1999/xlink" x="0px" y="0px" width="75px"
	 height="75px" viewBox="0 0 75 75" enable-background="new 0 0 75 75" xml:space="preserve">
<g id="Layer_1">
</g>
<g id="Fill">
	<g id="HATCH_13_">
		<path fill-rule="evenodd" clip-rule="evenodd" d="M37.51,12.449L2.674,47.272l15.833,15.823L37.51,44.09l18.982,19.006
			l15.834-15.823L37.51,12.449z M42.054,35.973l-1.514-1.515l-3.03,3.03l-3.051-3.03l-1.517,1.515l3.03,3.041l-4.639,4.639
			l-4.544-4.556l-1.537,1.527l4.567,4.555l-4.639,4.64l-3.054-3.03l-1.513,1.513l3.027,3.044l-5.134,5.147l-9.23-9.22L37.51,19.04
			l28.212,28.232l-9.23,9.22l-5.137-5.147l3.03-3.044l-1.514-1.513l-3.054,3.03l-4.64-4.64l4.568-4.555l-1.538-1.527l-4.543,4.556
			l-4.639-4.639L42.054,35.973z"/>
	</g>
</g>
<g id="Outline">
</g>
<g id="Frame">
</g>
</svg>
