<?xml version="1.0" encoding="utf-8"?>
<!-- Generator: Adobe Illustrator 16.0.0, SVG Export Plug-In . SVG Version: 6.00 Build 0)  -->
<!DOCTYPE svg PUBLIC "-//W3C//DTD SVG 1.1//EN" "http://www.w3.org/Graphics/SVG/1.1/DTD/svg11.dtd">
<svg version="1.1" xmlns="http://www.w3.org/2000/svg" xmlns:xlink="http://www.w3.org/1999/xlink" x="0px" y="0px"
	 width="73.037px" height="73.038px" viewBox="0 0 73.037 73.038" enable-background="new 0 0 73.037 73.038" xml:space="preserve">
<g id="Default">
	<path d="M273.641-184.618c0,11.989,0,23.979,0,35.968c0,1.331,0,2.664,0,3.996c-1.332-1.332-2.664-2.665-3.996-3.996
		c-1.332,1.331-2.664,2.664-3.997,3.996c-1.332-1.332-2.664-2.665-3.996-3.996c-1.332,1.331-2.665,2.664-3.997,3.996
		c-1.332-1.332-2.664-2.665-3.996-3.996c-1.333,1.331-2.665,2.664-3.997,3.996c-1.332-1.332-2.664-2.665-3.997-3.996
		c-1.332,1.331-2.664,2.664-3.996,3.996c-1.332-1.332-2.665-2.665-3.997-3.996c-1.332,1.331-2.664,2.664-3.996,3.996
		c-1.332-1.332-2.664-2.665-3.997-3.996c-1.332,1.331-2.664,2.664-3.997,3.996c0-1.332,0-2.665,0-3.996c0-11.99,0-23.979,0-35.968
		c0,0,0-23.979,23.979-23.979C273.641-208.598,273.641-184.618,273.641-184.618z M241.67-192.612c-3.311,0-5.994,2.684-5.994,5.995
		c0,3.311,2.684,5.995,5.994,5.995c3.31,0,5.994-2.684,5.994-5.995C247.665-189.928,244.98-192.612,241.67-192.612z
		 M257.656-192.612c-3.31,0-5.994,2.684-5.994,5.995c0,3.311,2.684,5.995,5.994,5.995c3.312,0,5.996-2.684,5.996-5.995
		C263.651-189.928,260.967-192.612,257.656-192.612z"/>
</g>
<g id="_x30_" display="none">
	
		<rect x="106.573" y="-106.572" display="inline" fill="none" stroke="#00FFFF" stroke-linecap="round" stroke-linejoin="round" width="73.037" height="73.037"/>
	
		<rect x="213.145" y="-213.145" display="inline" fill="none" stroke="#00FFFF" stroke-linecap="round" stroke-linejoin="round" width="73.037" height="73.037"/>
	
		<rect x="213.145" y="-106.572" display="inline" fill="none" stroke="#00FFFF" stroke-linecap="round" stroke-linejoin="round" width="73.037" height="73.037"/>
	
		<rect x="-106.572" display="inline" fill="none" stroke="#00FFFF" stroke-linecap="round" stroke-linejoin="round" width="73.037" height="73.038"/>
	
		<rect display="inline" fill="none" stroke="#00FFFF" stroke-linecap="round" stroke-linejoin="round" width="73.037" height="73.038"/>
	
		<rect x="106.572" y="-319.186" display="inline" fill="none" stroke="#00FFFF" stroke-linecap="round" stroke-linejoin="round" width="73.038" height="73.038"/>
	
		<rect x="213.144" y="-319.186" display="inline" fill="none" stroke="#00FFFF" stroke-linecap="round" stroke-linejoin="round" width="73.038" height="73.038"/>
	
		<rect y="-319.718" display="inline" fill="none" stroke="#00FFFF" stroke-linecap="round" stroke-linejoin="round" width="73.038" height="73.038"/>
	
		<rect x="-106.572" y="-319.718" display="inline" fill="none" stroke="#00FFFF" stroke-linecap="round" stroke-linejoin="round" width="73.037" height="73.038"/>
	
		<rect x="-106.572" y="-213.145" display="inline" fill="none" stroke="#00FFFF" stroke-linecap="round" stroke-linejoin="round" width="73.037" height="73.037"/>
	
		<rect y="-106.572" display="inline" fill="none" stroke="#00FFFF" stroke-linecap="round" stroke-linejoin="round" width="73.038" height="73.037"/>
	
		<rect x="-106.572" y="-106.572" display="inline" fill="none" stroke="#00FFFF" stroke-linecap="round" stroke-linejoin="round" width="73.038" height="73.037"/>
	
		<rect x="106.337" y="-213.145" display="inline" fill="none" stroke="#00FFFF" stroke-linecap="round" stroke-linejoin="round" width="73.036" height="73.037"/>
	
		<rect x="0.001" y="-213.145" display="inline" fill="none" stroke="#00FFFF" stroke-linecap="round" stroke-linejoin="round" width="73.036" height="73.037"/>
</g>
<g id="Outline">
	<rect x="111.12" y="-72.328" width="63.943" height="4.546"/>
	<polygon points="38.792,-67.781 68.491,-67.781 68.491,-72.328 38.792,-72.328 38.792,-102.025 34.246,-102.025 34.246,-72.328 
		4.547,-72.328 4.547,-67.781 34.246,-67.781 34.246,-38.082 38.792,-38.082 	"/>
	<polygon points="46.947,57.515 43.732,60.73 19.521,36.518 43.734,12.303 46.95,15.519 25.95,36.518 	"/>
	<polygon points="280.153,-87.536 276.984,-90.796 237.016,-51.954 222.987,-66.388 219.727,-63.219 236.922,-45.524 	"/>
	<polygon points="-80.482,57.515 -77.268,60.73 -53.055,36.518 -77.27,12.303 -80.485,15.519 -59.486,36.518 	"/>
	<path d="M16.874-296.981h39.29l-7.151,40.045H24.026L16.874-296.981z M11.236-302.69l9.189,51.464h32.186l9.19-51.464
		 M22.735-314.106v5.709h27.567v-5.709H22.735z M11.176-302.69h25.343H61.86"/>
	<polygon points="-70.053,-66.838 -91.053,-45.839 -94.269,-49.054 -73.268,-70.053 -94.269,-91.054 -91.053,-94.269 
		-70.053,-73.27 -49.054,-94.269 -45.838,-91.054 -66.838,-70.053 -45.838,-49.054 -49.054,-45.839 	"/>
	<path d="M-38.082-190.178c0,11.698,0,23.398,0,35.097c0,1.324-1.075,2.397-2.399,2.397c-12.522,0-25.044,0-37.566,0
		c-3.596,0-7.193,0-10.791,0c-3.597,0-7.193,0-10.79,0c-1.323,0-2.398-1.073-2.398-2.397c0-14.364,0-28.726,0-43.089
		c0-1.323,1.074-2.398,2.398-2.398c5.314,0,10.628,0,15.942,0c0.671,0,1.276,0.279,1.711,0.723c0.005-0.002,0.009-0.002,0.014-0.005
		c2.09,2.425,4.179,4.851,6.269,7.274c11.738,0,23.475,0,35.211,0C-39.157-192.576-38.082-191.502-38.082-190.178z M-42.629-188.029
		h-35.147l-6.89-7.993h-12.813v38.791h54.85V-188.029z"/>
	<path d="M140.817-277.772v-27.656h4.547v27.656l14.784-15.275l3.268,3.161l-20.325,21.002l-20.325-21.002l3.268-3.161
		L140.817-277.772z M167.993-262.333h-49.804v-20.334h-4.548v24.882h58.899v-24.882h-4.547V-262.333z"/>
	<path d="M257.248-264.71c1.128,1.014,2.258,2.029,3.387,3.043c-3.657,3.657-7.315,7.315-10.972,10.972
		c-3.657-3.657-7.315-7.315-10.972-10.972c1.072-1.072,2.143-2.143,3.215-3.215c1.828,1.828,3.656,3.655,5.483,5.483
		c0-3.476,0-6.951,0-10.427c-4.595,0-9.189,0-13.784,0c-14.653,0-16.558-21.241-2.138-23.848
		c1.815-13.883,19.29-18.954,28.254-8.201c14.602-1.323,23.193,16.005,13.301,26.826c-3.387,3.704-6.832,5.223-11.85,5.223
		c-3.08,0-6.158,0-9.237,0c0,3.476,0,6.951,0,10.427c1.828-1.828,3.655-3.656,5.483-5.483 M256.849-298.15
		c-6.427-9.269-20.969-4.721-20.969,6.56c0,0.757,0,1.515,0,2.272c-0.757,0-1.515,0-2.273,0c-4.126,0-7.472,3.347-7.472,7.473
		c0,4.127,3.345,7.473,7.472,7.473c9.189,0,18.378,0,27.567,0c3.598,0,6.067-1.088,8.495-3.744
		c7.433-8.132,0.295-21.055-10.546-19.091c-0.481,0.085-0.96,0.173-1.44,0.26C257.405-297.348,257.126-297.749,256.849-298.15z"/>
	<path d="M-75.992-261.876l-21.051,5.641l5.622-20.978l37.892-37.893l15.382,15.383l-37.893,37.894l-0.027-0.027 M-84.992-277.212
		l8.952,8.952l31.461-31.462l-8.952-8.952L-84.992-277.212z M-90.612-262.666l10.831-2.904l-7.929-7.93L-90.612-262.666z"/>
	<path d="M45.187-204.476l12.79,12.789v42.912H15.062v-55.701H45.187z M45.187-198.046v6.359h6.358L45.187-198.046z M53.428-153.324
		v-33.816H40.64v-12.788H19.609v46.604H53.428z"/>
	<path d="M170.863-155.382h-56.016v-42.487h56.016V-155.382z M166.316-163.045v-27.211l-14.055,13.515L166.316-163.045z
		 M136.483-173.65l-13.84,13.721h40.355l-14.016-13.658l-6.244,6.004L136.483-173.65z M139.713-176.853l3.039,2.948l2.972-2.858
		l-3.077-2.998L139.713-176.853z M133.218-176.816l-13.824-13.407v27.112L133.218-176.816z M149.003-179.917l13.942-13.406h-40.216
		l13.718,13.304l6.171-6.117L149.003-179.917z"/>
</g>
</svg>
