<?xml version="1.0" encoding="utf-8"?>
<!-- Generator: Adobe Illustrator 16.0.0, SVG Export Plug-In . SVG Version: 6.00 Build 0)  -->
<!DOCTYPE svg PUBLIC "-//W3C//DTD SVG 1.1//EN" "http://www.w3.org/Graphics/SVG/1.1/DTD/svg11.dtd">
<svg version="1.1" xmlns="http://www.w3.org/2000/svg" xmlns:xlink="http://www.w3.org/1999/xlink" x="0px" y="0px"
	 width="73.037px" height="73.038px" viewBox="0 0 73.037 73.038" enable-background="new 0 0 73.037 73.038" xml:space="preserve">
<g id="Default">
	<path d="M380.213-184.618c0,11.989,0,23.979,0,35.968c0,1.331,0,2.664,0,3.996c-1.332-1.332-2.664-2.665-3.996-3.996
		c-1.332,1.331-2.664,2.664-3.997,3.996c-1.332-1.332-2.664-2.665-3.996-3.996c-1.332,1.331-2.665,2.664-3.997,3.996
		c-1.332-1.332-2.664-2.665-3.996-3.996c-1.333,1.331-2.665,2.664-3.997,3.996c-1.332-1.332-2.664-2.665-3.997-3.996
		c-1.332,1.331-2.664,2.664-3.996,3.996c-1.332-1.332-2.665-2.665-3.997-3.996c-1.332,1.331-2.664,2.664-3.996,3.996
		c-1.332-1.332-2.664-2.665-3.997-3.996c-1.332,1.331-2.664,2.664-3.997,3.996c0-1.332,0-2.665,0-3.996c0-11.99,0-23.979,0-35.968
		c0,0,0-23.979,23.979-23.979C380.213-208.598,380.213-184.618,380.213-184.618z M348.243-192.612c-3.311,0-5.994,2.684-5.994,5.995
		c0,3.311,2.684,5.995,5.994,5.995c3.31,0,5.994-2.684,5.994-5.995C354.237-189.928,351.553-192.612,348.243-192.612z
		 M364.228-192.612c-3.31,0-5.994,2.684-5.994,5.995c0,3.311,2.684,5.995,5.994,5.995c3.312,0,5.996-2.684,5.996-5.995
		C370.224-189.928,367.54-192.612,364.228-192.612z"/>
</g>
<g id="_x30_" display="none">
	
		<rect x="213.146" y="-106.572" display="inline" fill="none" stroke="#00FFFF" stroke-linecap="round" stroke-linejoin="round" width="73.037" height="73.037"/>
	
		<rect x="319.717" y="-213.145" display="inline" fill="none" stroke="#00FFFF" stroke-linecap="round" stroke-linejoin="round" width="73.037" height="73.037"/>
	
		<rect x="319.717" y="-106.572" display="inline" fill="none" stroke="#00FFFF" stroke-linecap="round" stroke-linejoin="round" width="73.037" height="73.037"/>
	
		<rect display="inline" fill="none" stroke="#00FFFF" stroke-linecap="round" stroke-linejoin="round" width="73.037" height="73.038"/>
	
		<rect x="106.572" display="inline" fill="none" stroke="#00FFFF" stroke-linecap="round" stroke-linejoin="round" width="73.037" height="73.038"/>
	
		<rect x="213.144" y="-319.186" display="inline" fill="none" stroke="#00FFFF" stroke-linecap="round" stroke-linejoin="round" width="73.038" height="73.038"/>
	
		<rect x="319.716" y="-319.186" display="inline" fill="none" stroke="#00FFFF" stroke-linecap="round" stroke-linejoin="round" width="73.038" height="73.038"/>
	
		<rect x="106.572" y="-319.718" display="inline" fill="none" stroke="#00FFFF" stroke-linecap="round" stroke-linejoin="round" width="73.038" height="73.038"/>
	
		<rect y="-319.718" display="inline" fill="none" stroke="#00FFFF" stroke-linecap="round" stroke-linejoin="round" width="73.037" height="73.038"/>
	
		<rect y="-213.145" display="inline" fill="none" stroke="#00FFFF" stroke-linecap="round" stroke-linejoin="round" width="73.037" height="73.037"/>
	
		<rect x="106.572" y="-106.572" display="inline" fill="none" stroke="#00FFFF" stroke-linecap="round" stroke-linejoin="round" width="73.038" height="73.037"/>
	
		<rect y="-106.572" display="inline" fill="none" stroke="#00FFFF" stroke-linecap="round" stroke-linejoin="round" width="73.038" height="73.037"/>
	
		<rect x="212.909" y="-213.145" display="inline" fill="none" stroke="#00FFFF" stroke-linecap="round" stroke-linejoin="round" width="73.036" height="73.037"/>
	
		<rect x="106.573" y="-213.145" display="inline" fill="none" stroke="#00FFFF" stroke-linecap="round" stroke-linejoin="round" width="73.036" height="73.037"/>
</g>
<g id="Outline">
	<rect x="217.692" y="-72.328" width="63.943" height="4.546"/>
	<polygon points="145.365,-67.781 175.063,-67.781 175.063,-72.328 145.365,-72.328 145.365,-102.025 140.818,-102.025 
		140.818,-72.328 111.119,-72.328 111.119,-67.781 140.818,-67.781 140.818,-38.082 145.365,-38.082 	"/>
	<polygon points="153.519,57.515 150.304,60.73 126.093,36.518 150.307,12.303 153.522,15.519 132.522,36.518 	"/>
	<polygon points="386.725,-87.536 383.557,-90.796 343.588,-51.954 329.56,-66.388 326.299,-63.219 343.495,-45.524 	"/>
	<polygon points="26.09,57.515 29.305,60.73 53.518,36.518 29.302,12.303 26.087,15.519 47.086,36.518 	"/>
	<path d="M123.446-296.981h39.29l-7.151,40.045h-24.986L123.446-296.981z M117.809-302.69l9.189,51.464h32.186l9.19-51.464
		 M129.308-314.106v5.709h27.567v-5.709H129.308z M117.749-302.69h25.343h25.341"/>
	<polygon points="36.519,-66.838 15.52,-45.839 12.303,-49.054 33.304,-70.053 12.303,-91.054 15.52,-94.269 36.519,-73.27 
		57.519,-94.269 60.734,-91.054 39.734,-70.053 60.734,-49.054 57.519,-45.839 	"/>
	<path d="M68.49-190.178c0,11.698,0,23.398,0,35.097c0,1.324-1.075,2.397-2.399,2.397c-12.522,0-25.044,0-37.566,0
		c-3.596,0-7.193,0-10.791,0c-3.597,0-7.193,0-10.79,0c-1.323,0-2.398-1.073-2.398-2.397c0-14.364,0-28.726,0-43.089
		c0-1.323,1.074-2.398,2.398-2.398c5.314,0,10.628,0,15.942,0c0.671,0,1.276,0.279,1.711,0.723c0.005-0.002,0.009-0.002,0.014-0.005
		c2.09,2.425,4.179,4.851,6.269,7.274c11.738,0,23.475,0,35.211,0C67.416-192.576,68.49-191.502,68.49-190.178z M63.943-188.029
		H28.796l-6.89-7.993H9.094v38.791h54.85V-188.029z"/>
	<path d="M247.39-277.772v-27.656h4.547v27.656l14.784-15.275l3.268,3.161l-20.325,21.002l-20.325-21.002l3.268-3.161
		L247.39-277.772z M274.565-262.333h-49.804v-20.334h-4.548v24.882h58.899v-24.882h-4.547V-262.333z"/>
	<path d="M363.82-264.71c1.128,1.014,2.258,2.029,3.387,3.043c-3.657,3.657-7.315,7.315-10.972,10.972
		c-3.657-3.657-7.315-7.315-10.972-10.972c1.072-1.072,2.143-2.143,3.215-3.215c1.828,1.828,3.656,3.655,5.483,5.483
		c0-3.476,0-6.951,0-10.427c-4.595,0-9.189,0-13.784,0c-14.653,0-16.558-21.241-2.138-23.848
		c1.815-13.883,19.29-18.954,28.254-8.201c14.602-1.323,23.193,16.005,13.301,26.826c-3.387,3.704-6.832,5.223-11.85,5.223
		c-3.08,0-6.158,0-9.237,0c0,3.476,0,6.951,0,10.427c1.828-1.828,3.655-3.656,5.483-5.483 M363.421-298.15
		c-6.427-9.269-20.969-4.721-20.969,6.56c0,0.757,0,1.515,0,2.272c-0.757,0-1.515,0-2.273,0c-4.126,0-7.472,3.347-7.472,7.473
		c0,4.127,3.345,7.473,7.472,7.473c9.189,0,18.378,0,27.567,0c3.598,0,6.067-1.088,8.495-3.744
		c7.433-8.132,0.295-21.055-10.546-19.091c-0.481,0.085-0.96,0.173-1.44,0.26C363.977-297.348,363.698-297.749,363.421-298.15z"/>
	<path d="M30.58-261.876l-21.051,5.641l5.622-20.978l37.892-37.893l15.382,15.383l-37.893,37.894l-0.027-0.027 M21.581-277.212
		l8.952,8.952l31.461-31.462l-8.952-8.952L21.581-277.212z M15.96-262.666l10.831-2.904l-7.929-7.93L15.96-262.666z"/>
	<path d="M151.759-204.476l12.79,12.789v42.912h-42.914v-55.701H151.759z M151.759-198.046v6.359h6.358L151.759-198.046z
		 M160-153.324v-33.816h-12.788v-12.788h-21.031v46.604H160z"/>
	<path d="M277.435-155.382h-56.016v-42.487h56.016V-155.382z M272.888-163.045v-27.211l-14.055,13.515L272.888-163.045z
		 M243.055-173.65l-13.84,13.721h40.355l-14.016-13.658l-6.244,6.004L243.055-173.65z M246.285-176.853l3.039,2.948l2.972-2.858
		l-3.077-2.998L246.285-176.853z M239.79-176.816l-13.824-13.407v27.112L239.79-176.816z M255.576-179.917l13.942-13.406h-40.216
		l13.718,13.304l6.171-6.117L255.576-179.917z"/>
</g>
</svg>
