<?xml version="1.0" encoding="utf-8"?>
<!-- Generator: Adobe Illustrator 16.0.0, SVG Export Plug-In . SVG Version: 6.00 Build 0)  -->
<!DOCTYPE svg PUBLIC "-//W3C//DTD SVG 1.1//EN" "http://www.w3.org/Graphics/SVG/1.1/DTD/svg11.dtd">
<svg version="1.1" id="Layer_1" xmlns="http://www.w3.org/2000/svg" xmlns:xlink="http://www.w3.org/1999/xlink" x="0px" y="0px"
	 width="76.958px" height="76.958px" viewBox="0 0 76.958 76.958" enable-background="new 0 0 76.958 76.958" xml:space="preserve">
<path d="M6.354,42.651c0.765-13.318,12.18-23.496,25.499-22.731c4.909,0.281,9.39,2.01,13.056,4.748
	c1.403-1.252,2.807-2.504,4.213-3.755c0.758,0.849,1.512,1.697,2.271,2.546c0.884-1.674,1.051-3.714,0.283-5.606
	c0.742-0.3,1.482-0.6,2.221-0.9c0.116,0.285,0.219,0.577,0.303,0.872c0.086,0.291,0.156,0.587,0.211,0.885
	c0.055,0.292,0.096,0.589,0.119,0.887c0.024,0.294,0.035,0.592,0.031,0.887c-0.005,0.293-0.023,0.586-0.057,0.877
	c-0.032,0.288-0.08,0.577-0.139,0.861c-0.062,0.284-0.135,0.563-0.223,0.839c-0.086,0.275-0.188,0.547-0.299,0.813
	c-0.112,0.266-0.238,0.526-0.375,0.78c-0.125,0.232-0.262,0.459-0.405,0.678c0.838,0.941,1.677,1.881,2.515,2.821
	c-1.406,1.252-2.811,2.504-4.215,3.755c2.301,3.955,3.504,8.604,3.223,13.512c-0.765,13.32-12.182,23.496-25.5,22.73
	C15.767,67.387,5.589,55.969,6.354,42.651z M20.161,32.636c-0.097-1.335-1.257-2.341-2.593-2.245
	c-1.335,0.096-2.341,1.257-2.245,2.592c0.096,1.337,1.257,2.341,2.592,2.246C19.251,35.132,20.256,33.972,20.161,32.636z"/>
<rect x="46.699" y="10.878" transform="matrix(-0.6543 0.7562 -0.7562 -0.6543 88.5384 -13.2517)" width="1.198" height="5.463"/>
<rect x="57.489" y="19.215" transform="matrix(0.982 0.189 -0.189 0.982 4.8274 -11.0067)" width="5.295" height="1.197"/>
<rect x="56.961" y="15.429" transform="matrix(0.9448 -0.3277 0.3277 0.9448 -1.9536 20.4632)" width="5.553" height="1.199"/>
<rect x="54.916" y="12.27" transform="matrix(0.6545 -0.7561 0.7561 0.6545 10.1881 48.0323)" width="5.467" height="1.197"/>
<rect x="51.496" y="10.613" transform="matrix(0.1891 -0.982 0.982 0.1891 32.9666 62.3447)" width="5.469" height="1.198"/>
<rect x="47.715" y="10.875" transform="matrix(-0.3275 -0.9449 0.9449 -0.3275 56.1191 62.892)" width="5.455" height="1.197"/>
</svg>
