<?xml version="1.0" encoding="utf-8"?>
<!-- Generator: Adobe Illustrator 16.0.0, SVG Export Plug-In . SVG Version: 6.00 Build 0)  -->
<!DOCTYPE svg PUBLIC "-//W3C//DTD SVG 1.1//EN" "http://www.w3.org/Graphics/SVG/1.1/DTD/svg11.dtd">
<svg version="1.1" id="Layer_1" xmlns="http://www.w3.org/2000/svg" xmlns:xlink="http://www.w3.org/1999/xlink" x="0px" y="0px"
	 width="76.958px" height="76.958px" viewBox="0 0 76.958 76.958" enable-background="new 0 0 76.958 76.958" xml:space="preserve">
<g id="Layer_1_1_">
</g>
<rect x="57.321" y="19.164" transform="matrix(0.9819 0.1892 -0.1892 0.9819 4.8223 -10.9889)" width="5.277" height="1.192"/>
<rect x="56.792" y="15.386" transform="matrix(0.945 -0.3271 0.3271 0.945 -1.9512 20.36)" width="5.537" height="1.191"/>
<rect x="54.753" y="12.23" transform="matrix(0.6541 -0.7564 0.7564 0.6541 10.1777 47.9144)" width="5.451" height="1.197"/>
<rect x="51.345" y="10.583" transform="matrix(0.1894 -0.9819 0.9819 0.1894 32.8532 62.1535)" width="5.45" height="1.192"/>
<rect x="47.576" y="10.85" transform="matrix(-0.3275 -0.9449 0.9449 -0.3275 55.9485 62.7154)" width="5.436" height="1.193"/>
<path d="M6.336,42.528C7.098,29.25,18.479,19.104,31.758,19.863c4.894,0.279,9.364,2.002,13.019,4.734
	c1.397-1.249,2.8-2.498,4.2-3.746c0.754,0.847,1.508,1.689,2.264,2.542c0.881-1.675,1.047-3.701,0.282-5.591
	c0.739-0.299,1.476-0.598,2.214-0.896c0.113,0.284,0.217,0.573,0.305,0.867c0.082,0.294,0.151,0.587,0.207,0.881
	c0.058,0.294,0.097,0.588,0.119,0.886c0.025,0.294,0.035,0.593,0.029,0.887c-0.002,0.289-0.021,0.583-0.059,0.871
	c-0.03,0.289-0.076,0.578-0.137,0.862c-0.061,0.279-0.133,0.558-0.22,0.833c-0.087,0.274-0.187,0.548-0.299,0.813
	c-0.111,0.264-0.236,0.524-0.374,0.778c-0.125,0.23-0.26,0.456-0.404,0.676c0.836,0.935,1.67,1.875,2.506,2.811
	c-1.399,1.249-2.802,2.497-4.201,3.746c2.293,3.941,3.492,8.579,3.215,13.475c-0.764,13.281-12.146,23.426-25.425,22.662
	C15.72,67.186,5.572,55.808,6.336,42.528z M20.1,32.54c-0.096-1.332-1.254-2.33-2.586-2.237c-1.331,0.098-2.333,1.254-2.237,2.585
	c0.095,1.332,1.254,2.336,2.585,2.238C19.194,35.032,20.195,33.872,20.1,32.54z"/>
<rect x="46.564" y="10.849" transform="matrix(-0.6548 0.7558 -0.7558 -0.6548 88.2983 -13.1861)" width="1.193" height="5.447"/>
</svg>
