<?xml version="1.0" encoding="utf-8"?>
<!-- Generator: Adobe Illustrator 16.0.0, SVG Export Plug-In . SVG Version: 6.00 Build 0)  -->
<!DOCTYPE svg PUBLIC "-//W3C//DTD SVG 1.1//EN" "http://www.w3.org/Graphics/SVG/1.1/DTD/svg11.dtd">
<svg version="1.1" id="Layer_1" xmlns="http://www.w3.org/2000/svg" xmlns:xlink="http://www.w3.org/1999/xlink" x="0px" y="0px"
	 width="77px" height="77px" viewBox="0 0 77 77" enable-background="new 0 0 77 77" xml:space="preserve">
<g id="Layer_1_1_">
</g>
<rect x="34.282" y="7.82" transform="matrix(-0.0017 1 -1 -0.0017 47.5916 -29.4734)" width="8.451" height="2.398"/>
<rect x="16.556" y="17.044" transform="matrix(0.4821 -0.8761 0.8761 0.4821 -9.4403 26.5692)" width="2.397" height="8.452"/>
<rect x="16.79" y="40.246" transform="matrix(-0.4992 -0.8665 0.8665 -0.4992 -11.5648 82.2595)" width="2.397" height="8.452"/>
<path d="M43.113,61.271c-1.547,0-3.094,0-4.64,0c-1.547,0-3.094,0-4.638,0c0-6.523-2.178-12.877-6.529-19.065
	c-6.65-7.774-3.517-19.791,6.077-23.333c9.59-3.542,19.781,3.556,19.781,13.782c0,3.803-1.055,6.665-3.525,9.552
	C45.283,48.395,43.113,54.748,43.113,61.271z M40.805,58.874c0.006-0.069,0.012-0.142,0.018-0.211
	c0.056-0.668,0.134-1.334,0.232-1.997c0.055-0.383,0.117-0.764,0.188-1.143c0.07-0.381,0.148-0.762,0.232-1.14
	c0.084-0.38,0.176-0.758,0.273-1.134c0.1-0.378,0.203-0.755,0.316-1.129c0.223-0.756,0.478-1.505,0.752-2.243
	c0.281-0.75,0.588-1.489,0.922-2.22c0.168-0.371,0.342-0.739,0.521-1.104c0.231-0.474,0.476-0.943,0.728-1.408
	c0.4-0.734,0.822-1.459,1.267-2.172c0.454-0.729,0.933-1.445,1.425-2.148c0.023-0.031,0.045-0.062,0.066-0.092
	c0.023-0.029,0.05-0.059,0.072-0.088c0.15-0.174,0.295-0.352,0.438-0.532c0.137-0.173,0.27-0.347,0.396-0.524
	c0.121-0.171,0.24-0.343,0.354-0.52c0.108-0.168,0.214-0.34,0.315-0.514c0.096-0.169,0.191-0.34,0.277-0.514
	c0.088-0.171,0.168-0.342,0.246-0.517c0.075-0.172,0.147-0.346,0.215-0.522c0.063-0.177,0.127-0.354,0.183-0.533
	c0.058-0.183,0.106-0.365,0.155-0.549c0.047-0.188,0.09-0.378,0.129-0.568c0.037-0.195,0.072-0.393,0.102-0.591
	c0.027-0.206,0.053-0.413,0.072-0.619c0.021-0.215,0.037-0.433,0.049-0.648c0.012-0.229,0.018-0.457,0.018-0.684
	c0.004-0.061,0.004-0.122,0.004-0.183c0-0.075-0.004-0.151-0.004-0.226c-0.002-0.149-0.009-0.3-0.018-0.449
	c-0.016-0.294-0.043-0.588-0.078-0.879c-0.037-0.287-0.081-0.572-0.139-0.854c-0.057-0.278-0.119-0.555-0.194-0.828
	c-0.071-0.271-0.155-0.538-0.249-0.803c-0.09-0.26-0.188-0.52-0.299-0.774c-0.105-0.252-0.227-0.501-0.35-0.745
	c-0.125-0.243-0.256-0.482-0.397-0.717c-0.14-0.233-0.286-0.462-0.44-0.685c-0.156-0.222-0.314-0.439-0.485-0.652
	c-0.187-0.234-0.384-0.462-0.585-0.682c-0.368-0.396-0.76-0.769-1.174-1.114c-0.209-0.172-0.42-0.339-0.637-0.497
	c-0.218-0.16-0.441-0.312-0.67-0.455c-0.455-0.288-0.93-0.549-1.417-0.776c-0.353-0.164-0.715-0.312-1.083-0.442
	c-0.255-0.091-0.513-0.174-0.773-0.246c-0.26-0.076-0.523-0.139-0.791-0.196c-0.266-0.056-0.531-0.104-0.805-0.142
	c-0.27-0.04-0.541-0.068-0.816-0.088c-0.274-0.021-0.55-0.031-0.825-0.032c-0.281,0-0.559,0.007-0.837,0.026
	c-0.281,0.017-0.562,0.046-0.843,0.084c-0.284,0.039-0.567,0.088-0.846,0.146c-0.287,0.06-0.57,0.129-0.852,0.21
	c-0.29,0.082-0.573,0.172-0.854,0.274c-0.142,0.051-0.284,0.106-0.423,0.161c-0.139,0.055-0.278,0.113-0.414,0.174
	c-0.27,0.119-0.533,0.246-0.794,0.385c-0.252,0.133-0.504,0.278-0.747,0.429c-0.241,0.151-0.475,0.309-0.707,0.475
	c-0.226,0.164-0.446,0.336-0.66,0.514c-0.211,0.178-0.417,0.362-0.617,0.555c-0.2,0.19-0.391,0.387-0.573,0.589
	c-0.186,0.202-0.362,0.41-0.53,0.625c-0.168,0.213-0.33,0.432-0.484,0.654c-0.153,0.223-0.301,0.452-0.44,0.684
	c-0.168,0.284-0.325,0.575-0.469,0.871c-0.241,0.485-0.446,0.983-0.62,1.495c-0.084,0.255-0.162,0.513-0.231,0.772
	c-0.073,0.261-0.133,0.523-0.186,0.786c-0.104,0.53-0.177,1.065-0.214,1.604c-0.023,0.359-0.032,0.72-0.026,1.079
	c0.005,0.271,0.02,0.542,0.043,0.811s0.055,0.54,0.098,0.808c0.041,0.269,0.09,0.537,0.151,0.804
	c0.061,0.268,0.127,0.533,0.206,0.795c0.081,0.267,0.168,0.527,0.264,0.788c0.098,0.261,0.206,0.519,0.321,0.773
	c0.116,0.258,0.243,0.51,0.376,0.759c0.139,0.253,0.284,0.501,0.438,0.743c0.159,0.247,0.325,0.489,0.498,0.726
	c0.18,0.24,0.368,0.476,0.562,0.703c0.023,0.028,0.049,0.058,0.073,0.086c0.023,0.031,0.046,0.062,0.066,0.094
	c0.495,0.701,0.97,1.419,1.425,2.148c0.443,0.711,0.863,1.437,1.263,2.172c0.255,0.465,0.496,0.935,0.73,1.408
	c0.18,0.363,0.354,0.731,0.521,1.104c0.165,0.363,0.327,0.734,0.481,1.105c0.15,0.369,0.298,0.739,0.437,1.113
	c0.278,0.738,0.53,1.486,0.756,2.242c0.223,0.747,0.42,1.502,0.591,2.264c0.168,0.756,0.307,1.516,0.42,2.281
	c0.099,0.663,0.177,1.329,0.232,1.997c0.005,0.069,0.011,0.142,0.017,0.211C37.697,58.874,39.252,58.874,40.805,58.874z"/>
<polygon points="40.593,72.207 36.355,72.207 35.162,69.427 41.784,69.427 "/>
<rect x="49.078" y="7.955" transform="matrix(0.8664 0.4994 -0.4994 0.8664 12.8002 -23.4789)" width="2.399" height="8.453"/>
<rect x="10.602" y="31.457" width="8.452" height="2.397"/>
<rect x="57.883" y="31.457" width="8.452" height="2.397"/>
<rect x="25.449" y="7.961" transform="matrix(0.8657 -0.5005 0.5005 0.8657 -2.5222 14.9742)" width="2.396" height="8.454"/>
<rect x="57.742" y="40.257" transform="matrix(-0.4995 0.8663 -0.8663 -0.4995 126.9203 15.6415)" width="2.399" height="8.452"/>
<rect x="57.742" y="16.609" transform="matrix(0.5003 0.8658 -0.8658 0.5003 47.4895 -40.6217)" width="2.397" height="8.452"/>
<rect x="33.835" y="63.667" width="9.278" height="4.241"/>
<g id="Problem" display="none">
	<polygon display="inline" points="-107.258,379.302 -107.258,382.162 -113.514,382.162 -113.514,379.302 -113.514,382.162 
		-107.258,382.162 	"/>
	<polygon display="inline" points="-31.499,379.302 -31.499,382.162 -37.754,382.162 -37.754,379.302 -37.754,382.162 
		-31.499,382.162 	"/>
</g>
</svg>
