<?xml version="1.0" encoding="utf-8"?>
<!-- Generator: Adobe Illustrator 16.0.0, SVG Export Plug-In . SVG Version: 6.00 Build 0)  -->
<!DOCTYPE svg PUBLIC "-//W3C//DTD SVG 1.1//EN" "http://www.w3.org/Graphics/SVG/1.1/DTD/svg11.dtd">
<svg version="1.1" id="Layer_1" xmlns="http://www.w3.org/2000/svg" xmlns:xlink="http://www.w3.org/1999/xlink" x="0px" y="0px"
	 width="76.958px" height="76.958px" viewBox="0 0 76.958 76.958" enable-background="new 0 0 76.958 76.958" xml:space="preserve">
<circle cx="38.481" cy="38.482" r="9.74"/>
<path d="M62.831,19.001c2.688,0,4.871,2.184,4.871,4.868c0,9.741,0,19.481,0,29.221c0,2.688-2.183,4.871-4.871,4.871
	c-16.232,0-32.467,0-48.699,0c-2.688,0-4.872-2.182-4.872-4.871c0-9.74,0-19.48,0-29.221c0-2.684,2.184-4.868,4.872-4.868
	c3.246,0,6.492,0,9.74,0c0-0.812,0-1.625,0-2.438c0-1.344,1.089-2.433,2.434-2.433c8.117,0,16.235,0,24.353,0
	c1.342,0,2.434,1.089,2.434,2.433c0,0.813,0,1.626,0,2.438C56.336,19.001,59.584,19.001,62.831,19.001z M38.481,53.09
	c8.068,0,14.609-6.543,14.609-14.61c0-8.064-6.541-14.61-14.609-14.61c-8.067,0-14.609,6.546-14.609,14.61
	C23.872,46.547,30.414,53.09,38.481,53.09z"/>
</svg>
