<?xml version="1.0" encoding="utf-8"?>
<!-- Generator: Adobe Illustrator 16.0.0, SVG Export Plug-In . SVG Version: 6.00 Build 0)  -->
<!DOCTYPE svg PUBLIC "-//W3C//DTD SVG 1.1//EN" "http://www.w3.org/Graphics/SVG/1.1/DTD/svg11.dtd">
<svg version="1.1" id="Layer_1" xmlns="http://www.w3.org/2000/svg" xmlns:xlink="http://www.w3.org/1999/xlink" x="0px" y="0px"
	 width="76.958px" height="76.958px" viewBox="0 0 76.958 76.958" enable-background="new 0 0 76.958 76.958" xml:space="preserve">
<path d="M33.779,7.542c17.087-2.596,33.042,9.152,35.638,26.238c2.596,17.085-9.151,33.04-26.237,35.636
	c-17.086,2.596-33.042-9.15-35.636-26.238C4.946,26.094,16.693,10.138,33.779,7.542z M64.895,40.605
	c1.174-14.589-9.701-27.367-24.29-28.541s-27.368,9.701-28.541,24.289c-1.174,14.589,9.699,27.366,24.288,28.543
	C50.942,66.069,63.72,55.194,64.895,40.605z"/>
<path d="M40.172,40.172c-1.145,1.146-3.07,0.85-3.817-0.586c-0.973-1.865-0.272-3.573-0.272-5.372c0-3.303,0-6.606,0-9.909
	c0-1.973-1.338-8.427,2.176-8.752c2.408-0.222,2.615,1.393,2.615,3.346c0,1.654,0,3.308,0,4.962c0,1.727,0,3.454,0,5.183
	c0,0.864,0,1.727,0,2.591c0,0.322-0.33,1.389,0.119,0.94c0.215-0.213,0.43-0.428,0.643-0.643c0.889-0.888,5.564-6.384,7.471-6.096
	c1.443,0.218,2.012,0.865,2.042,2.323c0.013,0.614-0.149,1.081-0.534,1.557c-1.031,1.276-2.287,2.303-3.435,3.449
	C44.844,35.502,42.508,37.837,40.172,40.172z"/>
</svg>
