<?xml version="1.0" encoding="utf-8"?>
<!-- Generator: Adobe Illustrator 16.0.0, SVG Export Plug-In . SVG Version: 6.00 Build 0)  -->
<!DOCTYPE svg PUBLIC "-//W3C//DTD SVG 1.1//EN" "http://www.w3.org/Graphics/SVG/1.1/DTD/svg11.dtd">
<svg version="1.1" id="Layer_1" xmlns="http://www.w3.org/2000/svg" xmlns:xlink="http://www.w3.org/1999/xlink" x="0px" y="0px"
	 width="77px" height="77px" viewBox="0 0 77 77" enable-background="new 0 0 77 77" xml:space="preserve">
<g id="Layer_1_1_">
</g>
<path d="M54.77,65.25c-14.512,8.826-33.409,4.477-42.599-9.809c-9.212-14.316-5.315-33.335,8.786-42.875
	c14.1-9.538,33.172-6.094,43.046,7.771c4.36,6.123,6.372,13.608,5.669,21.091c-0.338,3.596-1.225,6.893-2.734,10.172
	c-0.176,0.379-0.357,0.756-0.547,1.127c-0.049,0.092-0.096,0.186-0.144,0.275c-0.024,0.047-0.048,0.092-0.072,0.139
	c-0.022,0.045-0.157,0.088-0.067,0.135c0.213,0.113,0.427,0.229,0.641,0.343c0.854,0.457,1.706,0.914,2.561,1.371
	c0.854,0.456,1.705,0.913,2.56,1.368c0.427,0.229,0.854,0.457,1.28,0.686c0.105,0.059,0.213,0.115,0.318,0.172
	c0.055,0.028,0.107,0.057,0.16,0.086c0.025,0.014,0.053,0.028,0.08,0.043c0.125,0.066-0.119,0.075-0.189,0.098
	c-1.513,0.457-3.024,0.916-4.537,1.373c-2.895,0.875-5.785,1.752-8.679,2.627c-0.362,0.109-0.724,0.219-1.085,0.328
	c-0.09,0.027-0.181,0.056-0.271,0.082c-0.059,0.019-0.146,0.162-0.182,0.043c-0.007-0.022-0.015-0.045-0.021-0.067
	c-0.027-0.091-0.054-0.181-0.082-0.271c-0.054-0.182-0.109-0.361-0.164-0.543c-0.22-0.723-0.438-1.445-0.656-2.169
	c-0.438-1.446-0.876-2.894-1.313-4.339s-0.875-2.893-1.313-4.339c-0.218-0.724-0.437-1.446-0.655-2.169
	c-0.056-0.182-0.109-0.362-0.164-0.543c-0.027-0.091-0.056-0.182-0.082-0.271c-0.025-0.086-0.232-0.346-0.074-0.261
	c0.408,0.22,0.816,0.438,1.225,0.655c1.633,0.873,3.264,1.746,4.895,2.619c0.408,0.219,0.816,0.437,1.225,0.654
	c0.051,0.027,0.102,0.055,0.152,0.082c0.05,0.025,0.098,0.174,0.149,0.074c0.046-0.086,0.091-0.172,0.136-0.258
	c0.092-0.174,0.18-0.35,0.267-0.523c0.354-0.717,0.673-1.445,0.961-2.191c1.256-3.262,1.825-6.465,1.771-9.958
	C64.734,20.726,48.143,8.314,31.42,12.947C14.661,17.591,6.837,36.785,15.574,51.822c4.039,6.951,10.983,11.681,18.933,12.892
	c4.25,0.647,8.115,0.33,12.203-1c1.856-0.604,3.595-1.389,5.274-2.382c0.397-0.234,0.791-0.48,1.178-0.737
	c0.328-0.219,0.281,0.273,0.344,0.481c0.085,0.277,0.169,0.557,0.253,0.835C54.096,63.023,54.434,64.137,54.77,65.25z"/>
<path d="M40.195,40.195c-1.146,1.145-3.071,0.849-3.82-0.586c-0.431-0.827-0.272-4.579-0.272-5.375c0-3.304,0-6.608,0-9.914
	c0-1.814,0-3.629,0-5.444c0-1.578,0.232-3.134,2.178-3.313c0.981-0.09,1.583,0.183,2.161,0.98c0.557,0.767,0.455,1.535,0.455,2.367
	c0,1.656,0,3.311,0,4.966c0,1.729,0,3.457,0,5.184c0,0.865,0,1.729,0,2.593c0,0.216,0,0.432,0,0.648c0,0.107,0,0.216,0,0.324
	c0,0.081,0.082,0.006,0.117-0.03c0.215-0.215,0.43-0.429,0.646-0.644c1.085-1.085,2.17-2.17,3.256-3.255
	c0.542-0.543,1.085-1.085,1.628-1.628c0.752-0.752,1.355-1.404,2.591-1.217c1.156,0.174,2.019,1.156,2.042,2.326
	c0.014,0.612-0.146,1.08-0.533,1.557c-0.945,1.169-2.385,2.398-3.437,3.45C44.869,35.521,42.532,37.858,40.195,40.195z"/>
</svg>
