<?xml version="1.0" encoding="utf-8"?>
<!-- Generator: Adobe Illustrator 16.0.0, SVG Export Plug-In . SVG Version: 6.00 Build 0)  -->
<!DOCTYPE svg PUBLIC "-//W3C//DTD SVG 1.1//EN" "http://www.w3.org/Graphics/SVG/1.1/DTD/svg11.dtd">
<svg version="1.1" id="Layer_1" xmlns="http://www.w3.org/2000/svg" xmlns:xlink="http://www.w3.org/1999/xlink" x="0px" y="0px"
	 width="77px" height="77px" viewBox="0 0 77 77" enable-background="new 0 0 77 77" xml:space="preserve">
<g id="Layer_1_1_">
</g>
<path d="M59.875,20.625c3.17,0,6.009,3.165,6.006,6.001c0.168-0.165-22.199,21.871-22.033,22.037c0-2.839-3.17-6.008-6.008-6.008
	C45.184,35.312,52.529,27.97,59.875,20.625z"/>
<path d="M58.329,58.329c0-6.749,0-13.501,0-20.25c2.044-2.03,4.022-3.988,5.664-5.608c0,8.618,0,17.238,0,25.858
	c0,3.132-2.535,5.666-5.664,5.666c-13.22,0-26.438,0-39.656,0c-3.128,0-5.666-2.534-5.666-5.666c0-13.22,0-26.437,0-39.655
	c0-3.127,2.538-5.667,5.666-5.667c13.218,0,26.437,0,39.656,0c1.437,0,2.733,0.553,3.731,1.434c-0.021,0.017-0.039,0.033-0.06,0.049
	c-0.042,0.043-0.084,0.085-0.124,0.127c0,0-1.859,1.854-2.025,2.024c-0.375,0.385-0.75,0.768-1.125,1.151c-0.01,0-0.019,0-0.025,0
	c-0.294,0.294-0.586,0.586-0.883,0.881c-13.049,0-26.097,0-39.146,0c0,13.218,0,26.437,0,39.655
	C31.891,58.329,45.109,58.329,58.329,58.329z"/>
<path d="M35.837,44.657c3.175,0,6.009,2.674,6.009,6.008c0.168-0.165-9.016,3.007-9.016,3.007
	C33.833,50.665,34.835,47.661,35.837,44.657z"/>
<path d="M69.887,18.623c1.815,1.814,0,4,0,4c-0.666,0.667-1.335,1.335-2.003,2.001c0-2.833-3.169-6.001-6.007-6.001
	c0.166-0.171,2.003-2.009,2.003-2.009s2.252-1.748,4.004,0.006C69.637,18.368,68.073,16.802,69.887,18.623z"/>
</svg>
