<?xml version="1.0" encoding="utf-8"?>
<!-- Generator: Adobe Illustrator 16.0.0, SVG Export Plug-In . SVG Version: 6.00 Build 0)  -->
<!DOCTYPE svg PUBLIC "-//W3C//DTD SVG 1.1//EN" "http://www.w3.org/Graphics/SVG/1.1/DTD/svg11.dtd">
<svg version="1.1" id="Layer_1" xmlns="http://www.w3.org/2000/svg" xmlns:xlink="http://www.w3.org/1999/xlink" x="0px" y="0px"
	 width="76.958px" height="76.958px" viewBox="0 0 76.958 76.958" enable-background="new 0 0 76.958 76.958" xml:space="preserve">
<path d="M4.791,40.874c0-1.115,0-2.229,0-3.342c0-0.5-0.742-1.447,0.224-1.447c0.557,0,1.115,0,1.672,0c1.114,0,2.229,0,3.342,0
	c0.558,0,1.115,0,1.672,0c0.873,0,0.468-0.811,0.537-1.306c0.727-5.152,2.557-9.275,5.888-13.271
	c3.341-4.007,7.079-6.55,12.032-8.19c1.107-0.365,2.226-0.655,3.371-0.873c0.959-0.182,2.555,0.592,2.555-1.119
	c0-1.089,0-2.179,0-3.268c0-0.543,0-1.089,0-1.632c0-0.273,0-0.546,0-0.816c0-0.273-0.544-0.818,0-0.818c1.115,0,2.229,0,3.344,0
	c0.5,0,1.447-0.742,1.447,0.223c0,0.557,0,1.115,0,1.672c0,1.115,0,2.229,0,3.342c0,0.558,0,1.116,0,1.673
	c0,0.873,0.812,0.466,1.306,0.537c5.151,0.726,9.274,2.556,13.271,5.887c4.008,3.342,6.551,7.079,8.189,12.033
	c0.365,1.107,0.656,2.225,0.875,3.369c0.182,0.959-0.592,2.557,1.119,2.557c1.089,0,2.177,0,3.267,0c0.544,0,1.089,0,1.634,0
	c0.273,0,0.545,0,0.816,0c0.273,0,0.818-0.546,0.818,0c0,1.113,0,2.227,0,3.342c0,0.5,0.742,1.447-0.224,1.447
	c-0.558,0-1.114,0-1.672,0c-1.114,0-2.229,0-3.344,0c-0.558,0-1.115,0-1.673,0c-0.872,0-0.467,0.812-0.535,1.306
	c-0.727,5.151-2.557,9.274-5.887,13.271c-3.346,4.008-7.082,6.551-12.037,8.189c-1.106,0.365-2.223,0.654-3.368,0.873
	c-0.959,0.183-2.558-0.592-2.558,1.119c0,1.088,0,2.178,0,3.268c0,0.543,0,1.089,0,1.633c0,0.273,0,0.547,0,0.816
	c0,0.273,0.545,0.818,0,0.818c-1.113,0-2.229,0-3.341,0c-0.5,0-1.449,0.742-1.449-0.224c0-0.558,0-1.114,0-1.672
	c0-1.114,0-2.229,0-3.343c0-0.557,0-1.115,0-1.672c0-0.873-0.811-0.467-1.305-0.535c-5.15-0.727-9.273-2.557-13.27-5.889
	c-4.007-3.342-6.552-7.078-8.19-12.031c-0.366-1.108-0.656-2.227-0.873-3.371c-0.182-0.959,0.591-2.557-1.119-2.557
	C9.148,40.874,6.969,40.874,4.791,40.874z M36.083,60.055c0-2.076,0-4.151,0-6.229c0-1.527,1.384-0.826,2.288-0.826
	c0.589,0,2.502-0.474,2.502,0.61c0,2.076,0,4.152,0,6.228c0,0.746,0.732,0.127,1.119,0.062c0.438-0.07,0.875-0.156,1.309-0.255
	c0.893-0.204,1.765-0.46,2.623-0.774c4.084-1.49,7.109-3.707,9.761-7.152c1.257-1.635,2.235-3.358,2.991-5.277
	c0.359-0.91,0.654-1.838,0.888-2.79c0.114-0.462,0.211-0.927,0.295-1.396c0.041-0.23,0.077-0.461,0.111-0.692
	c0.032-0.229,0.551-0.69,0.088-0.69c-2.076,0-4.151,0-6.229,0c-1.527,0-0.826-1.383-0.826-2.287c0-0.589-0.473-2.503,0.611-2.503
	c2.076,0,4.151,0,6.227,0c0.746,0,0.127-0.732,0.062-1.119c-0.072-0.438-0.156-0.875-0.255-1.308
	c-0.204-0.892-0.461-1.764-0.776-2.625c-1.488-4.082-3.707-7.108-7.151-9.759c-1.634-1.257-3.36-2.235-5.277-2.991
	c-0.911-0.359-1.838-0.654-2.789-0.889c-0.462-0.112-0.927-0.211-1.396-0.293c-0.23-0.041-0.461-0.077-0.693-0.111
	c-0.229-0.034-0.689-0.551-0.689-0.088c0,2.076,0,4.152,0,6.228c0,1.528-1.383,0.827-2.288,0.827c-0.588,0-2.503,0.473-2.503-0.611
	c0-2.076,0-4.152,0-6.228c0-0.746-0.732-0.125-1.117-0.062c-0.439,0.071-0.875,0.157-1.308,0.255
	c-0.893,0.204-1.764,0.461-2.625,0.774c-4.083,1.491-7.108,3.708-9.759,7.153c-1.257,1.634-2.235,3.358-2.992,5.278
	c-0.36,0.911-0.654,1.838-0.888,2.789c-0.112,0.462-0.211,0.927-0.293,1.395c-0.042,0.231-0.078,0.462-0.111,0.694
	c-0.034,0.229-0.552,0.689-0.088,0.689c2.076,0,4.152,0,6.228,0c1.529,0,0.826,1.382,0.826,2.287c0,0.589,0.473,2.502-0.61,2.502
	c-2.076,0-4.153,0-6.229,0c-0.745,0-0.125,0.732-0.062,1.119c0.073,0.438,0.158,0.875,0.257,1.309
	c0.203,0.892,0.461,1.764,0.774,2.625C20.916,53.674,27.884,59.145,36.083,60.055z"/>
</svg>
