<?xml version="1.0" encoding="utf-8"?>
<!-- Generator: Adobe Illustrator 16.0.0, SVG Export Plug-In . SVG Version: 6.00 Build 0)  -->
<!DOCTYPE svg PUBLIC "-//W3C//DTD SVG 1.1//EN" "http://www.w3.org/Graphics/SVG/1.1/DTD/svg11.dtd">
<svg version="1.1" id="Layer_1" xmlns="http://www.w3.org/2000/svg" xmlns:xlink="http://www.w3.org/1999/xlink" x="0px" y="0px"
	 width="77px" height="77px" viewBox="0 0 77 77" enable-background="new 0 0 77 77" xml:space="preserve">
<g id="Layer_1_1_">
</g>
<path d="M33.797,7.546c17.096-2.598,33.059,9.156,35.656,26.252c2.599,17.097-9.155,33.06-26.252,35.658
	C26.106,72.053,10.14,60.3,7.545,43.202C4.947,26.106,16.702,10.142,33.797,7.546z M58.867,55.479
	c16.132-19.352-1.28-48.178-25.912-42.909c-2.731,0.583-5.22,1.537-7.641,2.925c-1.124,0.645-2.187,1.362-3.207,2.163
	c-0.217,0.171-0.782,0.275-0.429,0.628c0.263,0.264,0.524,0.527,0.788,0.791c0.527,0.527,1.055,1.053,1.582,1.579
	c3.867,3.87,7.737,7.74,11.607,11.608C43.391,40.002,51.13,47.74,58.867,55.479z M18.132,21.522
	C2.001,40.874,19.41,69.699,44.045,64.43c2.73-0.584,5.221-1.537,7.641-2.926c1.125-0.645,2.188-1.361,3.207-2.161
	c0.217-0.172,0.782-0.278,0.43-0.632c-0.264-0.262-0.527-0.525-0.788-0.789c-0.527-0.525-1.056-1.053-1.582-1.58
	c-3.869-3.867-7.736-7.736-11.606-11.605C33.609,36.999,25.87,29.261,18.132,21.522z"/>
</svg>
