<?xml version="1.0" encoding="utf-8"?>
<!-- Generator: Adobe Illustrator 16.0.0, SVG Export Plug-In . SVG Version: 6.00 Build 0)  -->
<!DOCTYPE svg PUBLIC "-//W3C//DTD SVG 1.1//EN" "http://www.w3.org/Graphics/SVG/1.1/DTD/svg11.dtd">
<svg version="1.1" id="Layer_1" xmlns="http://www.w3.org/2000/svg" xmlns:xlink="http://www.w3.org/1999/xlink" x="0px" y="0px"
	 width="77px" height="77px" viewBox="0 0 77 77" enable-background="new 0 0 77 77" xml:space="preserve">
<g id="Layer_1_1_">
</g>
<path d="M69.282,25.51c1.778,4.087,2.67,8.4,2.67,12.932c0,4.574-0.903,8.883-2.708,12.931c-1.803,4.045-4.23,7.588-7.287,10.622
	c-3.059,3.032-6.609,5.431-10.656,7.192c-4.047,1.761-8.312,2.637-12.801,2.637c-4.573,0-8.895-0.891-12.965-2.672
	c-4.066-1.781-7.631-4.188-10.688-7.223c-3.057-3.035-5.476-6.589-7.256-10.656c-1.783-4.068-2.67-8.39-2.67-12.965
	c0-4.53,0.888-8.829,2.67-12.896c1.78-4.07,4.199-7.631,7.256-10.691c3.057-3.056,6.622-5.474,10.688-7.255
	c4.07-1.782,8.392-2.671,12.965-2.671c4.574,0,8.889,0.901,12.932,2.703c4.049,1.805,7.592,4.235,10.625,7.291
	C65.09,17.843,67.498,21.418,69.282,25.51z M53.116,59.785c0.241-0.196,0.362-0.387,0.362-0.561c0-0.045-0.023-0.086-0.066-0.133
	C41.514,47.195,29.613,35.296,17.716,23.398c-0.043-0.045-0.087-0.067-0.13-0.067c-0.178,0-0.364,0.122-0.561,0.362
	c-0.2,0.243-0.385,0.507-0.559,0.792c-0.18,0.289-0.332,0.561-0.462,0.826c-0.132,0.265-0.222,0.396-0.265,0.396
	c-1.147,2.068-1.946,4.1-2.41,6.103c-0.46,2.002-0.689,4.168-0.689,6.499c0,3.607,0.669,6.974,2.007,10.095
	c1.344,3.125,3.18,5.854,5.512,8.183c2.332,2.331,5.067,4.165,8.214,5.509c3.146,1.344,6.52,2.014,10.126,2.014
	c2.289,0,4.444-0.232,6.469-0.694c2.021-0.464,4.048-1.265,6.068-2.41c0.043,0,0.188-0.063,0.432-0.196
	c0.24-0.129,0.513-0.285,0.822-0.461C52.598,60.171,52.873,59.982,53.116,59.785z M63.509,44.907
	c0.464-2.005,0.691-4.169,0.691-6.501c0-3.608-0.673-6.972-2.013-10.094c-1.342-3.124-3.176-5.848-5.506-8.18
	c-2.336-2.332-5.072-4.168-8.219-5.509c-3.143-1.343-6.518-2.013-10.127-2.013c-2.288,0-4.445,0.231-6.465,0.692
	c-2.025,0.462-4.049,1.266-6.068,2.407c-0.049,0-0.189,0.07-0.43,0.2c-0.242,0.13-0.52,0.287-0.827,0.46
	c-0.307,0.177-0.583,0.365-0.824,0.562c-0.24,0.198-0.362,0.385-0.362,0.559c0,0.045,0.019,0.09,0.062,0.135
	C35.321,29.522,47.221,41.42,59.119,53.318c0.043,0.043,0.09,0.063,0.13,0.063c0.177,0,0.364-0.12,0.562-0.362
	c0.201-0.242,0.385-0.508,0.562-0.789c0.177-0.285,0.33-0.563,0.461-0.824c0.13-0.268,0.223-0.398,0.268-0.398
	C62.243,48.939,63.045,46.907,63.509,44.907z"/>
</svg>
