<?xml version="1.0" encoding="utf-8"?>
<!-- Generator: Adobe Illustrator 16.0.0, SVG Export Plug-In . SVG Version: 6.00 Build 0)  -->
<!DOCTYPE svg PUBLIC "-//W3C//DTD SVG 1.1//EN" "http://www.w3.org/Graphics/SVG/1.1/DTD/svg11.dtd">
<svg version="1.1" xmlns="http://www.w3.org/2000/svg" xmlns:xlink="http://www.w3.org/1999/xlink" x="0px" y="0px"
	 width="73.037px" height="73.038px" viewBox="0 0 73.037 73.038" enable-background="new 0 0 73.037 73.038" xml:space="preserve">
<g id="Default">
	<path d="M167.069,134.567c0,11.989,0,23.979,0,35.968c0,1.331,0,2.664,0,3.996c-1.332-1.332-2.664-2.665-3.996-3.996
		c-1.332,1.331-2.664,2.664-3.997,3.996c-1.332-1.332-2.664-2.665-3.996-3.996c-1.332,1.331-2.665,2.664-3.997,3.996
		c-1.332-1.332-2.664-2.665-3.996-3.996c-1.333,1.331-2.665,2.664-3.997,3.996c-1.332-1.332-2.664-2.665-3.997-3.996
		c-1.332,1.331-2.664,2.664-3.996,3.996c-1.332-1.332-2.665-2.665-3.997-3.996c-1.332,1.331-2.664,2.664-3.996,3.996
		c-1.332-1.332-2.664-2.665-3.997-3.996c-1.332,1.331-2.664,2.664-3.997,3.996c0-1.332,0-2.665,0-3.996c0-11.99,0-23.979,0-35.968
		c0,0,0-23.979,23.979-23.979C167.069,110.588,167.069,134.567,167.069,134.567z M135.099,126.574c-3.311,0-5.994,2.684-5.994,5.995
		c0,3.311,2.684,5.995,5.994,5.995c3.31,0,5.994-2.684,5.994-5.995C141.093,129.257,138.409,126.574,135.099,126.574z
		 M151.084,126.574c-3.31,0-5.994,2.684-5.994,5.995c0,3.311,2.684,5.995,5.994,5.995c3.312,0,5.996-2.684,5.996-5.995
		C157.08,129.257,154.396,126.574,151.084,126.574z"/>
</g>
<g id="_x30_" display="none">
	
		<rect x="0.001" y="212.613" display="inline" fill="none" stroke="#00FFFF" stroke-linecap="round" stroke-linejoin="round" width="73.037" height="73.037"/>
	
		<rect x="106.573" y="106.041" display="inline" fill="none" stroke="#00FFFF" stroke-linecap="round" stroke-linejoin="round" width="73.037" height="73.037"/>
	
		<rect x="106.573" y="212.613" display="inline" fill="none" stroke="#00FFFF" stroke-linecap="round" stroke-linejoin="round" width="73.037" height="73.037"/>
	
		<rect x="-213.144" y="319.186" display="inline" fill="none" stroke="#00FFFF" stroke-linecap="round" stroke-linejoin="round" width="73.037" height="73.038"/>
	
		<rect x="-106.572" y="319.186" display="inline" fill="none" stroke="#00FFFF" stroke-linecap="round" stroke-linejoin="round" width="73.037" height="73.038"/>
	
		<rect display="inline" fill="none" stroke="#00FFFF" stroke-linecap="round" stroke-linejoin="round" width="73.038" height="73.038"/>
	
		<rect x="106.572" display="inline" fill="none" stroke="#00FFFF" stroke-linecap="round" stroke-linejoin="round" width="73.038" height="73.038"/>
	
		<rect x="-106.572" y="-0.532" display="inline" fill="none" stroke="#00FFFF" stroke-linecap="round" stroke-linejoin="round" width="73.038" height="73.038"/>
	
		<rect x="-213.144" y="-0.532" display="inline" fill="none" stroke="#00FFFF" stroke-linecap="round" stroke-linejoin="round" width="73.037" height="73.038"/>
	
		<rect x="-213.144" y="106.041" display="inline" fill="none" stroke="#00FFFF" stroke-linecap="round" stroke-linejoin="round" width="73.037" height="73.037"/>
	
		<rect x="-106.572" y="212.613" display="inline" fill="none" stroke="#00FFFF" stroke-linecap="round" stroke-linejoin="round" width="73.038" height="73.037"/>
	
		<rect x="-213.144" y="212.613" display="inline" fill="none" stroke="#00FFFF" stroke-linecap="round" stroke-linejoin="round" width="73.038" height="73.037"/>
	
		<rect x="-0.235" y="106.041" display="inline" fill="none" stroke="#00FFFF" stroke-linecap="round" stroke-linejoin="round" width="73.036" height="73.037"/>
	
		<rect x="-106.571" y="106.041" display="inline" fill="none" stroke="#00FFFF" stroke-linecap="round" stroke-linejoin="round" width="73.036" height="73.037"/>
</g>
<g id="Outline">
	<rect x="4.548" y="246.858" width="63.943" height="4.546"/>
	<polygon points="-67.779,251.404 -38.081,251.404 -38.081,246.858 -67.779,246.858 -67.779,217.16 -72.326,217.16 -72.326,246.858 
		-102.025,246.858 -102.025,251.404 -72.326,251.404 -72.326,281.104 -67.779,281.104 	"/>
	<polygon points="-59.625,376.7 -62.84,379.916 -87.051,355.703 -62.837,331.489 -59.622,334.704 -80.622,355.703 	"/>
	<polygon points="173.581,231.649 170.413,228.389 130.444,267.232 116.416,252.798 113.155,255.966 130.351,273.662 	"/>
	<polygon points="-187.054,376.7 -183.839,379.916 -159.626,355.703 -183.842,331.489 -187.057,334.704 -166.058,355.703 	"/>
	<path d="M-89.698,22.205h39.29L-57.56,62.25h-24.986L-89.698,22.205z M-95.335,16.495l9.189,51.464h32.186l9.19-51.464
		 M-83.836,5.079v5.709h27.567V5.079H-83.836z M-95.396,16.495h25.343h25.341"/>
	<polygon points="-176.625,252.347 -197.625,273.347 -200.841,270.132 -179.84,249.132 -200.841,228.132 -197.625,224.917 
		-176.625,245.916 -155.625,224.917 -152.41,228.132 -173.41,249.132 -152.41,270.132 -155.625,273.347 	"/>
	<path d="M-144.654,129.008c0,11.698,0,23.398,0,35.097c0,1.324-1.075,2.397-2.399,2.397c-12.522,0-25.044,0-37.566,0
		c-3.596,0-7.193,0-10.791,0c-3.597,0-7.193,0-10.79,0c-1.323,0-2.398-1.073-2.398-2.397c0-14.364,0-28.726,0-43.089
		c0-1.323,1.074-2.398,2.398-2.398c5.314,0,10.628,0,15.942,0c0.671,0,1.276,0.279,1.711,0.723c0.005-0.002,0.009-0.002,0.014-0.005
		c2.09,2.425,4.179,4.851,6.269,7.274c11.738,0,23.475,0,35.211,0C-145.729,126.61-144.654,127.683-144.654,129.008z
		 M-149.201,131.157h-35.147l-6.89-7.993h-12.813v38.791h54.85V131.157z"/>
	<path d="M34.246,41.414V13.757h4.547v27.656l14.784-15.275l3.268,3.161L36.519,50.302L16.194,29.3l3.268-3.161L34.246,41.414z
		 M61.421,56.852H11.617V36.518H7.069V61.4h58.899V36.518h-4.547V56.852z"/>
	<path d="M150.676,54.476c1.128,1.014,2.258,2.029,3.387,3.043c-3.657,3.657-7.315,7.315-10.972,10.972
		c-3.657-3.657-7.315-7.315-10.972-10.972c1.072-1.072,2.143-2.143,3.215-3.215c1.828,1.828,3.656,3.655,5.483,5.483
		c0-3.476,0-6.951,0-10.427c-4.595,0-9.189,0-13.784,0c-14.653,0-16.558-21.241-2.138-23.848
		c1.815-13.883,19.29-18.954,28.254-8.201c14.602-1.323,23.193,16.005,13.301,26.826c-3.387,3.704-6.832,5.223-11.85,5.223
		c-3.08,0-6.158,0-9.237,0c0,3.476,0,6.951,0,10.427c1.828-1.828,3.655-3.656,5.483-5.483 M150.277,21.036
		c-6.427-9.269-20.969-4.721-20.969,6.56c0,0.757,0,1.515,0,2.272c-0.757,0-1.515,0-2.273,0c-4.126,0-7.472,3.347-7.472,7.473
		c0,4.127,3.345,7.473,7.472,7.473c9.189,0,18.378,0,27.567,0c3.598,0,6.067-1.088,8.495-3.744
		c7.433-8.132,0.295-21.055-10.546-19.091c-0.481,0.085-0.96,0.173-1.44,0.26C150.833,21.838,150.554,21.437,150.277,21.036z"/>
	<path d="M-182.564,57.309l-21.051,5.641l5.622-20.978l37.892-37.893l15.382,15.383l-37.893,37.894l-0.027-0.027 M-191.563,41.974
		l8.952,8.952l31.461-31.462l-8.952-8.952L-191.563,41.974z M-197.184,56.52l10.831-2.904l-7.929-7.93L-197.184,56.52z"/>
	<path d="M-61.385,114.709l12.79,12.789v42.912h-42.914v-55.701H-61.385z M-61.385,121.139v6.359h6.358L-61.385,121.139z
		 M-53.144,165.862v-33.816h-12.788v-12.788h-21.031v46.604H-53.144z"/>
	<path d="M64.291,163.803H8.275v-42.487h56.016V163.803z M59.744,156.141V128.93l-14.055,13.515L59.744,156.141z M29.911,145.536
		l-13.84,13.721h40.355l-14.016-13.658l-6.244,6.004L29.911,145.536z M33.141,142.333l3.039,2.948l2.972-2.858l-3.077-2.998
		L33.141,142.333z M26.646,142.37l-13.824-13.407v27.112L26.646,142.37z M42.432,139.269l13.942-13.406H16.158l13.718,13.304
		l6.171-6.117L42.432,139.269z"/>
</g>
</svg>
