<?xml version="1.0" encoding="utf-8"?>
<!-- Generator: Adobe Illustrator 16.0.0, SVG Export Plug-In . SVG Version: 6.00 Build 0)  -->
<!DOCTYPE svg PUBLIC "-//W3C//DTD SVG 1.1//EN" "http://www.w3.org/Graphics/SVG/1.1/DTD/svg11.dtd">
<svg version="1.1" id="Layer_1" xmlns="http://www.w3.org/2000/svg" xmlns:xlink="http://www.w3.org/1999/xlink" x="0px" y="0px"
	 width="76.958px" height="76.958px" viewBox="0 0 76.958 76.958" enable-background="new 0 0 76.958 76.958" xml:space="preserve">
<polygon points="-766.166,48.7 -757.812,57.055 -769.224,60.113 "/>
<rect x="-765.447" y="26.273" transform="matrix(0.7071 -0.7071 0.7071 0.7071 -240.6222 -515.0292)" width="46.881" height="13.339"/>
<path d="M-713.876-77.154c0,2.183,0,4.366,0,6.551c0,0.853-0.7,1.547-1.547,1.547c-0.947,0-1.895,0-2.842,0
	c-0.862,0.008-1.761,0.67-1.987,1.495c-1.073,2.67-2.146,5.341-3.218,8.011c-0.403,0.754-0.238,1.86,0.354,2.462
	c0.712,0.711,1.426,1.423,2.139,2.134c0.605,0.601,0.605,1.586,0,2.188c-1.546,1.546-3.091,3.092-4.637,4.637
	c-0.6,0.599-1.589,0.599-2.191,0c-0.669-0.672-1.338-1.342-2.006-2.015c-0.611-0.596-1.696-0.742-2.435-0.324
	c-2.962,1.257-5.923,2.515-8.884,3.772c-0.826,0.247-1.491,1.142-1.491,1.988c0,1.011,0,2.022,0,3.033
	c0,0.851-0.701,1.549-1.549,1.549c-2.184,0-4.369,0-6.553,0c-0.853,0-1.55-0.698-1.55-1.549c0-1.011,0-2.022,0-3.033
	c0-0.846-0.672-1.741-1.481-1.974c-2.647-1.058-5.295-2.115-7.944-3.172c-0.763-0.406-1.857-0.24-2.461,0.365
	c-0.758,0.753-1.518,1.505-2.276,2.26c-0.592,0.605-1.58,0.605-2.185,0c-1.546-1.543-3.092-3.087-4.638-4.63
	c-0.6-0.605-0.6-1.588,0-2.189c0.711-0.707,1.422-1.414,2.131-2.12c0.593-0.604,0.743-1.7,0.308-2.437
	c-1.269-2.987-2.537-5.973-3.804-8.96c-0.246-0.819-1.142-1.481-1.999-1.481c-1.031,0-2.061,0-3.092,0
	c-0.849,0-1.541-0.697-1.541-1.555c0-2.184,0-4.368,0-6.551c0-0.853,0.692-1.55,1.541-1.55c1.031,0,2.061,0,3.092,0
	c0.857,0,1.745-0.664,1.974-1.492c1.031-2.595,2.064-5.19,3.096-7.786c0.395-0.76,0.228-1.861-0.384-2.468
	c-0.742-0.743-1.484-1.487-2.225-2.23c-0.608-0.603-0.608-1.591,0-2.195c1.545-1.545,3.088-3.09,4.633-4.634
	c0.604-0.6,1.589-0.6,2.191,0c0.681,0.683,1.362,1.364,2.043,2.048c0.609,0.596,1.699,0.743,2.427,0.313
	c3.037-1.3,6.073-2.602,9.111-3.903c0.81-0.251,1.481-1.149,1.481-1.999c0-0.972,0-1.942,0-2.915c0-0.849,0.697-1.543,1.55-1.543
	c2.184,0,4.369,0,6.553,0c0.847,0,1.549,0.695,1.549,1.543c0,0.973,0,1.943,0,2.915c0,0.85,0.669,1.742,1.491,1.975
	c2.62,1.046,5.24,2.092,7.86,3.138c0.747,0.395,1.862,0.232,2.472-0.376c0.695-0.697,1.389-1.395,2.084-2.092
	c0.614-0.605,1.6-0.605,2.203,0c1.543,1.543,3.085,3.087,4.629,4.63c0.603,0.6,0.603,1.588,0,2.195
	c-0.642,0.64-1.284,1.281-1.925,1.922c-0.605,0.604-0.742,1.703-0.328,2.442c1.289,3.01,2.579,6.018,3.869,9.028
	c0.238,0.82,1.136,1.484,1.999,1.484c0.947,0,1.895,0,2.842,0C-714.576-78.704-713.876-78.007-713.876-77.154z M-747.562-55.877
	c0.324,0,0.649-0.01,0.973-0.027c0.322-0.018,0.643-0.043,0.964-0.078c0.319-0.034,0.638-0.077,0.954-0.128
	c0.313-0.051,0.627-0.111,0.938-0.178c0.308-0.068,0.615-0.142,0.919-0.226c0.223-0.062,0.446-0.127,0.666-0.197
	c0.207-0.065,0.414-0.135,0.617-0.208c0.258-0.092,0.515-0.19,0.768-0.294c0.253-0.103,0.501-0.212,0.749-0.327
	c0.254-0.117,0.505-0.242,0.754-0.372c0.26-0.135,0.515-0.277,0.766-0.426c0.265-0.154,0.526-0.316,0.782-0.487
	c0.254-0.167,0.505-0.342,0.751-0.523c0.246-0.18,0.488-0.366,0.725-0.561c0.236-0.192,0.468-0.391,0.693-0.595
	c0.227-0.204,0.448-0.414,0.662-0.63c0.216-0.216,0.426-0.437,0.63-0.662c0.204-0.227,0.403-0.458,0.596-0.695
	c0.192-0.237,0.38-0.478,0.56-0.724c0.181-0.246,0.355-0.497,0.523-0.751c0.169-0.257,0.331-0.518,0.487-0.782
	c0.147-0.253,0.289-0.507,0.424-0.766c0.13-0.249,0.254-0.5,0.372-0.754c0.115-0.247,0.224-0.497,0.327-0.749
	c0.187-0.454,0.354-0.917,0.503-1.386c0.069-0.22,0.135-0.443,0.196-0.665c0.084-0.305,0.158-0.611,0.226-0.92
	c0.068-0.311,0.127-0.625,0.178-0.938c0.051-0.318,0.095-0.634,0.13-0.953c0.034-0.322,0.06-0.643,0.077-0.965
	c0.018-0.324,0.026-0.649,0.026-0.973c0-0.324-0.008-0.649-0.026-0.973c-0.018-0.322-0.043-0.643-0.077-0.965
	c-0.035-0.319-0.078-0.637-0.13-0.954c-0.051-0.314-0.111-0.627-0.178-0.938c-0.068-0.308-0.142-0.615-0.226-0.919
	c-0.061-0.223-0.127-0.446-0.196-0.665c-0.066-0.208-0.135-0.413-0.208-0.619c-0.092-0.258-0.191-0.515-0.295-0.768
	c-0.103-0.253-0.212-0.503-0.327-0.749c-0.117-0.254-0.242-0.505-0.372-0.754c-0.135-0.259-0.277-0.515-0.424-0.768
	c-0.157-0.265-0.319-0.524-0.487-0.781c-0.169-0.255-0.343-0.507-0.524-0.753c-0.18-0.247-0.366-0.488-0.559-0.725
	c-0.192-0.236-0.391-0.468-0.596-0.693c-0.204-0.227-0.414-0.447-0.63-0.662c-0.215-0.216-0.435-0.426-0.662-0.63
	c-0.226-0.206-0.457-0.403-0.693-0.596c-0.237-0.193-0.479-0.38-0.724-0.561c-0.246-0.18-0.497-0.354-0.753-0.521
	c-0.255-0.169-0.516-0.331-0.781-0.487c-0.253-0.149-0.508-0.289-0.766-0.424c-0.241-0.126-0.484-0.246-0.729-0.36
	c-0.222-0.104-0.445-0.203-0.669-0.296c-0.243-0.101-0.489-0.199-0.737-0.288c-0.28-0.103-0.561-0.197-0.845-0.286
	c-0.3-0.092-0.603-0.178-0.908-0.256c-0.307-0.077-0.615-0.147-0.926-0.209c-0.314-0.061-0.627-0.115-0.943-0.159
	c-0.319-0.046-0.638-0.083-0.958-0.111c-0.35-0.03-0.703-0.051-1.055-0.062c-0.412-0.011-0.826-0.01-1.238,0.007
	c-0.308,0.012-0.616,0.031-0.924,0.06c-0.209,0.019-0.417,0.042-0.626,0.068c-0.212,0.027-0.423,0.058-0.634,0.092
	c-0.313,0.05-0.627,0.109-0.938,0.177c-0.309,0.068-0.616,0.143-0.92,0.227c-0.223,0.061-0.445,0.126-0.665,0.196
	c-0.208,0.066-0.415,0.135-0.619,0.208c-0.258,0.092-0.515,0.191-0.768,0.293c-0.253,0.104-0.503,0.214-0.749,0.327
	c-0.255,0.119-0.507,0.243-0.755,0.373c-0.258,0.135-0.514,0.276-0.766,0.424c-0.265,0.156-0.526,0.318-0.782,0.487
	c-0.255,0.167-0.507,0.342-0.753,0.523c-0.246,0.18-0.488,0.368-0.724,0.561c-0.237,0.192-0.468,0.391-0.693,0.595
	c-0.227,0.205-0.447,0.415-0.664,0.63c-0.215,0.216-0.424,0.438-0.628,0.664s-0.403,0.458-0.596,0.693
	c-0.192,0.238-0.38,0.479-0.56,0.724c-0.181,0.247-0.355,0.497-0.523,0.754c-0.169,0.255-0.331,0.516-0.487,0.781
	c-0.147,0.253-0.289,0.508-0.424,0.768c-0.13,0.249-0.253,0.5-0.372,0.754c-0.114,0.246-0.223,0.497-0.326,0.749
	c-0.104,0.254-0.201,0.51-0.295,0.768c-0.073,0.206-0.142,0.411-0.207,0.619c-0.07,0.219-0.135,0.441-0.197,0.665
	c-0.083,0.304-0.158,0.611-0.224,0.919c-0.069,0.311-0.127,0.624-0.178,0.938c-0.052,0.316-0.095,0.635-0.128,0.953
	c-0.035,0.32-0.061,0.642-0.079,0.964c-0.017,0.324-0.026,0.649-0.026,0.973c0,0.324,0.008,0.649,0.026,0.972
	c0.018,0.323,0.043,0.643,0.079,0.963c0.034,0.319,0.077,0.637,0.128,0.954c0.051,0.314,0.111,0.627,0.178,0.938
	c0.066,0.308,0.142,0.614,0.224,0.919c0.062,0.223,0.127,0.445,0.197,0.665c0.065,0.208,0.134,0.414,0.207,0.619
	c0.092,0.257,0.191,0.513,0.295,0.768c0.103,0.251,0.211,0.5,0.326,0.749c0.119,0.254,0.242,0.505,0.372,0.754
	c0.135,0.259,0.277,0.513,0.424,0.765c0.156,0.266,0.318,0.527,0.485,0.784c0.169,0.254,0.343,0.506,0.523,0.751
	c0.181,0.247,0.367,0.489,0.559,0.726c0.193,0.236,0.392,0.468,0.596,0.695c0.204,0.226,0.414,0.447,0.63,0.662
	c0.215,0.215,0.435,0.426,0.662,0.63c0.226,0.204,0.457,0.404,0.693,0.596c0.237,0.193,0.479,0.38,0.724,0.561
	c0.246,0.181,0.497,0.355,0.753,0.523c0.257,0.17,0.518,0.333,0.782,0.487c0.251,0.149,0.507,0.291,0.766,0.426
	c0.249,0.13,0.5,0.254,0.754,0.372c0.247,0.116,0.497,0.224,0.749,0.327c0.254,0.105,0.511,0.203,0.769,0.294
	c0.204,0.073,0.411,0.143,0.618,0.208c0.222,0.07,0.443,0.135,0.666,0.197c0.304,0.084,0.612,0.159,0.92,0.226
	c0.311,0.067,0.624,0.127,0.938,0.178c0.318,0.052,0.635,0.095,0.954,0.128c0.322,0.035,0.643,0.061,0.965,0.078
	C-748.211-55.886-747.886-55.877-747.562-55.877z"/>
<polygon points="-758.552,397.479 -736.427,375.354 -758.555,353.229 -755.167,349.84 -729.652,375.354 -755.164,400.868 "/>
<path d="M-716.403,133.965c1.396,0,2.527,1.131,2.527,2.527c0,12.325,0,24.652,0,36.98c0,1.395-1.131,2.525-2.527,2.525
	c-13.194,0-26.388,0-39.582,0c-3.79,0-7.579,0-11.37,0c-3.79,0-7.58,0-11.37,0c-1.394,0-2.526-1.131-2.526-2.525
	c0-15.135,0-30.27,0-45.403c0-1.396,1.132-2.526,2.526-2.526c5.599,0,11.198,0,16.797,0c0.708,0,1.346,0.293,1.804,0.762
	c0.004,0,0.01-0.004,0.013-0.004c2.203,2.556,4.405,5.109,6.606,7.664C-741.137,133.965-728.77,133.965-716.403,133.965z
	 M-718.667,138.756H-755.7l-7.259-8.422h-13.501v40.873h57.793V138.756z"/>
<g id="XMLID_1_">
	<g>
		<path d="M35.594,29.908c-4.73,4.73-9.46,9.45-14.19,14.18c-0.82,0.83-0.82,1.51,0,2.33c4.94,4.939,9.88,9.879,14.82,14.819
			c0.82,0.83,1.51,0.83,2.33,0c4.729-4.72,9.46-9.45,14.19-14.18C47.023,41.338,41.304,35.618,35.594,29.908
			c3.66-3.67,7.32-7.33,10.98-10.99c-1.131-1.13-2.261-2.26-3.391-3.39c-4.22,4.23-8.45,8.45-12.68,12.68c-2.05,0-4.11,0-6.16,0
			c-5.3,5.3-10.59,10.59-15.88,15.88c-0.83,0.83-0.83,1.51,0,2.33c4.94,4.939,9.88,9.879,14.82,14.819
			c0.33,0.341,0.67,0.479,1.14,0.479c1.84,0,3.67,0,5.51,0c-3.97-3.969-7.95-7.939-11.92-11.909c-2.51-2.511-2.51-6.591,0-9.11
			c4.17-4.16,8.33-8.32,12.49-12.49c0.47,0,0.94,0,1.41,0c1.4,0,2.39,0.42,3.39,1.4L35.594,29.908z M70.313,27.148
			c2.51,2.52,2.51,6.59,0,9.11c-8.49,8.491-16.98,16.98-25.471,25.459c6.971,0,13.941,0,20.921,0c0,1.601,0,3.201,0,4.801
			c-9.44,0-18.89,0-28.33,0c-0.03,0-0.05,0-0.08,0h-0.01c-4.32,0-8.62,0-12.94,0c-1.86-0.02-3.19-0.57-4.51-1.891
			c-4.94-4.939-9.88-9.879-14.82-14.819c-2.51-2.511-2.51-6.591,0-9.11c10.01-10.01,20.03-20.03,30.05-30.04
			c1.33-1.33,2.67-1.89,4.549-1.89c3.201,0,6.391,0,9.591,0c1.88,0,3.22,0.56,4.55,1.89C59.313,16.158,64.813,21.648,70.313,27.148z
			"/>
	</g>
</g>
</svg>
