<?xml version="1.0" encoding="utf-8"?>
<!-- Generator: Adobe Illustrator 16.0.0, SVG Export Plug-In . SVG Version: 6.00 Build 0)  -->
<!DOCTYPE svg PUBLIC "-//W3C//DTD SVG 1.1//EN" "http://www.w3.org/Graphics/SVG/1.1/DTD/svg11.dtd">
<svg version="1.1" id="Layer_1" xmlns="http://www.w3.org/2000/svg" xmlns:xlink="http://www.w3.org/1999/xlink" x="0px" y="0px"
	 width="77px" height="77px" viewBox="0 0 77 77" enable-background="new 0 0 77 77" xml:space="preserve">
<g id="Layer_1_1_">
</g>
<path d="M37.511,23.396c0,1.851-1.5,3.349-3.346,3.349c-1.851,0-3.348-1.498-3.348-3.349c0-1.848,1.498-3.343,3.348-3.343
	C36.011,20.054,37.511,21.548,37.511,23.396z"/>
<path d="M32.344,56.926c1.118,0,1.895,0.334,2.665,1.149c1.341,1.421,8.122,8.604,10.173,10.776c-1.545,0-3.089,0-4.632,0
	c-2.048-2.172-9.556-10.123-11.257-11.927C30.311,56.926,31.327,56.926,32.344,56.926z"/>
<path d="M63.7,68.854C61.458,66.68,53.266,58.75,51.415,56.96c0-2.037,0-4.074,0-6.11c1.796,0,3.589,0,5.382,0
	c-0.585-1.266-1.173-2.526-1.761-3.787c-0.461-0.994-1.457-1.629-2.552-1.629c-0.356,0-0.713,0-1.069,0c0-9.105,0-18.21,0-27.314
	c-8.597,0-17.194,0-25.791,0c0,5.201,0,10.402,0,15.604c1.17,0.052,2.341,0.104,3.511,0.157c1.223-1.738,2.448-3.479,3.673-5.218
	c0.814-1.154,1.686-1.592,3.094-1.554c3.178,0.084,6.353,0.165,9.53,0.249c0.732,0.018,1.158,0.27,1.531,0.898
	c1.061,1.787,2.121,3.576,3.182,5.366c0.442,0.751,0.196,1.719-0.554,2.164c-0.75,0.448-1.721,0.198-2.167-0.553
	c-0.936-1.577-1.871-3.157-2.807-4.736c-1.167-0.03-2.338-0.06-3.508-0.09c-0.18-0.006-0.246,0.097-0.172,0.259
	c0.979,2.102,1.955,4.206,2.936,6.307c0.199,0.433,0.307,0.866,0.336,1.343c0.15,2.699,0.301,5.4,0.451,8.099
	c2.609,0,5.217,0,7.824,0c0.849,0,1.307,0.293,1.662,1.061c0.371,0.797,0.744,1.599,1.111,2.395c-4.15,0-8.301,0-12.449,0
	c-0.976,0-1.777-0.76-1.832-1.73c-0.125-2.228-0.25-4.451-0.371-6.681c-0.026-0.459-0.508-0.549-0.701-0.135
	c-2.097,4.516-4.197,9.024-6.294,13.54c-0.356,0.768-0.813,1.06-1.663,1.06c-1.072,0-2.146,0-3.218,0
	c2.659-5.718,5.315-11.437,7.977-17.152c-0.904-1.943-1.811-3.884-2.711-5.828c-0.078-0.167-0.208-0.178-0.315-0.028
	c-0.794,1.127-1.587,2.255-2.381,3.379c-0.415,0.589-0.86,0.807-1.582,0.776c-1.365-0.06-2.729-0.122-4.093-0.184
	c0,6.681,0,13.36,0,20.042c1.703,1.803,9.208,9.754,11.259,11.928c-3.653,0-7.308,0-10.961,0
	c-3.751-3.979-7.505-7.951-11.256-11.928c0-14.088,0-28.174,0-42.26c15.891,0,31.779,0,47.669,0c0,14.098,0,28.196,0,42.294
	c4.097,3.961,8.19,7.929,12.284,11.894C70.98,68.854,67.34,68.854,63.7,68.854z"/>
<g id="Problem">
</g>
</svg>
