<?xml version="1.0" encoding="utf-8"?>
<!-- Generator: Adobe Illustrator 16.0.0, SVG Export Plug-In . SVG Version: 6.00 Build 0)  -->
<!DOCTYPE svg PUBLIC "-//W3C//DTD SVG 1.1//EN" "http://www.w3.org/Graphics/SVG/1.1/DTD/svg11.dtd">
<svg version="1.1" xmlns="http://www.w3.org/2000/svg" xmlns:xlink="http://www.w3.org/1999/xlink" x="0px" y="0px"
	 width="73.037px" height="73.038px" viewBox="0 0 73.037 73.038" enable-background="new 0 0 73.037 73.038" xml:space="preserve">
<g id="Default">
	<path d="M273.64,28.526c0,11.989,0,23.979,0,35.968c0,1.331,0,2.664,0,3.996c-1.332-1.332-2.664-2.665-3.996-3.996
		c-1.332,1.331-2.664,2.664-3.997,3.996c-1.332-1.332-2.664-2.665-3.996-3.996c-1.332,1.331-2.665,2.664-3.997,3.996
		c-1.332-1.332-2.664-2.665-3.996-3.996c-1.333,1.331-2.665,2.664-3.997,3.996c-1.332-1.332-2.664-2.665-3.997-3.996
		c-1.332,1.331-2.664,2.664-3.996,3.996c-1.332-1.332-2.665-2.665-3.997-3.996c-1.332,1.331-2.664,2.664-3.996,3.996
		c-1.332-1.332-2.664-2.665-3.997-3.996c-1.332,1.331-2.664,2.664-3.997,3.996c0-1.332,0-2.665,0-3.996c0-11.99,0-23.979,0-35.968
		c0,0,0-23.979,23.979-23.979C273.64,4.547,273.64,28.526,273.64,28.526z M241.669,20.533c-3.311,0-5.994,2.684-5.994,5.995
		c0,3.311,2.684,5.995,5.994,5.995c3.31,0,5.994-2.684,5.994-5.995C247.664,23.216,244.979,20.533,241.669,20.533z M257.655,20.533
		c-3.31,0-5.994,2.684-5.994,5.995c0,3.311,2.684,5.995,5.994,5.995c3.312,0,5.996-2.684,5.996-5.995
		C263.65,23.216,260.966,20.533,257.655,20.533z"/>
</g>
<g id="_x30_" display="none">
	
		<rect x="106.572" y="106.572" display="inline" fill="none" stroke="#00FFFF" stroke-linecap="round" stroke-linejoin="round" width="73.037" height="73.037"/>
	
		<rect x="213.144" display="inline" fill="none" stroke="#00FFFF" stroke-linecap="round" stroke-linejoin="round" width="73.037" height="73.037"/>
	
		<rect x="213.144" y="106.572" display="inline" fill="none" stroke="#00FFFF" stroke-linecap="round" stroke-linejoin="round" width="73.037" height="73.037"/>
	
		<rect x="-106.573" y="213.145" display="inline" fill="none" stroke="#00FFFF" stroke-linecap="round" stroke-linejoin="round" width="73.037" height="73.038"/>
	
		<rect x="-0.001" y="213.145" display="inline" fill="none" stroke="#00FFFF" stroke-linecap="round" stroke-linejoin="round" width="73.037" height="73.038"/>
	
		<rect x="106.571" y="-106.041" display="inline" fill="none" stroke="#00FFFF" stroke-linecap="round" stroke-linejoin="round" width="73.038" height="73.038"/>
	
		<rect x="213.143" y="-106.041" display="inline" fill="none" stroke="#00FFFF" stroke-linecap="round" stroke-linejoin="round" width="73.038" height="73.038"/>
	
		<rect x="-0.001" y="-106.573" display="inline" fill="none" stroke="#00FFFF" stroke-linecap="round" stroke-linejoin="round" width="73.038" height="73.038"/>
	
		<rect x="-106.573" y="-106.573" display="inline" fill="none" stroke="#00FFFF" stroke-linecap="round" stroke-linejoin="round" width="73.037" height="73.038"/>
	
		<rect x="-106.573" display="inline" fill="none" stroke="#00FFFF" stroke-linecap="round" stroke-linejoin="round" width="73.037" height="73.037"/>
	
		<rect x="-0.001" y="106.572" display="inline" fill="none" stroke="#00FFFF" stroke-linecap="round" stroke-linejoin="round" width="73.038" height="73.037"/>
	
		<rect x="-106.573" y="106.572" display="inline" fill="none" stroke="#00FFFF" stroke-linecap="round" stroke-linejoin="round" width="73.038" height="73.037"/>
	
		<rect x="106.336" display="inline" fill="none" stroke="#00FFFF" stroke-linecap="round" stroke-linejoin="round" width="73.036" height="73.037"/>
	
		<rect display="inline" fill="none" stroke="#00FFFF" stroke-linecap="round" stroke-linejoin="round" width="73.036" height="73.037"/>
</g>
<g id="Outline">
	<rect x="111.119" y="140.817" width="63.943" height="4.546"/>
	<polygon points="38.792,145.363 68.49,145.363 68.49,140.817 38.792,140.817 38.792,111.119 34.245,111.119 34.245,140.817 
		4.546,140.817 4.546,145.363 34.245,145.363 34.245,175.062 38.792,175.062 	"/>
	<polygon points="46.946,270.659 43.731,273.875 19.52,249.662 43.733,225.448 46.949,228.663 25.949,249.662 	"/>
	<polygon points="280.152,125.608 276.983,122.348 237.015,161.191 222.986,146.757 219.726,149.925 236.921,167.621 	"/>
	<polygon points="-80.483,270.659 -77.269,273.875 -53.056,249.662 -77.271,225.448 -80.486,228.663 -59.487,249.662 	"/>
	<path d="M16.873-83.836h39.29l-7.151,40.045H24.025L16.873-83.836z M11.235-89.546l9.189,51.464H52.61l9.19-51.464 M22.734-100.962
		v5.709h27.567v-5.709H22.734z M11.175-89.546h25.343h25.341"/>
	<polygon points="-70.054,146.306 -91.054,167.306 -94.27,164.091 -73.269,143.091 -94.27,122.091 -91.054,118.876 -70.054,139.875 
		-49.055,118.876 -45.839,122.091 -66.839,143.091 -45.839,164.091 -49.055,167.306 	"/>
	<path d="M-38.083,22.967c0,11.698,0,23.398,0,35.097c0,1.324-1.075,2.397-2.399,2.397c-12.522,0-25.044,0-37.566,0
		c-3.596,0-7.193,0-10.791,0c-3.597,0-7.193,0-10.79,0c-1.323,0-2.398-1.073-2.398-2.397c0-14.364,0-28.726,0-43.089
		c0-1.323,1.074-2.398,2.398-2.398c5.314,0,10.628,0,15.942,0c0.671,0,1.276,0.279,1.711,0.723c0.005-0.002,0.009-0.002,0.014-0.005
		c2.09,2.425,4.179,4.851,6.269,7.274c11.738,0,23.475,0,35.211,0C-39.158,20.569-38.083,21.642-38.083,22.967z M-42.63,25.116
		h-35.147l-6.89-7.993h-12.813v38.791h54.85V25.116z"/>
	<path d="M140.816-64.627v-27.656h4.547v27.656l14.784-15.275l3.268,3.161L143.09-55.739l-20.325-21.002l3.268-3.161L140.816-64.627
		z M167.992-49.189h-49.804v-20.334h-4.548v24.882h58.899v-24.882h-4.547V-49.189z"/>
	<path d="M257.247-51.565c1.128,1.014,2.258,2.029,3.387,3.043c-3.657,3.657-7.315,7.315-10.972,10.972
		c-3.657-3.657-7.315-7.315-10.972-10.972c1.072-1.072,2.143-2.143,3.215-3.215c1.828,1.828,3.656,3.655,5.483,5.483
		c0-3.476,0-6.951,0-10.427c-4.595,0-9.189,0-13.784,0c-14.653,0-16.558-21.241-2.138-23.848
		c1.815-13.883,19.29-18.954,28.254-8.201c14.602-1.323,23.193,16.005,13.301,26.826c-3.387,3.704-6.832,5.223-11.85,5.223
		c-3.08,0-6.158,0-9.237,0c0,3.476,0,6.951,0,10.427c1.828-1.828,3.655-3.656,5.483-5.483 M256.848-85.005
		c-6.427-9.269-20.969-4.721-20.969,6.56c0,0.757,0,1.515,0,2.272c-0.757,0-1.515,0-2.273,0c-4.126,0-7.472,3.347-7.472,7.473
		c0,4.127,3.345,7.473,7.472,7.473c9.189,0,18.378,0,27.567,0c3.598,0,6.067-1.088,8.495-3.744
		c7.433-8.132,0.295-21.055-10.546-19.091c-0.481,0.085-0.96,0.173-1.44,0.26C257.404-84.203,257.125-84.604,256.848-85.005z"/>
	<path d="M-75.993-48.732l-21.051,5.641l5.622-20.978l37.892-37.893l15.382,15.383l-37.893,37.894l-0.027-0.027 M-84.993-64.067
		l8.952,8.952l31.461-31.462l-8.952-8.952L-84.993-64.067z M-90.613-49.521l10.831-2.904l-7.929-7.93L-90.613-49.521z"/>
	<path d="M45.186,8.668l12.79,12.789v42.912H15.062V8.668H45.186z M45.186,15.098v6.359h6.358L45.186,15.098z M53.427,59.821V26.004
		H40.639V13.216H19.608v46.604H53.427z"/>
	<path d="M170.862,57.762h-56.016V15.275h56.016V57.762z M166.315,50.1V22.889L152.26,36.404L166.315,50.1z M136.482,39.495
		l-13.84,13.721h40.355l-14.016-13.658l-6.244,6.004L136.482,39.495z M139.712,36.292l3.039,2.948l2.972-2.858l-3.077-2.998
		L139.712,36.292z M133.217,36.329l-13.824-13.407v27.112L133.217,36.329z M149.002,33.228l13.942-13.406h-40.216l13.718,13.304
		l6.171-6.117L149.002,33.228z"/>
</g>
</svg>
