<?xml version="1.0" encoding="utf-8"?>
<!-- Generator: Adobe Illustrator 16.0.0, SVG Export Plug-In . SVG Version: 6.00 Build 0)  -->
<!DOCTYPE svg PUBLIC "-//W3C//DTD SVG 1.1//EN" "http://www.w3.org/Graphics/SVG/1.1/DTD/svg11.dtd">
<svg version="1.1" id="Layer_1" xmlns="http://www.w3.org/2000/svg" xmlns:xlink="http://www.w3.org/1999/xlink" x="0px" y="0px"
	 width="76.958px" height="76.958px" viewBox="0 0 76.958 76.958" enable-background="new 0 0 76.958 76.958" xml:space="preserve">
<path d="M72.167,35.137c0,2.183,0,4.365,0,6.551c0,0.854-0.701,1.547-1.547,1.547c-0.947,0-1.896,0-2.843,0
	c-0.862,0.008-1.761,0.67-1.987,1.495c-1.072,2.67-2.146,5.341-3.218,8.011c-0.403,0.754-0.237,1.86,0.354,2.463
	c0.713,0.711,1.427,1.422,2.14,2.133c0.604,0.602,0.604,1.586,0,2.188c-1.546,1.546-3.091,3.093-4.637,4.638
	c-0.601,0.598-1.589,0.598-2.191,0c-0.669-0.672-1.338-1.343-2.006-2.016c-0.61-0.596-1.696-0.742-2.435-0.324
	c-2.963,1.258-5.924,2.516-8.885,3.771c-0.826,0.248-1.49,1.143-1.49,1.988c0,1.012,0,2.022,0,3.033
	c0,0.852-0.701,1.549-1.549,1.549c-2.185,0-4.37,0-6.554,0c-0.853,0-1.55-0.697-1.55-1.549c0-1.011,0-2.021,0-3.033
	c0-0.846-0.672-1.74-1.481-1.974c-2.647-1.058-5.295-2.114-7.944-3.172c-0.763-0.405-1.857-0.239-2.461,0.364
	c-0.758,0.754-1.518,1.506-2.276,2.261c-0.592,0.604-1.58,0.604-2.185,0c-1.546-1.543-3.092-3.087-4.638-4.63
	c-0.6-0.605-0.6-1.588,0-2.189c0.711-0.707,1.422-1.414,2.131-2.119c0.593-0.604,0.743-1.701,0.308-2.438
	c-1.269-2.986-2.537-5.973-3.804-8.96c-0.246-0.819-1.142-1.481-1.999-1.481c-1.031,0-2.061,0-3.092,0
	c-0.849,0-1.541-0.697-1.541-1.555c0-2.184,0-4.368,0-6.551c0-0.853,0.692-1.55,1.541-1.55c1.031,0,2.061,0,3.092,0
	c0.857,0,1.745-0.664,1.974-1.492c1.031-2.595,2.064-5.19,3.096-7.786c0.395-0.76,0.228-1.861-0.384-2.468
	c-0.742-0.743-1.484-1.487-2.225-2.23c-0.608-0.603-0.608-1.591,0-2.195c1.545-1.545,3.088-3.09,4.633-4.634
	c0.604-0.6,1.589-0.6,2.191,0c0.681,0.683,1.362,1.364,2.043,2.048c0.609,0.596,1.699,0.743,2.427,0.313
	c3.037-1.3,6.073-2.602,9.111-3.903c0.81-0.251,1.481-1.149,1.481-1.999c0-0.972,0-1.942,0-2.915c0-0.849,0.697-1.543,1.55-1.543
	c2.184,0,4.369,0,6.554,0c0.846,0,1.549,0.695,1.549,1.543c0,0.973,0,1.943,0,2.915c0,0.85,0.668,1.742,1.49,1.975
	c2.62,1.046,5.24,2.092,7.86,3.138c0.747,0.395,1.862,0.232,2.472-0.376c0.695-0.697,1.389-1.395,2.084-2.092
	c0.614-0.605,1.6-0.605,2.203,0c1.543,1.543,3.086,3.087,4.629,4.63c0.604,0.6,0.604,1.588,0,2.195
	c-0.642,0.64-1.283,1.281-1.925,1.922c-0.604,0.604-0.741,1.703-0.327,2.442c1.288,3.01,2.578,6.018,3.868,9.028
	c0.238,0.82,1.136,1.484,1.999,1.484c0.947,0,1.895,0,2.842,0C71.465,33.587,72.167,34.285,72.167,35.137z M38.479,56.415
	c0.324,0,0.648-0.01,0.973-0.026c0.322-0.019,0.644-0.044,0.965-0.078c0.318-0.034,0.638-0.077,0.953-0.128
	c0.313-0.051,0.627-0.111,0.938-0.178c0.308-0.068,0.614-0.143,0.919-0.227c0.223-0.062,0.445-0.127,0.666-0.197
	c0.207-0.064,0.414-0.135,0.617-0.207c0.258-0.092,0.515-0.19,0.768-0.295c0.254-0.103,0.501-0.211,0.749-0.326
	c0.255-0.117,0.505-0.242,0.755-0.373c0.26-0.135,0.514-0.276,0.766-0.426c0.265-0.154,0.525-0.315,0.781-0.486
	c0.254-0.168,0.506-0.342,0.752-0.523c0.246-0.18,0.487-0.365,0.725-0.561c0.236-0.192,0.468-0.391,0.693-0.596
	c0.227-0.203,0.447-0.414,0.662-0.629c0.215-0.217,0.426-0.438,0.629-0.662c0.205-0.228,0.403-0.459,0.597-0.695
	c0.192-0.237,0.38-0.479,0.56-0.725c0.182-0.246,0.355-0.496,0.523-0.75c0.169-0.258,0.33-0.519,0.486-0.783
	c0.147-0.252,0.289-0.506,0.424-0.766c0.131-0.249,0.254-0.5,0.373-0.754c0.115-0.247,0.224-0.497,0.326-0.749
	c0.188-0.454,0.354-0.917,0.504-1.386c0.068-0.221,0.135-0.443,0.195-0.665c0.084-0.306,0.158-0.611,0.227-0.92
	c0.067-0.312,0.127-0.625,0.178-0.938c0.051-0.318,0.095-0.634,0.13-0.953c0.034-0.322,0.06-0.643,0.077-0.965
	c0.018-0.324,0.025-0.649,0.025-0.973c0-0.324-0.008-0.649-0.025-0.973c-0.018-0.322-0.043-0.643-0.077-0.965
	c-0.035-0.319-0.078-0.637-0.13-0.954c-0.051-0.314-0.111-0.627-0.178-0.938c-0.068-0.308-0.143-0.615-0.227-0.919
	c-0.061-0.223-0.127-0.446-0.195-0.665c-0.066-0.208-0.136-0.413-0.209-0.619c-0.092-0.258-0.19-0.515-0.295-0.768
	c-0.103-0.253-0.211-0.503-0.326-0.749c-0.117-0.254-0.242-0.505-0.373-0.754c-0.135-0.259-0.276-0.515-0.424-0.768
	c-0.156-0.265-0.318-0.524-0.486-0.781c-0.17-0.255-0.344-0.507-0.524-0.753c-0.18-0.247-0.366-0.488-0.559-0.725
	c-0.192-0.236-0.392-0.468-0.597-0.693c-0.203-0.227-0.414-0.447-0.629-0.662c-0.216-0.216-0.436-0.426-0.662-0.63
	c-0.227-0.206-0.457-0.403-0.693-0.596c-0.237-0.193-0.479-0.38-0.725-0.561c-0.246-0.18-0.496-0.354-0.752-0.521
	c-0.256-0.169-0.517-0.331-0.781-0.487c-0.254-0.149-0.508-0.289-0.766-0.424c-0.242-0.126-0.484-0.246-0.73-0.36
	c-0.221-0.104-0.444-0.203-0.668-0.296c-0.243-0.101-0.489-0.199-0.737-0.288c-0.28-0.103-0.562-0.197-0.845-0.286
	c-0.301-0.092-0.604-0.178-0.908-0.256c-0.307-0.077-0.615-0.147-0.926-0.209c-0.314-0.061-0.627-0.115-0.943-0.159
	c-0.318-0.046-0.638-0.083-0.958-0.111c-0.351-0.03-0.703-0.051-1.055-0.062c-0.412-0.011-0.826-0.01-1.238,0.007
	c-0.308,0.012-0.616,0.031-0.924,0.06c-0.209,0.019-0.417,0.042-0.626,0.068c-0.212,0.027-0.423,0.058-0.634,0.092
	c-0.313,0.05-0.627,0.109-0.938,0.177c-0.309,0.068-0.616,0.143-0.92,0.227c-0.223,0.061-0.445,0.126-0.665,0.196
	c-0.208,0.066-0.415,0.135-0.619,0.208c-0.258,0.092-0.515,0.191-0.768,0.293c-0.253,0.104-0.503,0.214-0.749,0.327
	c-0.255,0.119-0.507,0.243-0.755,0.373c-0.258,0.135-0.514,0.276-0.766,0.424c-0.265,0.156-0.526,0.318-0.782,0.487
	c-0.255,0.167-0.507,0.342-0.753,0.523c-0.246,0.18-0.488,0.368-0.724,0.561c-0.237,0.192-0.468,0.391-0.693,0.595
	c-0.227,0.205-0.447,0.415-0.664,0.63c-0.215,0.216-0.424,0.438-0.628,0.664s-0.403,0.458-0.596,0.693
	c-0.192,0.238-0.38,0.479-0.56,0.724c-0.181,0.247-0.355,0.497-0.523,0.754c-0.169,0.255-0.331,0.516-0.487,0.781
	c-0.147,0.253-0.289,0.508-0.424,0.768c-0.13,0.249-0.253,0.5-0.372,0.754c-0.114,0.246-0.223,0.497-0.326,0.749
	c-0.104,0.254-0.201,0.51-0.295,0.768c-0.073,0.206-0.142,0.411-0.207,0.619c-0.07,0.219-0.135,0.441-0.197,0.665
	c-0.083,0.304-0.158,0.611-0.224,0.919c-0.069,0.311-0.127,0.624-0.178,0.938c-0.052,0.316-0.095,0.635-0.128,0.953
	c-0.035,0.32-0.061,0.642-0.079,0.964c-0.017,0.324-0.026,0.649-0.026,0.973c0,0.324,0.008,0.648,0.026,0.973
	c0.018,0.322,0.043,0.643,0.079,0.963c0.034,0.318,0.077,0.637,0.128,0.953c0.051,0.314,0.111,0.627,0.178,0.938
	c0.066,0.308,0.142,0.614,0.224,0.919c0.062,0.223,0.127,0.445,0.197,0.665c0.065,0.208,0.134,0.413,0.207,0.618
	c0.092,0.258,0.191,0.514,0.295,0.769c0.103,0.251,0.211,0.5,0.326,0.749c0.119,0.254,0.242,0.505,0.372,0.754
	c0.135,0.26,0.277,0.514,0.424,0.766c0.156,0.266,0.318,0.526,0.485,0.783c0.169,0.254,0.343,0.506,0.523,0.752
	c0.181,0.246,0.367,0.488,0.559,0.726c0.193,0.235,0.392,0.468,0.596,0.694s0.414,0.447,0.63,0.662
	c0.215,0.215,0.435,0.426,0.662,0.631c0.226,0.203,0.457,0.403,0.693,0.596c0.237,0.193,0.479,0.38,0.724,0.561
	c0.246,0.182,0.497,0.355,0.753,0.523c0.257,0.17,0.518,0.333,0.782,0.486c0.251,0.149,0.507,0.291,0.766,0.426
	c0.249,0.131,0.5,0.255,0.754,0.373c0.247,0.115,0.497,0.224,0.749,0.326c0.254,0.105,0.511,0.203,0.769,0.295
	c0.204,0.072,0.411,0.143,0.618,0.207c0.222,0.07,0.443,0.135,0.666,0.197c0.304,0.084,0.612,0.159,0.92,0.227
	c0.311,0.066,0.624,0.127,0.938,0.178c0.318,0.052,0.635,0.096,0.954,0.128c0.322,0.035,0.643,0.062,0.965,0.078
	C37.831,56.405,38.155,56.415,38.479,56.415z"/>
</svg>
