<?xml version="1.0" encoding="utf-8"?>
<!-- Generator: Adobe Illustrator 16.0.0, SVG Export Plug-In . SVG Version: 6.00 Build 0)  -->
<!DOCTYPE svg PUBLIC "-//W3C//DTD SVG 1.1//EN" "http://www.w3.org/Graphics/SVG/1.1/DTD/svg11.dtd">
<svg version="1.1" id="Layer_1" xmlns="http://www.w3.org/2000/svg" xmlns:xlink="http://www.w3.org/1999/xlink" x="0px" y="0px"
	 width="73.037px" height="73.039px" viewBox="0 0 73.037 73.039" enable-background="new 0 0 73.037 73.039" xml:space="preserve">
<g id="Default">
	<path d="M60.496,28.526c0,11.989,0,23.979,0,35.968c0,1.332,0,2.664,0,3.996c-1.332-1.332-2.664-2.664-3.996-3.996
		c-1.332,1.332-2.664,2.664-3.997,3.996c-1.332-1.332-2.664-2.664-3.996-3.996c-1.332,1.332-2.665,2.664-3.997,3.996
		c-1.331-1.332-2.663-2.664-3.995-3.996c-1.334,1.332-2.666,2.664-3.998,3.996c-1.332-1.332-2.664-2.664-3.997-3.996
		c-1.332,1.332-2.664,2.664-3.996,3.996c-1.332-1.332-2.665-2.664-3.997-3.996c-1.332,1.332-2.664,2.664-3.996,3.996
		c-1.332-1.332-2.664-2.664-3.997-3.996c-1.332,1.332-2.664,2.664-3.997,3.996c0-1.332,0-2.664,0-3.996c0-11.99,0-23.979,0-35.968
		c0,0,0-23.979,23.979-23.979C60.496,4.547,60.496,28.526,60.496,28.526z M28.525,20.533c-3.311,0-5.994,2.684-5.994,5.995
		s2.684,5.995,5.994,5.995s5.994-2.684,5.994-5.995C34.52,23.216,31.835,20.533,28.525,20.533z M44.511,20.533
		c-3.31,0-5.994,2.684-5.994,5.995s2.685,5.995,5.994,5.995c3.312,0,5.996-2.684,5.996-5.995
		C50.506,23.216,47.821,20.533,44.511,20.533z"/>
</g>
<g id="_x30_" display="none">
	
		<rect x="-106.572" y="106.572" display="inline" fill="none" stroke="#00FFFF" stroke-linecap="round" stroke-linejoin="round" width="73.037" height="73.037"/>
	
		<rect display="inline" fill="none" stroke="#00FFFF" stroke-linecap="round" stroke-linejoin="round" width="73.037" height="73.037"/>
	
		<rect y="106.572" display="inline" fill="none" stroke="#00FFFF" stroke-linecap="round" stroke-linejoin="round" width="73.037" height="73.037"/>
	
		<rect x="-319.717" y="213.145" display="inline" fill="none" stroke="#00FFFF" stroke-linecap="round" stroke-linejoin="round" width="73.037" height="73.038"/>
	
		<rect x="-213.145" y="213.145" display="inline" fill="none" stroke="#00FFFF" stroke-linecap="round" stroke-linejoin="round" width="73.037" height="73.038"/>
	
		<rect x="-106.573" y="-106.041" display="inline" fill="none" stroke="#00FFFF" stroke-linecap="round" stroke-linejoin="round" width="73.038" height="73.038"/>
	
		<rect x="-0.001" y="-106.041" display="inline" fill="none" stroke="#00FFFF" stroke-linecap="round" stroke-linejoin="round" width="73.038" height="73.038"/>
	
		<rect x="-213.145" y="-106.573" display="inline" fill="none" stroke="#00FFFF" stroke-linecap="round" stroke-linejoin="round" width="73.038" height="73.038"/>
	
		<rect x="-319.717" y="-106.573" display="inline" fill="none" stroke="#00FFFF" stroke-linecap="round" stroke-linejoin="round" width="73.037" height="73.038"/>
	
		<rect x="-319.717" display="inline" fill="none" stroke="#00FFFF" stroke-linecap="round" stroke-linejoin="round" width="73.037" height="73.037"/>
	
		<rect x="-213.145" y="106.572" display="inline" fill="none" stroke="#00FFFF" stroke-linecap="round" stroke-linejoin="round" width="73.038" height="73.037"/>
	
		<rect x="-319.717" y="106.572" display="inline" fill="none" stroke="#00FFFF" stroke-linecap="round" stroke-linejoin="round" width="73.038" height="73.037"/>
	
		<rect x="-106.808" display="inline" fill="none" stroke="#00FFFF" stroke-linecap="round" stroke-linejoin="round" width="73.036" height="73.037"/>
	
		<rect x="-213.144" display="inline" fill="none" stroke="#00FFFF" stroke-linecap="round" stroke-linejoin="round" width="73.036" height="73.037"/>
</g>
</svg>
