<?xml version="1.0" encoding="utf-8"?>
<!-- Generator: Adobe Illustrator 16.0.0, SVG Export Plug-In . SVG Version: 6.00 Build 0)  -->
<!DOCTYPE svg PUBLIC "-//W3C//DTD SVG 1.1//EN" "http://www.w3.org/Graphics/SVG/1.1/DTD/svg11.dtd">
<svg version="1.1" id="Layer_1" xmlns="http://www.w3.org/2000/svg" xmlns:xlink="http://www.w3.org/1999/xlink" x="0px" y="0px"
	 width="77px" height="77px" viewBox="0 0 77 77" enable-background="new 0 0 77 77" xml:space="preserve">
<g id="Layer_1_1_">
</g>
<path d="M65.006,51.71c0,4.421-2.714,8.038-6.027,8.038c-3.315,0-6.03-3.617-6.03-8.038c0-2.678,0-5.356,0-8.036
	c0-4.421,2.715-8.037,6.03-8.037c3.313,0,6.027,3.616,6.027,8.037C65.006,46.354,65.006,49.033,65.006,51.71z"/>
<path d="M24.052,51.71c0,4.421-2.714,8.038-6.027,8.038c-3.317,0-6.029-3.617-6.029-8.038c0-2.678,0-5.356,0-8.036
	c0-4.421,2.712-8.037,6.029-8.037c3.313,0,6.027,3.616,6.027,8.037C24.052,46.354,24.052,49.033,24.052,51.71z"/>
<path d="M72.207,53.031c0,2.045-2.395,3.15-3.95,1.824c-1.101-0.936-0.843-1.998-0.843-3.16c0-1.821,0-3.644,0-5.465
	c0-6.506,0.388-12.739-2.326-19.092C60.531,16.48,50.089,9.588,38.5,9.588c-11.595,0-22.041,6.899-26.593,17.566
	c-2.709,6.352-2.318,12.584-2.318,19.085c0,1.821,0,3.643,0,5.463c0,1.161,0.253,2.223-0.845,3.155
	c-1.558,1.322-3.949,0.218-3.949-1.826c0-11.334-1.574-21.945,5.325-32.716C16.327,10.629,26.996,4.794,38.5,4.794
	c11.506,0,22.18,5.838,28.384,15.527C73.779,31.09,72.207,41.699,72.207,53.031z"/>
</svg>
