<?xml version="1.0" encoding="utf-8"?>
<!-- Generator: Adobe Illustrator 16.0.0, SVG Export Plug-In . SVG Version: 6.00 Build 0)  -->
<!DOCTYPE svg PUBLIC "-//W3C//DTD SVG 1.1//EN" "http://www.w3.org/Graphics/SVG/1.1/DTD/svg11.dtd">
<svg version="1.1" id="Layer_1" xmlns="http://www.w3.org/2000/svg" xmlns:xlink="http://www.w3.org/1999/xlink" x="0px" y="0px"
	 width="77px" height="77px" viewBox="0 0 77 77" enable-background="new 0 0 77 77" xml:space="preserve">
<g id="Layer_1_1_">
</g>
<path d="M19.894,66.145c-1.294,0-1.903-0.479-2.213-1.734c-0.246-1.003-0.063-1.971-0.063-2.956c0-1.997,0-3.993,0-5.99
	c0-3.993,0-7.987,0-11.979c0-7.987,0-15.976,0-23.962c0-1.737,0-3.473,0-5.209c0-2.107,0.489-3.449,2.868-3.449
	c4.472,0,8.941,0,13.411,0c7.99,0,15.974,0,23.962,0c1.293,0,1.904,0.478,2.211,1.734c0.246,1.002,0.066,1.97,0.066,2.956
	c0,1.997,0,3.994,0,5.99c0,3.995,0,7.987,0,11.98c0,7.987,0,15.975,0,23.962c0,1.736,0,3.473,0,5.209
	c0,2.106-0.49,3.449-2.871,3.449c-4.47,0-8.938,0-13.41,0C35.869,66.145,27.88,66.145,19.894,66.145z M39.395,13.57
	c-0.181-0.366-0.406-0.445-0.771-0.265c-0.365,0.178-0.443,0.404-0.267,0.771c0.18,0.365,0.406,0.443,0.771,0.265
	C39.496,14.162,39.574,13.936,39.395,13.57z M20.201,60.225h37.352V16.782H20.201V60.225z M40.486,63.969
	c0.557-1.139,0.315-1.841-0.822-2.396c-1.142-0.558-1.842-0.314-2.398,0.823c-0.556,1.141-0.313,1.842,0.826,2.396
	C39.229,65.352,39.93,65.109,40.486,63.969z"/>
</svg>
