<?xml version="1.0" encoding="utf-8"?>
<!-- Generator: Adobe Illustrator 16.0.0, SVG Export Plug-In . SVG Version: 6.00 Build 0)  -->
<!DOCTYPE svg PUBLIC "-//W3C//DTD SVG 1.1//EN" "http://www.w3.org/Graphics/SVG/1.1/DTD/svg11.dtd">
<svg version="1.1" id="Layer_1" xmlns="http://www.w3.org/2000/svg" xmlns:xlink="http://www.w3.org/1999/xlink" x="0px" y="0px"
	 width="77px" height="77px" viewBox="0 0 77 77" enable-background="new 0 0 77 77" xml:space="preserve">
<g id="Layer_1_1_">
</g>
<path d="M55.626,66.116c0,1.442-1.183,2.627-2.624,2.627c-9.669,0-19.335,0-29.004,0c-1.442,0-2.627-1.185-2.627-2.627
	c0-18.411,0-36.823,0-55.234c0-1.445,1.185-2.626,2.627-2.626c9.669,0,19.335,0,29.004,0c1.441,0,2.624,1.181,2.624,2.626
	C55.626,29.292,55.626,47.705,55.626,66.116z M38.499,62.152c-1.292,0-2.34,1.05-2.34,2.342c0,1.29,1.048,2.334,2.34,2.334
	s2.34-1.044,2.34-2.334C40.839,63.202,39.791,62.152,38.499,62.152z M53.289,19.111c0-1.445-1.182-2.625-2.627-2.625
	c-8.11,0-16.218,0-24.328,0c-1.442,0-2.625,1.18-2.625,2.625c0,12.192,0,24.384,0,36.575c0,1.444,1.182,2.629,2.625,2.629
	c8.11,0,16.218,0,24.328,0c1.445,0,2.627-1.185,2.627-2.629C53.289,43.495,53.289,31.303,53.289,19.111z M40.896,11.772
	c-1.111,0-2.224,0-3.338,0c-0.553,0-1.086-0.177-1.663,0.038c-0.727,0.27-0.565,1.16,0.208,1.16c1.112,0,2.225,0,3.336,0
	c0.557,0,1.09,0.177,1.666-0.038C41.831,12.663,41.67,11.772,40.896,11.772z"/>
</svg>
