<?xml version="1.0" encoding="utf-8"?>
<!-- Generator: Adobe Illustrator 16.0.0, SVG Export Plug-In . SVG Version: 6.00 Build 0)  -->
<!DOCTYPE svg PUBLIC "-//W3C//DTD SVG 1.1//EN" "http://www.w3.org/Graphics/SVG/1.1/DTD/svg11.dtd">
<svg version="1.1" id="Layer_1" xmlns="http://www.w3.org/2000/svg" xmlns:xlink="http://www.w3.org/1999/xlink" x="0px" y="0px"
	 width="77px" height="77px" viewBox="0 0 77 77" enable-background="new 0 0 77 77" xml:space="preserve">
<g id="Layer_1_1_">
</g>
<path d="M57.576,64.794c0,1.608-1.317,2.926-2.926,2.926c-10.767,0-21.533,0-32.299,0c-1.61,0-2.926-1.315-2.926-2.926
	c0-17.53,0-35.06,0-52.59c0-1.607,1.315-2.924,2.926-2.924c10.767,0,21.534,0,32.299,0c1.607,0,2.926,1.317,2.926,2.924
	C57.576,29.734,57.576,47.264,57.576,64.794z M54.973,38.5V12.525H22.026V38.5H54.973z M48.509,53.111
	c0-5.529-4.479-10.012-10.01-10.012c-5.527,0-10.011,4.481-10.011,10.012c0,5.527,4.484,10.013,10.011,10.013
	C44.029,63.124,48.509,58.639,48.509,53.111z"/>
<path d="M42.354,53.111c0,2.129-1.723,3.854-3.854,3.854c-2.126,0-3.855-1.727-3.855-3.854c0-2.129,1.729-3.855,3.855-3.855
	C40.631,49.255,42.354,50.982,42.354,53.111z"/>
</svg>
