<?xml version="1.0" encoding="utf-8"?>
<!-- Generator: Adobe Illustrator 16.0.0, SVG Export Plug-In . SVG Version: 6.00 Build 0)  -->
<!DOCTYPE svg PUBLIC "-//W3C//DTD SVG 1.1//EN" "http://www.w3.org/Graphics/SVG/1.1/DTD/svg11.dtd">
<svg version="1.1" id="Layer_1" xmlns="http://www.w3.org/2000/svg" xmlns:xlink="http://www.w3.org/1999/xlink" x="0px" y="0px"
	 width="77px" height="77px" viewBox="0 0 77 77" enable-background="new 0 0 77 77" xml:space="preserve">
<g id="Layer_1_1_">
</g>
<path d="M29.222,33.283c5.214-5.217,10.43-10.433,15.647-15.648c1.162-1.162,2.326-2.323,3.486-3.486
	c0.736-0.737,1.088-1.815,2.475-1.786c0.927,0.02,1.855,0.041,2.783,0.061c1.588,0.035,3.172,0.094,4.76,0.103
	c0.111,0.001,0.229,0.004,0.342,0.027c0.105,0.021,0.215,0.043,0.324,0.049c0.84,0.046,1.488,0.292,2.126,0.852
	c0.965,0.846,1.463,1.666,1.413,3.005c-0.059,1.561,0.072,3.112,0.125,4.667c0.055,1.716,0.113,3.434,0.168,5.15
	c0.016,0.43,0.029,0.859,0.043,1.289c0.006,0.168,0.203,0.949-0.121,0.958c-0.393,0.011-0.781,0.023-1.173,0.035
	c-0.782,0.023-1.563,0.046-2.347,0.071c-0.67,0.021-1.668-0.508-1.725,0.621c-0.061,1.373-0.127,2.748-0.195,4.119
	c-0.01,0.216-0.215,0.032-0.324,0.038c-0.116,0.004-0.229,0.01-0.346,0.016c-0.231,0.011-0.461,0.021-0.691,0.032
	c-0.461,0.023-0.922,0.043-1.383,0.066c-0.461,0.022-0.924,0.043-1.385,0.067c-0.213,0.01-0.617-0.332-0.637,0.09
	c-0.009,0.231-0.021,0.465-0.031,0.698c-0.045,0.931-0.091,1.861-0.134,2.792c-0.012,0.25,0.292,1.244-0.194,1.26
	c-0.445,0.013-0.89,0.028-1.336,0.042c-0.889,0.028-1.777,0.058-2.666,0.087c-0.582,0.019-0.461,0.48-0.465,0.881
	c-0.006,0.439-0.012,0.877-0.018,1.315c-0.003,0.323,0.05,2.265-0.266,2.582c-0.726,0.726-1.449,1.451-2.177,2.177
	c-0.678,0.676-1.874,0.867-1.677,2.256c0.027,0.19,0.052,0.383,0.072,0.576c0.043,0.393,0.072,0.784,0.087,1.178
	c0.03,0.812,0.009,1.615-0.075,2.422c-0.174,1.69-0.576,3.271-1.23,4.84c-1.365,3.263-3.281,5.605-6.213,7.584
	c-6.341,4.277-14.744,3.824-20.589-1.105C2.511,52.152,12.182,30.745,29.222,33.283z M26.044,54.486
	c0-2.125-1.723-3.848-3.846-3.848c-2.126,0-3.85,1.723-3.85,3.848s1.724,3.849,3.85,3.849
	C24.321,58.334,26.044,56.611,26.044,54.486z"/>
</svg>
