<?xml version="1.0" encoding="utf-8"?>
<!-- Generator: Adobe Illustrator 16.0.0, SVG Export Plug-In . SVG Version: 6.00 Build 0)  -->
<!DOCTYPE svg PUBLIC "-//W3C//DTD SVG 1.1//EN" "http://www.w3.org/Graphics/SVG/1.1/DTD/svg11.dtd">
<svg version="1.1" id="Layer_1" xmlns="http://www.w3.org/2000/svg" xmlns:xlink="http://www.w3.org/1999/xlink" x="0px" y="0px"
	 width="77px" height="77px" viewBox="0 0 77 77" enable-background="new 0 0 77 77" xml:space="preserve">
<g id="Layer_1_1_">
</g>
<g id="HATCH">
	<path d="M45.35,30.917V14.569l0.075-0.046l0.073-0.048l0.074-0.05l0.072-0.051l0.071-0.053l0.072-0.055l0.071-0.056l0.07-0.058
		L46,14.093l0.068-0.061l0.068-0.063l0.065-0.063l0.065-0.066l0.064-0.068l0.062-0.069l0.062-0.071l0.062-0.072l0.061-0.074
		l0.059-0.076l0.057-0.077l0.057-0.078l0.055-0.08l0.053-0.081l0.05-0.082l0.05-0.083l0.048-0.084l0.045-0.085l0.046-0.086
		l0.041-0.087l0.04-0.088l0.038-0.089l0.037-0.09l0.035-0.091l0.033-0.091l0.029-0.092l0.029-0.093l0.027-0.093l0.023-0.093
		l0.023-0.094l0.021-0.094l0.02-0.094l0.018-0.095l0.016-0.095l0.013-0.095l0.011-0.095l0.01-0.095l0.006-0.095l0.006-0.095
		l0.004-0.094l0.001-0.094l-0.001-0.094l-0.004-0.093l-0.004-0.093l-0.006-0.092l-0.008-0.092l-0.011-0.091l-0.012-0.09l-0.013-0.09
		l-0.017-0.089l-0.017-0.088l-0.016-0.091L47.45,9.542L47.43,9.456l-0.022-0.084l-0.024-0.084l-0.025-0.084L47.33,9.12l-0.029-0.084
		L47.27,8.952l-0.033-0.084l-0.035-0.083L47.161,8.7l-0.038-0.083l-0.041-0.083l-0.043-0.083l-0.044-0.082L46.949,8.29L46.9,8.209
		l-0.049-0.08L46.799,8.05l-0.053-0.078l-0.057-0.078l-0.057-0.076l-0.059-0.076l-0.061-0.074l-0.062-0.074l-0.062-0.072
		l-0.065-0.071l-0.066-0.07l-0.067-0.068l-0.07-0.067L46.048,7.18l-0.071-0.064l-0.074-0.063l-0.076-0.061l-0.076-0.06l-0.08-0.057
		l-0.079-0.056L45.51,6.764l-0.08-0.053L45.346,6.66l-0.082-0.049L45.18,6.564l-0.087-0.045l-0.086-0.044l-0.086-0.042l-0.088-0.04
		l-0.088-0.038l-0.088-0.036l-0.091-0.034l-0.088-0.032l-0.09-0.03l-0.091-0.028l-0.091-0.026l-0.09-0.024l-0.092-0.023l-0.09-0.021
		L43.848,6.08l-0.092-0.017l-0.091-0.015l-0.09-0.013l-0.091-0.011l-0.09-0.01l-0.088-0.007L43.217,6l-0.088-0.004L43.04,5.994
		l-0.087-0.001h-8.906L33.96,5.994l-0.088,0.002L33.783,6l-0.089,0.006l-0.089,0.007l-0.09,0.01l-0.09,0.011l-0.09,0.013
		l-0.09,0.015l-0.09,0.017l-0.091,0.019l-0.091,0.021l-0.09,0.023l-0.09,0.024l-0.09,0.026l-0.09,0.028l-0.09,0.03l-0.089,0.032
		l-0.089,0.034l-0.088,0.036L32.169,6.39l-0.087,0.04l-0.087,0.042l-0.086,0.044l-0.085,0.045L31.74,6.608L31.654,6.66l-0.083,0.051
		L31.49,6.764l-0.08,0.055l-0.08,0.056l-0.078,0.058l-0.077,0.06L31.1,7.054l-0.074,0.063l-0.073,0.064l-0.071,0.066l-0.07,0.067
		l-0.068,0.068l-0.067,0.07l-0.065,0.071l-0.063,0.072l-0.062,0.074l-0.06,0.074l-0.059,0.076L30.31,7.895l-0.055,0.078L30.202,8.05
		L30.15,8.129l-0.05,0.08L30.052,8.29l-0.046,0.081l-0.044,0.082L29.92,8.536l-0.041,0.083L29.84,8.7l-0.037,0.083l-0.035,0.083
		L29.735,8.95l-0.031,0.084l-0.03,0.084l-0.028,0.084L29.62,9.286L29.596,9.37l-0.022,0.084L29.553,9.54l-0.02,0.086l-0.018,0.087
		l-0.017,0.088L29.483,9.89L29.47,9.98l-0.012,0.09l-0.01,0.091l-0.008,0.092l-0.006,0.092l-0.004,0.093l-0.003,0.093v0.094
		l0.001,0.094l0.003,0.094l0.005,0.095l0.007,0.095L29.45,11.1l0.011,0.095l0.013,0.095l0.015,0.095l0.017,0.095l0.019,0.094
		l0.021,0.094l0.023,0.094l0.025,0.093l0.027,0.093l0.029,0.093l0.031,0.092l0.033,0.091l0.035,0.091l0.037,0.09l0.039,0.089
		l0.041,0.088l0.042,0.087l0.044,0.086l0.046,0.085l0.047,0.084l0.049,0.083l0.051,0.082l0.052,0.081l0.054,0.08l0.055,0.078
		l0.057,0.077l0.059,0.076l0.06,0.074l0.061,0.072l0.062,0.071l0.063,0.069l0.064,0.068l0.066,0.066l0.067,0.064l0.067,0.063
		L31,14.093l0.069,0.06l0.07,0.058l0.071,0.056l0.072,0.055l0.072,0.053l0.073,0.051l0.073,0.05l0.074,0.048l0.075,0.046v16.348
		L12.688,66.613l-0.065,0.127l-0.062,0.13l-0.058,0.133l-0.054,0.136l-0.05,0.139l-0.046,0.141l-0.042,0.143l-0.037,0.146
		l-0.032,0.146l-0.028,0.147l-0.023,0.149l-0.018,0.149l-0.014,0.151l-0.008,0.15l-0.003,0.151l0.001,0.151l0.006,0.152l0.012,0.151
		l0.017,0.151l0.021,0.148l0.026,0.149l0.031,0.146l0.036,0.146l0.04,0.144l0.045,0.143l0.049,0.142l0.053,0.138l0.057,0.135
		l0.061,0.134l0.065,0.13l0.068,0.127l0.072,0.123l0.075,0.121l0.08,0.119l0.084,0.119l0.088,0.115l0.093,0.113l0.097,0.111
		l0.101,0.109l0.105,0.105l0.108,0.104l0.112,0.102l0.116,0.096l0.119,0.094l0.123,0.09l0.126,0.084l0.128,0.082l0.131,0.078
		l0.134,0.071l0.136,0.067l0.138,0.063l0.14,0.06l0.141,0.055l0.143,0.05l0.144,0.045l0.144,0.039l0.145,0.035l0.146,0.03
		l0.146,0.025l0.146,0.021l0.145,0.017l0.145,0.012l0.144,0.006l0.143,0.002H60.23l0.143-0.002l0.145-0.006l0.146-0.012l0.146-0.017
		l0.146-0.021L61.1,73.32l0.146-0.03l0.145-0.035l0.146-0.039l0.144-0.045l0.144-0.05l0.142-0.055l0.141-0.06l0.138-0.063
		l0.136-0.067l0.135-0.071l0.131-0.078l0.129-0.082l0.125-0.084l0.123-0.09l0.119-0.094l0.115-0.096l0.112-0.102l0.108-0.104
		l0.104-0.105l0.102-0.109l0.096-0.111l0.094-0.113l0.088-0.115l0.085-0.119l0.079-0.119l0.075-0.121l0.071-0.123l0.068-0.127
		l0.064-0.13l0.062-0.134l0.058-0.135l0.054-0.138l0.049-0.142l0.045-0.143l0.04-0.144l0.036-0.146l0.03-0.146l0.025-0.149
		l0.021-0.148l0.017-0.151l0.013-0.151l0.006-0.152l0.002-0.151L64.85,68.6l-0.009-0.15l-0.014-0.151l-0.019-0.149l-0.022-0.149
		l-0.028-0.147l-0.031-0.146l-0.037-0.146l-0.043-0.143l-0.045-0.141l-0.051-0.139l-0.054-0.136l-0.058-0.133l-0.062-0.13
		l-0.063-0.127L45.35,30.917z M41.754,31.813l19.385,36.486l0.014,0.028l0.014,0.028l0.014,0.029l0.012,0.03l0.012,0.03l0.011,0.031
		l0.009,0.031l0.01,0.032l0.006,0.032l0.007,0.033l0.006,0.031l0.004,0.034l0.003,0.033l0.002,0.034l0.002,0.033l-0.002,0.033
		l-0.001,0.033l-0.003,0.034L61.25,68.91l-0.004,0.033l-0.006,0.033l-0.008,0.032l-0.008,0.032l-0.01,0.032l-0.01,0.032
		l-0.012,0.029l-0.012,0.031l-0.013,0.029l-0.015,0.029l-0.014,0.028l-0.016,0.028l-0.018,0.027l-0.017,0.026l-0.018,0.026
		l-0.019,0.025l-0.021,0.025l-0.021,0.025l-0.021,0.024l-0.023,0.024l-0.021,0.022l-0.024,0.023l-0.024,0.021l-0.025,0.021
		l-0.025,0.021l-0.027,0.021l-0.028,0.019l-0.028,0.02l-0.029,0.017l-0.028,0.017l-0.03,0.016l-0.031,0.015l-0.031,0.013
		l-0.029,0.013l-0.031,0.012l-0.033,0.011l-0.031,0.008l-0.031,0.009l-0.033,0.007l-0.031,0.006L60.359,69.8l-0.031,0.003
		l-0.032,0.004h-0.03l-0.035,0.004H16.771l-0.032-0.002h-0.032l-0.032-0.004l-0.032-0.003l-0.032-0.005l-0.033-0.006l-0.032-0.007
		l-0.032-0.009l-0.032-0.008l-0.032-0.011l-0.032-0.012l-0.031-0.013l-0.031-0.013l-0.031-0.015l-0.03-0.016l-0.029-0.017
		l-0.029-0.017l-0.029-0.02l-0.028-0.019l-0.027-0.021l-0.026-0.021L16.1,69.561l-0.025-0.021l-0.024-0.023l-0.023-0.022
		l-0.022-0.024l-0.021-0.023l-0.021-0.026l-0.02-0.024l-0.019-0.026l-0.018-0.026l-0.017-0.027l-0.016-0.026l-0.015-0.028
		l-0.015-0.027l-0.013-0.029l-0.013-0.03l-0.012-0.03l-0.011-0.031l-0.01-0.031l-0.009-0.032l-0.008-0.032l-0.007-0.031
		l-0.006-0.034l-0.005-0.033l-0.003-0.033l-0.003-0.034l-0.001-0.033v-0.033V68.75l0.002-0.034l0.003-0.032l0.004-0.035l0.005-0.031
		l0.006-0.033l0.007-0.032l0.008-0.032l0.009-0.031l0.01-0.031l0.011-0.029l0.012-0.031l0.013-0.028l0.014-0.029l0.015-0.028
		l19.383-36.485V11.644h-1.199h-0.022h-0.023l-0.023-0.001l-0.023-0.002l-0.023-0.002l-0.023-0.003l-0.024-0.003l-0.024-0.004
		l-0.024-0.005l-0.024-0.005l-0.024-0.006l-0.024-0.006L33.741,11.6l-0.024-0.008l-0.024-0.008l-0.024-0.009l-0.023-0.01
		l-0.023-0.01L33.6,11.544l-0.023-0.011l-0.023-0.012l-0.022-0.013l-0.022-0.014l-0.022-0.014l-0.021-0.015l-0.022-0.016
		l-0.021-0.016l-0.021-0.017l-0.02-0.017l-0.02-0.018l-0.02-0.018l-0.019-0.019l-0.019-0.019l-0.018-0.02l-0.018-0.02l-0.017-0.021
		l-0.017-0.021l-0.016-0.021L33.202,11.2l-0.015-0.022l-0.014-0.021l-0.013-0.022l-0.013-0.022l-0.012-0.023l-0.011-0.023
		l-0.011-0.023l-0.01-0.023l-0.01-0.024l-0.009-0.023l-0.008-0.024l-0.008-0.024l-0.007-0.024l-0.006-0.024l-0.006-0.024
		l-0.005-0.024l-0.005-0.024l-0.004-0.024l-0.004-0.024l-0.002-0.023l-0.002-0.023l-0.002-0.023l-0.001-0.023v-0.023v-0.023v-0.022
		v-0.023l0.001-0.023l0.002-0.023l0.002-0.023l0.002-0.023l0.004-0.024l0.004-0.024l0.005-0.024l0.005-0.024l0.006-0.024
		l0.006-0.024l0.007-0.024l0.008-0.024l0.008-0.024l0.009-0.024l0.01-0.023l0.01-0.023l0.011-0.023l0.011-0.023l0.012-0.023
		l0.013-0.023l0.013-0.022l0.014-0.022l0.015-0.021l0.016-0.022l0.016-0.021l0.017-0.021l0.017-0.021l0.018-0.02l0.018-0.02
		l0.019-0.019l0.019-0.019l0.02-0.018l0.02-0.018l0.02-0.017l0.021-0.017l0.021-0.016l0.022-0.016l0.021-0.014l0.022-0.015
		l0.022-0.013l0.022-0.013l0.023-0.013l0.023-0.012l0.023-0.011l0.023-0.01l0.023-0.01l0.024-0.009l0.024-0.009l0.024-0.008
		l0.024-0.007l0.024-0.006l0.024-0.006l0.024-0.005l0.024-0.005l0.024-0.004l0.024-0.003l0.023-0.003l0.023-0.002l0.023-0.002
		L34,9.593h0.023h0.022h8.906h0.021h0.023l0.023,0.001l0.021,0.002l0.023,0.002l0.023,0.003l0.023,0.003l0.022,0.004l0.024,0.005
		l0.023,0.005l0.023,0.006l0.023,0.006l0.023,0.007l0.023,0.008l0.023,0.009l0.023,0.009l0.022,0.01l0.024,0.01l0.021,0.011
		l0.023,0.012l0.023,0.013l0.021,0.013l0.021,0.013l0.022,0.015l0.021,0.014l0.021,0.016l0.021,0.016l0.021,0.017l0.021,0.017
		l0.021,0.018l0.02,0.018l0.02,0.019l0.02,0.019l0.019,0.02l0.019,0.02l0.016,0.021l0.018,0.021l0.016,0.021l0.017,0.022
		l0.015,0.021l0.014,0.022l0.015,0.022l0.013,0.023l0.014,0.023l0.012,0.023l0.011,0.023l0.011,0.023l0.01,0.023l0.01,0.024
		l0.009,0.024l0.007,0.024l0.008,0.024l0.008,0.024l0.006,0.024l0.005,0.024l0.005,0.024l0.004,0.024l0.004,0.024l0.003,0.023
		l0.003,0.023l0.002,0.023v0.023l0.002,0.023v0.022v0.023l-0.002,0.023v0.023l-0.002,0.023l-0.003,0.023l-0.003,0.023l-0.004,0.024
		l-0.004,0.024l-0.005,0.024l-0.005,0.024l-0.006,0.024l-0.008,0.024l-0.008,0.024l-0.007,0.024l-0.009,0.024l-0.01,0.023
		l-0.01,0.024l-0.011,0.023l-0.011,0.023l-0.012,0.023l-0.014,0.023l-0.013,0.022l-0.015,0.022l-0.014,0.021L43.799,11.2
		l-0.016,0.021l-0.016,0.021l-0.018,0.021l-0.018,0.021l-0.018,0.02l-0.02,0.02l-0.019,0.019l-0.02,0.019l-0.019,0.018l-0.021,0.018
		l-0.021,0.017l-0.021,0.017l-0.021,0.016l-0.021,0.016l-0.021,0.015l-0.021,0.014l-0.022,0.014l-0.022,0.013l-0.022,0.012
		L43.4,11.543l-0.022,0.011l-0.024,0.01l-0.022,0.01l-0.022,0.009l-0.024,0.008l-0.022,0.008l-0.025,0.007l-0.022,0.006
		l-0.024,0.006l-0.022,0.005l-0.024,0.005l-0.022,0.004l-0.022,0.003l-0.024,0.003L43.05,11.64l-0.022,0.002L43,11.643h-0.023
		h-0.021h-1.199v20.17H41.754z"/>
</g>
<g id="HATCH_1_">
	<polygon points="27.409,54.23 21.042,66.214 55.958,66.214 49.592,54.23 	"/>
</g>
</svg>
