<?xml version="1.0" encoding="utf-8"?>
<!-- Generator: Adobe Illustrator 16.0.0, SVG Export Plug-In . SVG Version: 6.00 Build 0)  -->
<!DOCTYPE svg PUBLIC "-//W3C//DTD SVG 1.1//EN" "http://www.w3.org/Graphics/SVG/1.1/DTD/svg11.dtd">
<svg version="1.1" xmlns="http://www.w3.org/2000/svg" xmlns:xlink="http://www.w3.org/1999/xlink" x="0px" y="0px" width="75px"
	 height="75px" viewBox="0 0 75 75" enable-background="new 0 0 75 75" xml:space="preserve">
<g id="Layer_1">
</g>
<g id="Fill">
	<g id="HATCH_39_">
		<polygon fill-rule="evenodd" clip-rule="evenodd" points="13.777,33.228 13.893,33.228 14.011,33.24 14.106,33.24 14.225,33.251 
			14.32,33.263 14.439,33.275 14.534,33.299 14.652,33.323 14.744,33.334 14.839,33.37 14.958,33.394 15.053,33.418 15.148,33.452 
			15.243,33.487 15.362,33.523 15.457,33.57 15.552,33.606 15.644,33.654 15.715,33.701 15.81,33.749 15.905,33.796 16,33.844 
			16.095,33.903 16.166,33.961 16.261,34.02 16.332,34.08 16.427,34.139 16.499,34.198 16.566,34.27 16.662,34.341 16.732,34.41 
			16.804,34.481 16.875,34.553 16.946,34.624 17.018,34.707 17.065,34.778 17.136,34.86 17.208,34.943 17.255,35.026 17.327,35.109 
			17.374,35.192 17.445,35.288 17.489,35.369 17.537,35.464 17.584,35.547 17.632,35.642 17.679,35.735 17.703,35.831 17.75,35.925 
			17.798,36.032 17.822,36.127 17.87,36.221 17.893,36.328 17.917,36.423 17.941,36.529 17.964,36.636 17.988,36.742 18.012,36.849 
			18.012,36.956 18.036,37.062 18.036,37.167 18.036,37.274 18.06,37.381 18.06,37.488 18.06,37.605 18.036,37.712 18.036,37.819 
			18.036,37.926 18.012,38.033 18.012,38.138 17.988,38.245 17.964,38.352 17.941,38.459 17.917,38.563 17.893,38.659 17.87,38.766 
			17.822,38.86 17.798,38.956 17.75,39.061 17.703,39.156 17.679,39.251 17.632,39.346 17.584,39.439 17.537,39.522 17.489,39.617 
			17.445,39.7 17.374,39.796 17.327,39.879 17.255,39.96 17.208,40.043 17.136,40.127 17.065,40.21 17.018,40.281 16.946,40.362 
			16.875,40.434 16.804,40.505 16.732,40.576 16.662,40.647 16.566,40.719 16.499,40.79 16.427,40.848 16.332,40.907 16.261,40.967 
			16.166,41.025 16.095,41.085 16,41.145 15.905,41.192 15.81,41.239 15.715,41.285 15.644,41.333 15.552,41.38 15.457,41.416 
			15.362,41.464 15.243,41.499 15.148,41.535 15.053,41.57 14.958,41.594 14.839,41.618 14.744,41.653 14.652,41.665 14.534,41.689 
			14.439,41.713 14.32,41.725 14.225,41.735 14.106,41.747 14.011,41.747 13.893,41.759 13.777,41.759 13.682,41.759 13.563,41.747 
			13.468,41.747 13.35,41.735 13.254,41.725 13.136,41.713 13.041,41.689 12.922,41.665 12.83,41.653 12.711,41.618 12.617,41.594 
			12.521,41.57 12.426,41.535 12.332,41.499 12.213,41.464 12.118,41.416 12.022,41.38 11.931,41.333 11.86,41.285 11.765,41.239 
			11.67,41.192 11.575,41.145 11.479,41.085 11.409,41.025 11.313,40.967 11.242,40.907 11.147,40.848 11.076,40.79 11.008,40.719 
			10.913,40.647 10.842,40.576 10.771,40.505 10.699,40.434 10.628,40.362 10.557,40.281 10.509,40.21 10.438,40.127 10.367,40.043 
			10.319,39.96 10.248,39.879 10.2,39.796 10.129,39.7 10.085,39.617 10.038,39.522 9.99,39.439 9.942,39.346 9.895,39.251 
			9.871,39.156 9.824,39.061 9.776,38.956 9.752,38.86 9.705,38.766 9.681,38.659 9.658,38.563 9.634,38.459 9.61,38.352 
			9.586,38.245 9.562,38.138 9.562,38.033 9.539,37.926 9.539,37.819 9.539,37.712 9.515,37.605 9.515,37.488 9.515,37.381 
			9.539,37.274 9.539,37.167 9.539,37.062 9.562,36.956 9.562,36.849 9.586,36.742 9.61,36.636 9.634,36.529 9.658,36.423 
			9.681,36.328 9.705,36.221 9.752,36.127 9.776,36.032 9.824,35.925 9.871,35.831 9.895,35.735 9.942,35.642 9.99,35.547 
			10.038,35.464 10.085,35.369 10.129,35.288 10.2,35.192 10.248,35.109 10.319,35.026 10.367,34.943 10.438,34.86 10.509,34.778 
			10.557,34.707 10.628,34.624 10.699,34.553 10.771,34.481 10.842,34.41 10.913,34.341 11.008,34.27 11.076,34.198 11.147,34.139 
			11.242,34.08 11.313,34.02 11.409,33.961 11.479,33.903 11.575,33.844 11.67,33.796 11.765,33.749 11.86,33.701 11.931,33.654 
			12.022,33.606 12.118,33.57 12.213,33.523 12.332,33.487 12.426,33.452 12.521,33.418 12.617,33.394 12.711,33.37 12.83,33.334 
			12.922,33.323 13.041,33.299 13.136,33.275 13.254,33.263 13.35,33.251 13.468,33.24 13.563,33.24 13.682,33.228 		"/>
	</g>
	<g id="HATCH_40_">
		<polygon fill-rule="evenodd" clip-rule="evenodd" points="13.777,17.478 13.893,17.478 14.011,17.489 14.106,17.489 
			14.225,17.501 14.32,17.513 14.439,17.525 14.534,17.549 14.652,17.561 14.744,17.584 14.839,17.608 14.958,17.644 15.053,17.667 
			15.148,17.703 15.243,17.739 15.362,17.774 15.457,17.809 15.552,17.856 15.644,17.903 15.715,17.951 15.81,17.999 15.905,18.046 
			16,18.093 16.095,18.153 16.166,18.212 16.261,18.27 16.332,18.329 16.427,18.389 16.499,18.448 16.566,18.519 16.662,18.59 
			16.732,18.662 16.804,18.731 16.875,18.803 16.946,18.874 17.018,18.957 17.065,19.028 17.136,19.111 17.208,19.193 
			17.255,19.276 17.327,19.359 17.374,19.442 17.445,19.537 17.489,19.619 17.537,19.714 17.584,19.797 17.632,19.892 
			17.679,19.987 17.703,20.08 17.75,20.175 17.798,20.282 17.822,20.377 17.87,20.472 17.893,20.577 17.917,20.672 17.941,20.779 
			17.964,20.886 17.988,20.991 18.012,21.098 18.012,21.205 18.036,21.312 18.036,21.419 18.036,21.524 18.06,21.631 18.06,21.738 
			18.06,21.856 18.036,21.962 18.036,22.069 18.036,22.176 18.012,22.283 18.012,22.388 17.988,22.495 17.964,22.602 17.941,22.708 
			17.917,22.803 17.893,22.909 17.87,23.016 17.822,23.11 17.798,23.206 17.75,23.311 17.703,23.406 17.679,23.5 17.632,23.596 
			17.584,23.679 17.537,23.772 17.489,23.867 17.445,23.95 17.374,24.045 17.327,24.128 17.255,24.211 17.208,24.293 17.136,24.376 
			17.065,24.459 17.018,24.531 16.946,24.614 16.875,24.683 16.804,24.754 16.732,24.826 16.662,24.897 16.566,24.968 
			16.499,25.028 16.427,25.099 16.332,25.157 16.261,25.216 16.166,25.275 16.095,25.335 16,25.394 15.905,25.442 15.81,25.489 
			15.715,25.537 15.644,25.584 15.552,25.63 15.457,25.666 15.362,25.713 15.243,25.749 15.148,25.785 15.053,25.82 14.958,25.844 
			14.839,25.868 14.744,25.903 14.652,25.915 14.534,25.939 14.439,25.962 14.32,25.975 14.225,25.986 14.106,25.998 14.011,25.998 
			13.893,26.01 13.777,26.01 13.682,26.01 13.563,25.998 13.468,25.998 13.35,25.986 13.254,25.975 13.136,25.962 13.041,25.939 
			12.922,25.915 12.83,25.903 12.711,25.868 12.617,25.844 12.521,25.82 12.426,25.785 12.332,25.749 12.213,25.713 12.118,25.666 
			12.022,25.63 11.931,25.584 11.86,25.537 11.765,25.489 11.67,25.442 11.575,25.394 11.479,25.335 11.409,25.275 11.313,25.216 
			11.242,25.157 11.147,25.099 11.076,25.028 11.008,24.968 10.913,24.897 10.842,24.826 10.771,24.754 10.699,24.683 
			10.628,24.614 10.557,24.531 10.509,24.459 10.438,24.376 10.367,24.293 10.319,24.211 10.248,24.128 10.2,24.045 10.129,23.95 
			10.085,23.867 10.038,23.772 9.99,23.679 9.942,23.596 9.895,23.5 9.871,23.406 9.824,23.311 9.776,23.206 9.752,23.11 
			9.705,23.016 9.681,22.909 9.658,22.803 9.634,22.708 9.61,22.602 9.586,22.495 9.562,22.388 9.562,22.283 9.539,22.176 
			9.539,22.069 9.539,21.962 9.515,21.856 9.515,21.738 9.515,21.631 9.539,21.524 9.539,21.419 9.539,21.312 9.562,21.205 
			9.562,21.098 9.586,20.991 9.61,20.886 9.634,20.779 9.658,20.672 9.681,20.577 9.705,20.472 9.752,20.377 9.776,20.282 
			9.824,20.175 9.871,20.08 9.895,19.987 9.942,19.892 9.99,19.797 10.038,19.714 10.085,19.619 10.129,19.537 10.2,19.442 
			10.248,19.359 10.319,19.276 10.367,19.193 10.438,19.111 10.509,19.028 10.557,18.957 10.628,18.874 10.699,18.803 
			10.771,18.731 10.842,18.662 10.913,18.59 11.008,18.519 11.076,18.448 11.147,18.389 11.242,18.329 11.313,18.27 11.409,18.212 
			11.479,18.153 11.575,18.093 11.67,18.046 11.765,17.999 11.86,17.951 11.931,17.903 12.022,17.856 12.118,17.809 12.213,17.774 
			12.332,17.739 12.426,17.703 12.521,17.667 12.617,17.644 12.711,17.608 12.83,17.584 12.922,17.561 13.041,17.549 13.136,17.525 
			13.254,17.513 13.35,17.501 13.468,17.489 13.563,17.489 13.682,17.478 		"/>
	</g>
	<g id="HATCH_41_">
		<polygon fill-rule="evenodd" clip-rule="evenodd" points="13.777,48.979 13.893,48.979 14.011,48.99 14.106,48.99 14.225,49 
			14.32,49.014 14.439,49.027 14.534,49.048 14.652,49.075 14.744,49.085 14.839,49.119 14.958,49.143 15.053,49.166 15.148,49.204 
			15.243,49.237 15.362,49.271 15.457,49.319 15.552,49.356 15.644,49.404 15.715,49.451 15.81,49.499 15.905,49.547 16,49.591 
			16.095,49.651 16.166,49.713 16.261,49.771 16.332,49.828 16.427,49.889 16.499,49.96 16.566,50.019 16.662,50.09 16.732,50.16 
			16.804,50.231 16.875,50.303 16.946,50.374 17.018,50.459 17.065,50.527 17.136,50.608 17.208,50.693 17.255,50.778 
			17.327,50.859 17.374,50.941 17.445,51.036 17.489,51.117 17.537,51.213 17.584,51.308 17.632,51.393 17.679,51.484 
			17.703,51.579 17.75,51.688 17.798,51.782 17.822,51.878 17.87,51.973 17.893,52.078 17.917,52.183 17.941,52.278 17.964,52.387 
			17.988,52.492 18.012,52.597 18.012,52.706 18.036,52.811 18.036,52.916 18.036,53.024 18.06,53.133 18.06,53.249 18.06,53.357 
			18.036,53.462 18.036,53.567 18.036,53.676 18.012,53.781 18.012,53.887 17.988,53.995 17.964,54.104 17.941,54.205 
			17.917,54.314 17.893,54.409 17.87,54.518 17.822,54.612 17.798,54.704 17.75,54.81 17.703,54.904 17.679,55 17.632,55.095 
			17.584,55.189 17.537,55.271 17.489,55.366 17.445,55.451 17.374,55.546 17.327,55.627 17.255,55.712 17.208,55.794 
			17.136,55.875 17.065,55.96 17.018,56.031 16.946,56.112 16.875,56.184 16.804,56.255 16.732,56.326 16.662,56.397 16.566,56.469 
			16.499,56.54 16.427,56.598 16.332,56.655 16.261,56.717 16.166,56.777 16.095,56.835 16,56.893 15.905,56.94 15.81,56.988 
			15.715,57.035 15.644,57.083 15.552,57.131 15.457,57.178 15.362,57.212 15.243,57.249 15.148,57.287 15.053,57.32 14.958,57.345 
			14.839,57.368 14.744,57.402 14.652,57.416 14.534,57.436 14.439,57.463 14.32,57.474 14.225,57.483 14.106,57.497 14.011,57.497 
			13.893,57.511 13.777,57.511 13.682,57.511 13.563,57.497 13.468,57.497 13.35,57.483 13.254,57.474 13.136,57.463 13.041,57.436 
			12.922,57.416 12.83,57.402 12.711,57.368 12.617,57.345 12.521,57.32 12.426,57.287 12.332,57.249 12.213,57.212 12.118,57.178 
			12.022,57.131 11.931,57.083 11.86,57.035 11.765,56.988 11.67,56.94 11.575,56.893 11.479,56.835 11.409,56.777 11.313,56.717 
			11.242,56.655 11.147,56.598 11.076,56.54 11.008,56.469 10.913,56.397 10.842,56.326 10.771,56.255 10.699,56.184 10.628,56.112 
			10.557,56.031 10.509,55.96 10.438,55.875 10.367,55.794 10.319,55.712 10.248,55.627 10.2,55.546 10.129,55.451 10.085,55.366 
			10.038,55.271 9.99,55.189 9.942,55.095 9.895,55 9.871,54.904 9.824,54.81 9.776,54.704 9.752,54.612 9.705,54.518 9.681,54.409 
			9.658,54.314 9.634,54.205 9.61,54.104 9.586,53.995 9.562,53.887 9.562,53.781 9.539,53.676 9.539,53.567 9.539,53.462 
			9.515,53.357 9.515,53.249 9.515,53.133 9.539,53.024 9.539,52.916 9.539,52.811 9.562,52.706 9.562,52.597 9.586,52.492 
			9.61,52.387 9.634,52.278 9.658,52.183 9.681,52.078 9.705,51.973 9.752,51.878 9.776,51.782 9.824,51.688 9.871,51.579 
			9.895,51.484 9.942,51.393 9.99,51.308 10.038,51.213 10.085,51.117 10.129,51.036 10.2,50.941 10.248,50.859 10.319,50.778 
			10.367,50.693 10.438,50.608 10.509,50.527 10.557,50.459 10.628,50.374 10.699,50.303 10.771,50.231 10.842,50.16 10.913,50.09 
			11.008,50.019 11.076,49.96 11.147,49.889 11.242,49.828 11.313,49.771 11.409,49.713 11.479,49.651 11.575,49.591 11.67,49.547 
			11.765,49.499 11.86,49.451 11.931,49.404 12.022,49.356 12.118,49.319 12.213,49.271 12.332,49.237 12.426,49.204 12.521,49.166 
			12.617,49.143 12.711,49.119 12.83,49.085 12.922,49.075 13.041,49.048 13.136,49.027 13.254,49.014 13.35,49 13.468,48.99 
			13.563,48.99 13.682,48.979 		"/>
	</g>
	<g id="HATCH_42_">
		<polygon fill-rule="evenodd" clip-rule="evenodd" points="26.58,48.979 61.227,48.979 61.321,48.979 61.44,48.99 61.535,48.99 
			61.654,49 61.745,49.014 61.864,49.027 61.959,49.048 62.078,49.075 62.173,49.085 62.292,49.119 62.387,49.143 62.481,49.166 
			62.577,49.204 62.669,49.237 62.787,49.271 62.882,49.319 62.978,49.356 63.072,49.404 63.167,49.451 63.238,49.499 
			63.334,49.547 63.429,49.591 63.523,49.651 63.592,49.713 63.687,49.771 63.758,49.828 63.853,49.889 63.924,49.96 63.995,50.019 
			64.091,50.09 64.161,50.16 64.232,50.231 64.304,50.303 64.375,50.374 64.446,50.459 64.515,50.527 64.562,50.608 64.633,50.693 
			64.681,50.778 64.752,50.859 64.8,50.941 64.871,51.036 64.918,51.117 64.966,51.213 65.014,51.308 65.061,51.393 65.108,51.484 
			65.156,51.579 65.18,51.688 65.228,51.782 65.251,51.878 65.299,51.973 65.322,52.078 65.346,52.183 65.37,52.278 65.394,52.387 
			65.417,52.492 65.438,52.597 65.438,52.706 65.461,52.811 65.461,52.916 65.461,53.024 65.485,53.133 65.485,53.249 
			65.485,53.357 65.461,53.462 65.461,53.567 65.461,53.676 65.438,53.781 65.438,53.887 65.417,53.995 65.394,54.104 65.37,54.205 
			65.346,54.314 65.322,54.409 65.299,54.518 65.251,54.612 65.228,54.704 65.18,54.81 65.156,54.904 65.108,55 65.061,55.095 
			65.014,55.189 64.966,55.271 64.918,55.366 64.871,55.451 64.8,55.546 64.752,55.627 64.681,55.712 64.633,55.794 64.562,55.875 
			64.515,55.96 64.446,56.031 64.375,56.112 64.304,56.184 64.232,56.255 64.161,56.326 64.091,56.397 63.995,56.469 63.924,56.54 
			63.853,56.598 63.758,56.655 63.687,56.717 63.592,56.777 63.523,56.835 63.429,56.893 63.334,56.94 63.238,56.988 63.167,57.035 
			63.072,57.083 62.978,57.131 62.882,57.178 62.787,57.212 62.669,57.249 62.577,57.287 62.481,57.32 62.387,57.345 62.292,57.368 
			62.173,57.402 62.078,57.416 61.959,57.436 61.864,57.463 61.745,57.474 61.654,57.483 61.535,57.497 61.44,57.497 61.321,57.511 
			61.227,57.511 26.58,57.511 26.461,57.511 26.366,57.497 26.248,57.497 26.129,57.483 26.034,57.474 25.915,57.463 25.82,57.436 
			25.729,57.416 25.61,57.402 25.515,57.368 25.419,57.345 25.301,57.32 25.206,57.287 25.111,57.249 25.016,57.212 24.921,57.178 
			24.829,57.131 24.734,57.083 24.639,57.035 24.544,56.988 24.449,56.94 24.378,56.893 24.283,56.835 24.188,56.777 24.117,56.717 
			24.021,56.655 23.95,56.598 23.859,56.54 23.788,56.469 23.716,56.397 23.645,56.326 23.574,56.255 23.502,56.184 23.431,56.112 
			23.36,56.031 23.289,55.96 23.217,55.875 23.17,55.794 23.099,55.712 23.051,55.627 22.983,55.546 22.936,55.451 22.888,55.366 
			22.841,55.271 22.77,55.189 22.746,55.095 22.698,55 22.651,54.904 22.603,54.81 22.58,54.704 22.532,54.612 22.508,54.518 
			22.484,54.409 22.437,54.314 22.413,54.205 22.389,54.104 22.389,53.995 22.366,53.887 22.342,53.781 22.342,53.676 
			22.318,53.567 22.318,53.462 22.318,53.357 22.318,53.249 22.318,53.133 22.318,53.024 22.318,52.916 22.342,52.811 
			22.342,52.706 22.366,52.597 22.389,52.492 22.389,52.387 22.413,52.278 22.437,52.183 22.484,52.078 22.508,51.973 
			22.532,51.878 22.58,51.782 22.603,51.688 22.651,51.579 22.698,51.484 22.746,51.393 22.77,51.308 22.841,51.213 22.888,51.117 
			22.936,51.036 22.983,50.941 23.051,50.859 23.099,50.778 23.17,50.693 23.217,50.608 23.289,50.527 23.36,50.459 23.431,50.374 
			23.502,50.303 23.574,50.231 23.645,50.16 23.716,50.09 23.788,50.019 23.859,49.96 23.95,49.889 24.021,49.828 24.117,49.771 
			24.188,49.713 24.283,49.651 24.378,49.591 24.449,49.547 24.544,49.499 24.639,49.451 24.734,49.404 24.829,49.356 
			24.921,49.319 25.016,49.271 25.111,49.237 25.206,49.204 25.301,49.166 25.419,49.143 25.515,49.119 25.61,49.085 25.729,49.075 
			25.82,49.048 25.915,49.027 26.034,49.014 26.129,49 26.248,48.99 26.366,48.99 26.461,48.979 		"/>
	</g>
	<g id="HATCH_43_">
		<polygon fill-rule="evenodd" clip-rule="evenodd" points="26.58,17.478 61.227,17.478 61.321,17.478 61.44,17.489 61.535,17.489 
			61.654,17.501 61.745,17.513 61.864,17.525 61.959,17.549 62.078,17.561 62.173,17.584 62.292,17.608 62.387,17.644 
			62.481,17.667 62.577,17.703 62.669,17.739 62.787,17.774 62.882,17.809 62.978,17.856 63.072,17.903 63.167,17.951 
			63.238,17.999 63.334,18.046 63.429,18.093 63.523,18.153 63.592,18.212 63.687,18.27 63.758,18.329 63.853,18.389 63.924,18.448 
			63.995,18.519 64.091,18.59 64.161,18.662 64.232,18.731 64.304,18.803 64.375,18.874 64.446,18.957 64.515,19.028 64.562,19.111 
			64.633,19.193 64.681,19.276 64.752,19.359 64.8,19.442 64.871,19.537 64.918,19.619 64.966,19.714 65.014,19.797 65.061,19.892 
			65.108,19.987 65.156,20.08 65.18,20.175 65.228,20.282 65.251,20.377 65.299,20.472 65.322,20.577 65.346,20.672 65.37,20.779 
			65.394,20.886 65.417,20.991 65.438,21.098 65.438,21.205 65.461,21.312 65.461,21.419 65.461,21.524 65.485,21.631 
			65.485,21.738 65.485,21.856 65.461,21.962 65.461,22.069 65.461,22.176 65.438,22.283 65.438,22.388 65.417,22.495 
			65.394,22.602 65.37,22.708 65.346,22.803 65.322,22.909 65.299,23.016 65.251,23.11 65.228,23.206 65.18,23.311 65.156,23.406 
			65.108,23.5 65.061,23.596 65.014,23.679 64.966,23.772 64.918,23.867 64.871,23.95 64.8,24.045 64.752,24.128 64.681,24.211 
			64.633,24.293 64.562,24.376 64.515,24.459 64.446,24.531 64.375,24.614 64.304,24.683 64.232,24.754 64.161,24.826 
			64.091,24.897 63.995,24.968 63.924,25.028 63.853,25.099 63.758,25.157 63.687,25.216 63.592,25.275 63.523,25.335 
			63.429,25.394 63.334,25.442 63.238,25.489 63.167,25.537 63.072,25.584 62.978,25.63 62.882,25.666 62.787,25.713 62.669,25.749 
			62.577,25.785 62.481,25.82 62.387,25.844 62.292,25.868 62.173,25.903 62.078,25.915 61.959,25.939 61.864,25.962 61.745,25.975 
			61.654,25.986 61.535,25.998 61.44,25.998 61.321,26.01 61.227,26.01 26.58,26.01 26.461,26.01 26.366,25.998 26.248,25.998 
			26.129,25.986 26.034,25.975 25.915,25.962 25.82,25.939 25.729,25.915 25.61,25.903 25.515,25.868 25.419,25.844 25.301,25.82 
			25.206,25.785 25.111,25.749 25.016,25.713 24.921,25.666 24.829,25.63 24.734,25.584 24.639,25.537 24.544,25.489 24.449,25.442 
			24.378,25.394 24.283,25.335 24.188,25.275 24.117,25.216 24.021,25.157 23.95,25.099 23.859,25.028 23.788,24.968 23.716,24.897 
			23.645,24.826 23.574,24.754 23.502,24.683 23.431,24.614 23.36,24.531 23.289,24.459 23.217,24.376 23.17,24.293 23.099,24.211 
			23.051,24.128 22.983,24.045 22.936,23.95 22.888,23.867 22.841,23.772 22.77,23.679 22.746,23.596 22.698,23.5 22.651,23.406 
			22.603,23.311 22.58,23.206 22.532,23.11 22.508,23.016 22.484,22.909 22.437,22.803 22.413,22.708 22.389,22.602 22.389,22.495 
			22.366,22.388 22.342,22.283 22.342,22.176 22.318,22.069 22.318,21.962 22.318,21.856 22.318,21.738 22.318,21.631 
			22.318,21.524 22.318,21.419 22.342,21.312 22.342,21.205 22.366,21.098 22.389,20.991 22.389,20.886 22.413,20.779 
			22.437,20.672 22.484,20.577 22.508,20.472 22.532,20.377 22.58,20.282 22.603,20.175 22.651,20.08 22.698,19.987 22.746,19.892 
			22.77,19.797 22.841,19.714 22.888,19.619 22.936,19.537 22.983,19.442 23.051,19.359 23.099,19.276 23.17,19.193 23.217,19.111 
			23.289,19.028 23.36,18.957 23.431,18.874 23.502,18.803 23.574,18.731 23.645,18.662 23.716,18.59 23.788,18.519 23.859,18.448 
			23.95,18.389 24.021,18.329 24.117,18.27 24.188,18.212 24.283,18.153 24.378,18.093 24.449,18.046 24.544,17.999 24.639,17.951 
			24.734,17.903 24.829,17.856 24.921,17.809 25.016,17.774 25.111,17.739 25.206,17.703 25.301,17.667 25.419,17.644 
			25.515,17.608 25.61,17.584 25.729,17.561 25.82,17.549 25.915,17.525 26.034,17.513 26.129,17.501 26.248,17.489 26.366,17.489 
			26.461,17.478 		"/>
	</g>
	<g id="HATCH_44_">
		<polygon fill-rule="evenodd" clip-rule="evenodd" points="26.58,33.228 61.227,33.228 61.321,33.228 61.44,33.24 61.535,33.24 
			61.654,33.251 61.745,33.263 61.864,33.275 61.959,33.299 62.078,33.323 62.173,33.334 62.292,33.37 62.387,33.394 62.481,33.418 
			62.577,33.452 62.669,33.487 62.787,33.523 62.882,33.57 62.978,33.606 63.072,33.654 63.167,33.701 63.238,33.749 63.334,33.796 
			63.429,33.844 63.523,33.903 63.592,33.961 63.687,34.02 63.758,34.08 63.853,34.139 63.924,34.198 63.995,34.27 64.091,34.341 
			64.161,34.41 64.232,34.481 64.304,34.553 64.375,34.624 64.446,34.707 64.515,34.778 64.562,34.86 64.633,34.943 64.681,35.026 
			64.752,35.109 64.8,35.192 64.871,35.288 64.918,35.369 64.966,35.464 65.014,35.547 65.061,35.642 65.108,35.735 65.156,35.831 
			65.18,35.925 65.228,36.032 65.251,36.127 65.299,36.221 65.322,36.328 65.346,36.423 65.37,36.529 65.394,36.636 65.417,36.742 
			65.438,36.849 65.438,36.956 65.461,37.062 65.461,37.167 65.461,37.274 65.485,37.381 65.485,37.488 65.485,37.605 
			65.461,37.712 65.461,37.819 65.461,37.926 65.438,38.033 65.438,38.138 65.417,38.245 65.394,38.352 65.37,38.459 65.346,38.563 
			65.322,38.659 65.299,38.766 65.251,38.86 65.228,38.956 65.18,39.061 65.156,39.156 65.108,39.251 65.061,39.346 65.014,39.439 
			64.966,39.522 64.918,39.617 64.871,39.7 64.8,39.796 64.752,39.879 64.681,39.96 64.633,40.043 64.562,40.127 64.515,40.21 
			64.446,40.281 64.375,40.362 64.304,40.434 64.232,40.505 64.161,40.576 64.091,40.647 63.995,40.719 63.924,40.79 63.853,40.848 
			63.758,40.907 63.687,40.967 63.592,41.025 63.523,41.085 63.429,41.145 63.334,41.192 63.238,41.239 63.167,41.285 
			63.072,41.333 62.978,41.38 62.882,41.416 62.787,41.464 62.669,41.499 62.577,41.535 62.481,41.57 62.387,41.594 62.292,41.618 
			62.173,41.653 62.078,41.665 61.959,41.689 61.864,41.713 61.745,41.725 61.654,41.735 61.535,41.747 61.44,41.747 61.321,41.759 
			61.227,41.759 26.58,41.759 26.461,41.759 26.366,41.747 26.248,41.747 26.129,41.735 26.034,41.725 25.915,41.713 25.82,41.689 
			25.729,41.665 25.61,41.653 25.515,41.618 25.419,41.594 25.301,41.57 25.206,41.535 25.111,41.499 25.016,41.464 24.921,41.416 
			24.829,41.38 24.734,41.333 24.639,41.285 24.544,41.239 24.449,41.192 24.378,41.145 24.283,41.085 24.188,41.025 24.117,40.967 
			24.021,40.907 23.95,40.848 23.859,40.79 23.788,40.719 23.716,40.647 23.645,40.576 23.574,40.505 23.502,40.434 23.431,40.362 
			23.36,40.281 23.289,40.21 23.217,40.127 23.17,40.043 23.099,39.96 23.051,39.879 22.983,39.796 22.936,39.7 22.888,39.617 
			22.841,39.522 22.77,39.439 22.746,39.346 22.698,39.251 22.651,39.156 22.603,39.061 22.58,38.956 22.532,38.86 22.508,38.766 
			22.484,38.659 22.437,38.563 22.413,38.459 22.389,38.352 22.389,38.245 22.366,38.138 22.342,38.033 22.342,37.926 
			22.318,37.819 22.318,37.712 22.318,37.605 22.318,37.488 22.318,37.381 22.318,37.274 22.318,37.167 22.342,37.062 
			22.342,36.956 22.366,36.849 22.389,36.742 22.389,36.636 22.413,36.529 22.437,36.423 22.484,36.328 22.508,36.221 
			22.532,36.127 22.58,36.032 22.603,35.925 22.651,35.831 22.698,35.735 22.746,35.642 22.77,35.547 22.841,35.464 22.888,35.369 
			22.936,35.288 22.983,35.192 23.051,35.109 23.099,35.026 23.17,34.943 23.217,34.86 23.289,34.778 23.36,34.707 23.431,34.624 
			23.502,34.553 23.574,34.481 23.645,34.41 23.716,34.341 23.788,34.27 23.859,34.198 23.95,34.139 24.021,34.08 24.117,34.02 
			24.188,33.961 24.283,33.903 24.378,33.844 24.449,33.796 24.544,33.749 24.639,33.701 24.734,33.654 24.829,33.606 24.921,33.57 
			25.016,33.523 25.111,33.487 25.206,33.452 25.301,33.418 25.419,33.394 25.515,33.37 25.61,33.334 25.729,33.323 25.82,33.299 
			25.915,33.275 26.034,33.263 26.129,33.251 26.248,33.24 26.366,33.24 26.461,33.228 		"/>
	</g>
</g>
<g id="Outline">
</g>
<g id="Frame">
</g>
</svg>
