<?xml version="1.0" encoding="utf-8"?>
<!-- Generator: Adobe Illustrator 16.0.0, SVG Export Plug-In . SVG Version: 6.00 Build 0)  -->
<!DOCTYPE svg PUBLIC "-//W3C//DTD SVG 1.1//EN" "http://www.w3.org/Graphics/SVG/1.1/DTD/svg11.dtd">
<svg version="1.1" id="Layer_1" xmlns="http://www.w3.org/2000/svg" xmlns:xlink="http://www.w3.org/1999/xlink" x="0px" y="0px"
	 width="77px" height="77px" viewBox="0 0 77 77" enable-background="new 0 0 77 77" xml:space="preserve">
<g id="Layer_1_1_">
</g>
<path d="M21.572,31.387c0-2.366-0.132-8.619,0.384-11.001c0.921-4.255,3.444-7.987,7.047-10.43
	c6.894-4.672,16.147-3.641,21.845,2.434c3,3.198,4.58,7.312,4.58,11.681c0,1.845,0,3.69,0,5.535c0,0.461,0,0.923,0,1.384
	c0,0.115,0,0.231,0,0.346c0,0.196,0.191,0.051,0.295,0.051c0.23,0,0.461,0,0.691,0c0.923,0,1.846,0,2.768,0c0.998,0,1.994,0,2.99,0
	c0.393,0,0.162,0.37,0.162,0.587c0,0.249,0,0.498,0,0.748c0,0.498,0,0.997,0,1.495c0,1.995,0,3.988,0,5.982
	c0,3.986,0,7.974,0,11.962c0,1.993,0,3.985,0,5.979c0,0.996,0,1.994,0,2.99c0,0.25,0,0.499,0,0.748c0,0.125,0,0.249,0,0.374
	c0,0.194-0.184,0.082-0.292,0.082c-0.499,0-0.997,0-1.495,0c-3.986,0-7.975,0-11.963,0c-7.975,0-15.949,0-23.924,0
	c-1.993,0-3.987,0-5.98,0c-0.998,0-1.994,0-2.991,0c-0.249,0-0.498,0-0.747,0c-0.109,0-0.276,0.086-0.276-0.099
	c0-0.125,0-0.25,0-0.375c0-0.497,0-0.995,0-1.493c0-3.988,0-7.976,0-11.963s0-7.976,0-11.961c0-0.998,0-1.994,0-2.991
	c0-0.498,0-0.997,0-1.495c0-0.216-0.204-0.57,0.177-0.57c0.25,0,0.499,0,0.748,0C17.585,31.387,19.578,31.387,21.572,31.387z
	 M38.5,31.387c3.218,0,6.436,0,9.652,0c0.805,0,1.609,0,2.414,0c0.225,0,0.066-0.42,0.066-0.535c0-0.202,0-0.402,0-0.604
	c0-0.403,0-0.805,0-1.207c0-1.609,0-3.218,0-4.827c0-6.819-5.224-12.38-12.134-12.38c-6.911,0-12.135,5.561-12.135,12.38
	c0,1.609,0,3.218,0,4.827c0,0.402,0,0.804,0,1.207c0,0.202,0,0.402,0,0.604c0,0.115-0.157,0.535,0.067,0.535
	c0.805,0,1.609,0,2.414,0C32.064,31.387,35.282,31.387,38.5,31.387z M36.103,53.032h4.793V38.5h-4.793V53.032z"/>
</svg>
