<?xml version="1.0" encoding="utf-8"?>
<!-- Generator: Adobe Illustrator 16.0.0, SVG Export Plug-In . SVG Version: 6.00 Build 0)  -->
<!DOCTYPE svg PUBLIC "-//W3C//DTD SVG 1.1//EN" "http://www.w3.org/Graphics/SVG/1.1/DTD/svg11.dtd">
<svg version="1.1" id="Layer_1" xmlns="http://www.w3.org/2000/svg" xmlns:xlink="http://www.w3.org/1999/xlink" x="0px" y="0px"
	 width="77px" height="77px" viewBox="0 0 77 77" enable-background="new 0 0 77 77" xml:space="preserve">
<g id="Layer_1_1_">
</g>
<path d="M50.634,23.97c0-5.743-4.018-10.694-9.637-11.875c-5.571-1.171-11.174,1.659-13.537,6.838
	c-0.446,0.978-0.75,1.971-0.928,3.031c-0.083,0.495-0.135,0.991-0.156,1.493c-0.005,0.121-0.009,0.242-0.01,0.364
	c-0.002,0.189-0.153,0.15-0.283,0.15c-0.32,0-0.64,0-0.96,0c-0.64,0-1.279,0-1.919,0c-0.32,0-0.64,0-0.96,0c-0.16,0-0.32,0-0.479,0
	c-0.071,0-0.193,0.079-0.193-0.051c0-0.084,0.001-0.168,0.002-0.252c0.026-1.432,0.224-2.806,0.604-4.186
	c1.667-6.064,6.559-10.704,12.702-12.048c5.503-1.205,11.213,0.392,15.293,4.276c2.208,2.103,3.624,4.396,4.517,7.312
	c0.773,2.534,0.738,5.04,0.738,7.614c0,1.372,0,2.744,0,4.115c0,0.172,0,0.343,0,0.514c0,0.262,0.243,0.123,0.393,0.123
	c0.343,0,0.686,0,1.029,0c0.686,0,1.371,0,2.058,0c0.686,0,1.372,0,2.058,0c0.344,0,0.686,0,1.028,0
	c0.153,0,0.342-0.055,0.342,0.173c0,0.172,0,0.343,0,0.515c0,1.372,0,2.743,0,4.115c0,5.487,0,10.974,0,16.459
	c0,2.744,0,5.488,0,8.23c0,0.344,0,0.686,0,1.028c0,0.606-0.121,0.426-0.604,0.426c-0.686,0-1.371,0-2.058,0
	c-1.372,0-2.743,0-4.114,0c-5.486,0-10.975,0-16.461,0c-5.487,0-10.974,0-16.46,0c-1.372,0-2.743,0-4.115,0
	c-0.686,0-1.372,0-2.058,0c-0.343,0-0.686,0-1.029,0c-0.298,0-0.768,0.252-0.768-0.261c0-2.744,0-5.487,0-8.23
	c0-5.486,0-10.974,0-16.461c0-1.372,0-2.743,0-4.115c0-0.343,0-0.686,0-1.028c0-0.191-0.181-0.854,0.177-0.854
	c0.686,0,1.372,0,2.058,0c2.743,0,5.487,0,8.23,0c5.487,0,10.974,0,16.461,0c2.743,0,5.486,0,8.229,0c0.172,0,0.343,0,0.515,0
	c0.086,0,0.172,0,0.257,0c0.145,0,0.041-0.14,0.041-0.216c0-0.343,0-0.687,0-1.029c0-0.686,0-1.372,0-2.058
	C50.634,26.713,50.634,25.34,50.634,23.97z M36.103,53.032h4.793V38.5h-4.793V53.032z"/>
</svg>
