<?xml version="1.0" encoding="utf-8"?>
<!-- Generator: Adobe Illustrator 16.0.0, SVG Export Plug-In . SVG Version: 6.00 Build 0)  -->
<!DOCTYPE svg PUBLIC "-//W3C//DTD SVG 1.1//EN" "http://www.w3.org/Graphics/SVG/1.1/DTD/svg11.dtd">
<svg version="1.1" xmlns="http://www.w3.org/2000/svg" xmlns:xlink="http://www.w3.org/1999/xlink" x="0px" y="0px"
	 width="73.037px" height="73.038px" viewBox="0 0 73.037 73.038" enable-background="new 0 0 73.037 73.038" xml:space="preserve">
<g id="Default">
	<path d="M167.304,28.526c0,11.989,0,23.979,0,35.968c0,1.331,0,2.664,0,3.996c-1.332-1.332-2.664-2.665-3.996-3.996
		c-1.332,1.331-2.664,2.664-3.997,3.996c-1.332-1.332-2.664-2.665-3.996-3.996c-1.332,1.331-2.665,2.664-3.997,3.996
		c-1.332-1.332-2.664-2.665-3.996-3.996c-1.333,1.331-2.665,2.664-3.997,3.996c-1.332-1.332-2.664-2.665-3.997-3.996
		c-1.332,1.331-2.664,2.664-3.996,3.996c-1.332-1.332-2.665-2.665-3.997-3.996c-1.332,1.331-2.664,2.664-3.996,3.996
		c-1.332-1.332-2.664-2.665-3.997-3.996c-1.332,1.331-2.664,2.664-3.997,3.996c0-1.332,0-2.665,0-3.996c0-11.99,0-23.979,0-35.968
		c0,0,0-23.979,23.979-23.979C167.304,4.547,167.304,28.526,167.304,28.526z M135.333,20.533c-3.311,0-5.994,2.684-5.994,5.995
		c0,3.311,2.684,5.995,5.994,5.995c3.31,0,5.994-2.684,5.994-5.995C141.328,23.216,138.644,20.533,135.333,20.533z M151.319,20.533
		c-3.31,0-5.994,2.684-5.994,5.995c0,3.311,2.684,5.995,5.994,5.995c3.312,0,5.996-2.684,5.996-5.995
		C157.314,23.216,154.63,20.533,151.319,20.533z"/>
</g>
<g id="_x30_" display="none">
	
		<rect x="0.236" y="106.572" display="inline" fill="none" stroke="#00FFFF" stroke-linecap="round" stroke-linejoin="round" width="73.037" height="73.037"/>
	
		<rect x="106.808" display="inline" fill="none" stroke="#00FFFF" stroke-linecap="round" stroke-linejoin="round" width="73.037" height="73.037"/>
	
		<rect x="106.808" y="106.572" display="inline" fill="none" stroke="#00FFFF" stroke-linecap="round" stroke-linejoin="round" width="73.037" height="73.037"/>
	
		<rect x="-212.909" y="213.145" display="inline" fill="none" stroke="#00FFFF" stroke-linecap="round" stroke-linejoin="round" width="73.037" height="73.038"/>
	
		<rect x="-106.337" y="213.145" display="inline" fill="none" stroke="#00FFFF" stroke-linecap="round" stroke-linejoin="round" width="73.037" height="73.038"/>
	
		<rect x="0.235" y="-106.041" display="inline" fill="none" stroke="#00FFFF" stroke-linecap="round" stroke-linejoin="round" width="73.038" height="73.038"/>
	
		<rect x="106.807" y="-106.041" display="inline" fill="none" stroke="#00FFFF" stroke-linecap="round" stroke-linejoin="round" width="73.038" height="73.038"/>
	
		<rect x="-106.337" y="-106.573" display="inline" fill="none" stroke="#00FFFF" stroke-linecap="round" stroke-linejoin="round" width="73.038" height="73.038"/>
	
		<rect x="-212.909" y="-106.573" display="inline" fill="none" stroke="#00FFFF" stroke-linecap="round" stroke-linejoin="round" width="73.037" height="73.038"/>
	
		<rect x="-212.909" display="inline" fill="none" stroke="#00FFFF" stroke-linecap="round" stroke-linejoin="round" width="73.037" height="73.037"/>
	
		<rect x="-106.337" y="106.572" display="inline" fill="none" stroke="#00FFFF" stroke-linecap="round" stroke-linejoin="round" width="73.038" height="73.037"/>
	
		<rect x="-212.909" y="106.572" display="inline" fill="none" stroke="#00FFFF" stroke-linecap="round" stroke-linejoin="round" width="73.038" height="73.037"/>
	
		<rect display="inline" fill="none" stroke="#00FFFF" stroke-linecap="round" stroke-linejoin="round" width="73.036" height="73.037"/>
	
		<rect x="-106.336" display="inline" fill="none" stroke="#00FFFF" stroke-linecap="round" stroke-linejoin="round" width="73.036" height="73.037"/>
</g>
<g id="Outline">
	<rect x="4.783" y="140.817" width="63.943" height="4.546"/>
	<polygon points="-67.544,145.363 -37.846,145.363 -37.846,140.817 -67.544,140.817 -67.544,111.119 -72.091,111.119 
		-72.091,140.817 -101.79,140.817 -101.79,145.363 -72.091,145.363 -72.091,175.062 -67.544,175.062 	"/>
	<polygon points="-59.39,270.659 -62.605,273.875 -86.816,249.662 -62.603,225.448 -59.387,228.663 -80.387,249.662 	"/>
	<polygon points="173.816,125.608 170.647,122.348 130.679,161.191 116.65,146.757 113.39,149.925 130.585,167.621 	"/>
	<polygon points="-186.819,270.659 -183.604,273.875 -159.392,249.662 -183.607,225.448 -186.822,228.663 -165.823,249.662 	"/>
	<path d="M-89.463-83.836h39.29l-7.151,40.045h-24.986L-89.463-83.836z M-95.101-89.546l9.189,51.464h32.186l9.19-51.464
		 M-83.602-100.962v5.709h27.567v-5.709H-83.602z M-95.161-89.546h25.343h25.341"/>
	<polygon points="-176.39,146.306 -197.39,167.306 -200.606,164.091 -179.605,143.091 -200.606,122.091 -197.39,118.876 
		-176.39,139.875 -155.391,118.876 -152.175,122.091 -173.175,143.091 -152.175,164.091 -155.391,167.306 	"/>
	<path d="M-144.419,22.967c0,11.698,0,23.398,0,35.097c0,1.324-1.075,2.397-2.399,2.397c-12.522,0-25.044,0-37.566,0
		c-3.596,0-7.193,0-10.791,0c-3.597,0-7.193,0-10.79,0c-1.323,0-2.398-1.073-2.398-2.397c0-14.364,0-28.726,0-43.089
		c0-1.323,1.074-2.398,2.398-2.398c5.314,0,10.628,0,15.942,0c0.671,0,1.276,0.279,1.711,0.723c0.005-0.002,0.009-0.002,0.014-0.005
		c2.09,2.425,4.179,4.851,6.269,7.274c11.738,0,23.475,0,35.211,0C-145.494,20.569-144.419,21.642-144.419,22.967z M-148.966,25.116
		h-35.147l-6.89-7.993h-12.813v38.791h54.85V25.116z"/>
	<path d="M34.48-64.627v-27.656h4.547v27.656l14.784-15.275l3.268,3.161L36.754-55.739L16.429-76.741l3.268-3.161L34.48-64.627z
		 M61.656-49.189H11.852v-20.334H7.304v24.882h58.899v-24.882h-4.547V-49.189z"/>
	<path d="M150.911-51.565c1.128,1.014,2.258,2.029,3.387,3.043c-3.657,3.657-7.315,7.315-10.972,10.972
		c-3.657-3.657-7.315-7.315-10.972-10.972c1.072-1.072,2.143-2.143,3.215-3.215c1.828,1.828,3.656,3.655,5.483,5.483
		c0-3.476,0-6.951,0-10.427c-4.595,0-9.189,0-13.784,0c-14.653,0-16.558-21.241-2.138-23.848
		c1.815-13.883,19.29-18.954,28.254-8.201c14.602-1.323,23.193,16.005,13.301,26.826c-3.387,3.704-6.832,5.223-11.85,5.223
		c-3.08,0-6.158,0-9.237,0c0,3.476,0,6.951,0,10.427c1.828-1.828,3.655-3.656,5.483-5.483 M150.512-85.005
		c-6.427-9.269-20.969-4.721-20.969,6.56c0,0.757,0,1.515,0,2.272c-0.757,0-1.515,0-2.273,0c-4.126,0-7.472,3.347-7.472,7.473
		c0,4.127,3.345,7.473,7.472,7.473c9.189,0,18.378,0,27.567,0c3.598,0,6.067-1.088,8.495-3.744
		c7.433-8.132,0.295-21.055-10.546-19.091c-0.481,0.085-0.96,0.173-1.44,0.26C151.068-84.203,150.789-84.604,150.512-85.005z"/>
	<path d="M-182.329-48.732l-21.051,5.641l5.622-20.978l37.892-37.893l15.382,15.383l-37.893,37.894l-0.027-0.027 M-191.329-64.067
		l8.952,8.952l31.461-31.462l-8.952-8.952L-191.329-64.067z M-196.949-49.521l10.831-2.904l-7.929-7.93L-196.949-49.521z"/>
	<path d="M-61.15,8.668l12.79,12.789v42.912h-42.914V8.668H-61.15z M-61.15,15.098v6.359h6.358L-61.15,15.098z M-52.909,59.821
		V26.004h-12.788V13.216h-21.031v46.604H-52.909z"/>
	<path d="M64.526,57.762H8.51V15.275h56.016V57.762z M59.979,50.1V22.889L45.924,36.404L59.979,50.1z M30.146,39.495l-13.84,13.721
		h40.355L42.646,39.557l-6.244,6.004L30.146,39.495z M33.376,36.292l3.039,2.948l2.972-2.858l-3.077-2.998L33.376,36.292z
		 M26.881,36.329L13.057,22.921v27.112L26.881,36.329z M42.667,33.228l13.942-13.406H16.393l13.718,13.304l6.171-6.117
		L42.667,33.228z"/>
</g>
</svg>
