<?xml version="1.0" encoding="utf-8"?>
<!-- Generator: Adobe Illustrator 16.0.0, SVG Export Plug-In . SVG Version: 6.00 Build 0)  -->
<!DOCTYPE svg PUBLIC "-//W3C//DTD SVG 1.1//EN" "http://www.w3.org/Graphics/SVG/1.1/DTD/svg11.dtd">
<svg version="1.1" id="Layer_1" xmlns="http://www.w3.org/2000/svg" xmlns:xlink="http://www.w3.org/1999/xlink" x="0px" y="0px"
	 width="76.958px" height="76.958px" viewBox="0 0 76.958 76.958" enable-background="new 0 0 76.958 76.958" xml:space="preserve">
<path d="M62.814,42.854c-16.224,0-32.449,0-48.673,0c-2.415,0-4.375-1.957-4.375-4.375s1.96-4.375,4.375-4.375
	c16.224,0,32.449,0,48.673,0c2.415,0,4.375,1.957,4.375,4.375S65.229,42.854,62.814,42.854z"/>
<path d="M62.814,26.691c-16.224,0-32.449,0-48.673,0c-2.415,0-4.375-1.959-4.375-4.375c0-2.418,1.96-4.376,4.375-4.376
	c16.224,0,32.449,0,48.673,0c2.415,0,4.375,1.958,4.375,4.376C67.189,24.731,65.229,26.691,62.814,26.691z"/>
<path d="M62.814,59.017c-16.224,0-32.449,0-48.673,0c-2.415,0-4.375-1.957-4.375-4.375c0-2.414,1.96-4.375,4.375-4.375
	c16.224,0,32.449,0,48.673,0c2.415,0,4.375,1.961,4.375,4.375C67.189,57.061,65.229,59.017,62.814,59.017z"/>
</svg>
