<?xml version="1.0" encoding="utf-8"?>
<!-- Generator: Adobe Illustrator 16.0.0, SVG Export Plug-In . SVG Version: 6.00 Build 0)  -->
<!DOCTYPE svg PUBLIC "-//W3C//DTD SVG 1.1//EN" "http://www.w3.org/Graphics/SVG/1.1/DTD/svg11.dtd">
<svg version="1.1" id="Layer_1" xmlns="http://www.w3.org/2000/svg" xmlns:xlink="http://www.w3.org/1999/xlink" x="0px" y="0px"
	 width="77px" height="77px" viewBox="0 0 77 77" enable-background="new 0 0 77 77" xml:space="preserve">
<g id="Layer_1_1_">
</g>
<path d="M46.926,38.5c0,4.634-3.791,8.426-8.427,8.426c-4.634,0-8.426-3.792-8.426-8.426c0-8.426,0-16.852,0-25.279
	c0-4.63,3.792-8.426,8.426-8.426c4.636,0,8.427,3.796,8.427,8.426C46.926,21.647,46.926,30.073,46.926,38.5z"/>
<path d="M55.352,67.992c0,1.404,0,2.81,0,4.214c-11.231,0-22.469,0-33.704,0c0-1.404,0-2.81,0-4.214c4.915,0,9.831,0,14.746,0
	c0-2.846,0-5.688,0-8.535C25.749,58.4,17.434,49.424,17.434,38.5c0-2.809,0-5.617,0-8.426c1.405,0,2.81,0,4.214,0
	c0,2.81,0,5.618,0,8.426c0,9.299,7.558,16.854,16.852,16.854c9.296,0,16.854-7.555,16.854-16.854c0-2.809,0-5.617,0-8.426
	c1.404,0,2.81,0,4.215,0c0,2.81,0,5.618,0,8.426c0,10.924-8.316,19.9-18.961,20.957c0,2.848,0,5.689,0,8.535
	C45.521,67.992,50.438,67.992,55.352,67.992z"/>
</svg>
