<?xml version="1.0" encoding="utf-8"?>
<!-- Generator: Adobe Illustrator 16.0.0, SVG Export Plug-In . SVG Version: 6.00 Build 0)  -->
<!DOCTYPE svg PUBLIC "-//W3C//DTD SVG 1.1//EN" "http://www.w3.org/Graphics/SVG/1.1/DTD/svg11.dtd">
<svg version="1.1" xmlns="http://www.w3.org/2000/svg" xmlns:xlink="http://www.w3.org/1999/xlink" x="0px" y="0px"
	 width="73.037px" height="73.038px" viewBox="0 0 73.037 73.038" enable-background="new 0 0 73.037 73.038" xml:space="preserve">
<g id="Default">
	<path d="M167.068-78.046c0,11.989,0,23.979,0,35.968c0,1.331,0,2.664,0,3.996c-1.332-1.332-2.664-2.665-3.996-3.996
		c-1.332,1.331-2.664,2.664-3.997,3.996c-1.332-1.332-2.664-2.665-3.996-3.996c-1.332,1.331-2.665,2.664-3.997,3.996
		c-1.332-1.332-2.664-2.665-3.996-3.996c-1.333,1.331-2.665,2.664-3.997,3.996c-1.332-1.332-2.664-2.665-3.997-3.996
		c-1.332,1.331-2.664,2.664-3.996,3.996c-1.332-1.332-2.665-2.665-3.997-3.996c-1.332,1.331-2.664,2.664-3.996,3.996
		c-1.332-1.332-2.664-2.665-3.997-3.996c-1.332,1.331-2.664,2.664-3.997,3.996c0-1.332,0-2.665,0-3.996c0-11.99,0-23.979,0-35.968
		c0,0,0-23.979,23.979-23.979C167.068-102.025,167.068-78.046,167.068-78.046z M135.097-86.04c-3.311,0-5.994,2.684-5.994,5.995
		c0,3.311,2.684,5.995,5.994,5.995c3.31,0,5.994-2.684,5.994-5.995C141.091-83.356,138.407-86.04,135.097-86.04z M151.083-86.04
		c-3.31,0-5.994,2.684-5.994,5.995c0,3.311,2.684,5.995,5.994,5.995c3.312,0,5.996-2.684,5.996-5.995
		C157.078-83.356,154.394-86.04,151.083-86.04z"/>
</g>
<g id="_x30_" display="none">
	
		<rect display="inline" fill="none" stroke="#00FFFF" stroke-linecap="round" stroke-linejoin="round" width="73.037" height="73.037"/>
	
		<rect x="106.572" y="-106.572" display="inline" fill="none" stroke="#00FFFF" stroke-linecap="round" stroke-linejoin="round" width="73.037" height="73.037"/>
	
		<rect x="106.572" display="inline" fill="none" stroke="#00FFFF" stroke-linecap="round" stroke-linejoin="round" width="73.037" height="73.037"/>
	
		<rect x="-213.146" y="106.572" display="inline" fill="none" stroke="#00FFFF" stroke-linecap="round" stroke-linejoin="round" width="73.037" height="73.038"/>
	
		<rect x="-106.573" y="106.572" display="inline" fill="none" stroke="#00FFFF" stroke-linecap="round" stroke-linejoin="round" width="73.037" height="73.038"/>
	
		<rect x="-0.001" y="-212.613" display="inline" fill="none" stroke="#00FFFF" stroke-linecap="round" stroke-linejoin="round" width="73.038" height="73.038"/>
	
		<rect x="106.571" y="-212.613" display="inline" fill="none" stroke="#00FFFF" stroke-linecap="round" stroke-linejoin="round" width="73.038" height="73.038"/>
	
		<rect x="-106.573" y="-213.146" display="inline" fill="none" stroke="#00FFFF" stroke-linecap="round" stroke-linejoin="round" width="73.038" height="73.038"/>
	
		<rect x="-213.146" y="-213.146" display="inline" fill="none" stroke="#00FFFF" stroke-linecap="round" stroke-linejoin="round" width="73.037" height="73.038"/>
	
		<rect x="-213.146" y="-106.572" display="inline" fill="none" stroke="#00FFFF" stroke-linecap="round" stroke-linejoin="round" width="73.037" height="73.037"/>
	
		<rect x="-106.573" display="inline" fill="none" stroke="#00FFFF" stroke-linecap="round" stroke-linejoin="round" width="73.038" height="73.037"/>
	
		<rect x="-213.146" display="inline" fill="none" stroke="#00FFFF" stroke-linecap="round" stroke-linejoin="round" width="73.038" height="73.037"/>
	
		<rect x="-0.236" y="-106.572" display="inline" fill="none" stroke="#00FFFF" stroke-linecap="round" stroke-linejoin="round" width="73.036" height="73.037"/>
	
		<rect x="-106.572" y="-106.572" display="inline" fill="none" stroke="#00FFFF" stroke-linecap="round" stroke-linejoin="round" width="73.036" height="73.037"/>
</g>
<g id="Outline">
	<rect x="4.547" y="34.245" width="63.943" height="4.546"/>
	<polygon points="-67.781,38.791 -38.082,38.791 -38.082,34.245 -67.781,34.245 -67.781,4.547 -72.328,4.547 -72.328,34.245 
		-102.026,34.245 -102.026,38.791 -72.328,38.791 -72.328,68.49 -67.781,68.49 	"/>
	<polygon points="-59.626,164.087 -62.841,167.303 -87.053,143.09 -62.839,118.875 -59.624,122.091 -80.623,143.09 	"/>
	<polygon points="173.58,19.036 170.411,15.776 130.442,54.619 116.414,40.185 113.154,43.353 130.349,61.048 	"/>
	<polygon points="-187.056,164.087 -183.841,167.303 -159.628,143.09 -183.843,118.875 -187.058,122.091 -166.059,143.09 	"/>
	<path d="M-89.699-190.409h39.29l-7.151,40.045h-24.986L-89.699-190.409z M-95.337-196.118l9.189,51.464h32.186l9.19-51.464
		 M-83.838-207.534v5.709h27.567v-5.709H-83.838z M-95.397-196.118h25.343h25.341"/>
	<polygon points="-176.626,39.734 -197.626,60.733 -200.842,57.519 -179.841,36.519 -200.842,15.519 -197.626,12.304 
		-176.626,33.303 -155.627,12.304 -152.411,15.519 -173.412,36.519 -152.411,57.519 -155.627,60.733 	"/>
	<path d="M-144.655-83.605c0,11.698,0,23.398,0,35.097c0,1.324-1.075,2.397-2.399,2.397c-12.522,0-25.044,0-37.566,0
		c-3.596,0-7.193,0-10.791,0c-3.597,0-7.193,0-10.79,0c-1.323,0-2.398-1.073-2.398-2.397c0-14.364,0-28.726,0-43.089
		c0-1.323,1.074-2.398,2.398-2.398c5.314,0,10.628,0,15.942,0c0.671,0,1.276,0.279,1.711,0.723c0.005-0.002,0.009-0.002,0.014-0.005
		c2.09,2.425,4.179,4.851,6.269,7.274c11.738,0,23.475,0,35.211,0C-145.73-86.003-144.655-84.93-144.655-83.605z M-149.202-81.457
		h-35.147l-6.89-7.993h-12.813v38.791h54.85V-81.457z"/>
	<path d="M34.244-171.2v-27.656h4.547v27.656l14.784-15.275l3.268,3.161l-20.325,21.002l-20.325-21.002l3.268-3.161L34.244-171.2z
		 M61.42-155.761H11.616v-20.334H7.067v24.882h58.899v-24.882H61.42V-155.761z"/>
	<path d="M150.675-158.138c1.128,1.014,2.258,2.029,3.387,3.043c-3.657,3.657-7.315,7.315-10.972,10.972
		c-3.657-3.657-7.315-7.315-10.972-10.972c1.072-1.072,2.143-2.143,3.215-3.215c1.828,1.828,3.656,3.655,5.483,5.483
		c0-3.476,0-6.951,0-10.427c-4.595,0-9.189,0-13.784,0c-14.653,0-16.558-21.241-2.138-23.848
		c1.815-13.883,19.29-18.954,28.254-8.201c14.602-1.323,23.193,16.005,13.301,26.826c-3.387,3.704-6.832,5.223-11.85,5.223
		c-3.08,0-6.158,0-9.237,0c0,3.476,0,6.951,0,10.427c1.828-1.828,3.655-3.656,5.483-5.483 M150.275-191.578
		c-6.427-9.269-20.969-4.721-20.969,6.56c0,0.757,0,1.515,0,2.272c-0.757,0-1.515,0-2.273,0c-4.126,0-7.472,3.347-7.472,7.473
		c0,4.127,3.345,7.473,7.472,7.473c9.189,0,18.378,0,27.567,0c3.598,0,6.067-1.088,8.495-3.744
		c7.433-8.132,0.295-21.055-10.546-19.091c-0.481,0.085-0.96,0.173-1.44,0.26C150.832-190.775,150.553-191.177,150.275-191.578z"/>
	<path d="M-182.565-155.304l-21.051,5.641l5.622-20.978l37.892-37.893l15.382,15.383l-37.893,37.894l-0.027-0.027 M-191.565-170.64
		l8.952,8.952l31.461-31.462l-8.952-8.952L-191.565-170.64z M-197.185-156.094l10.831-2.904l-7.929-7.93L-197.185-156.094z"/>
	<path d="M-61.386-97.904l12.79,12.789v42.912h-42.914v-55.701H-61.386z M-61.386-91.474v6.359h6.358L-61.386-91.474z
		 M-53.145-46.751v-33.816h-12.788v-12.788h-21.031v46.604H-53.145z"/>
	<path d="M64.29-48.81H8.274v-42.487H64.29V-48.81z M59.743-56.473v-27.211L45.688-70.168L59.743-56.473z M29.91-67.078
		l-13.84,13.721h40.355L42.409-67.015l-6.244,6.004L29.91-67.078z M33.14-70.28l3.039,2.948l2.972-2.858l-3.077-2.998L33.14-70.28z
		 M26.645-70.244L12.821-83.651v27.112L26.645-70.244z M42.43-73.345L56.372-86.75H16.156l13.718,13.304l6.171-6.117L42.43-73.345z"
		/>
</g>
</svg>
