<?xml version="1.0" encoding="utf-8"?>
<!-- Generator: Adobe Illustrator 16.0.0, SVG Export Plug-In . SVG Version: 6.00 Build 0)  -->
<!DOCTYPE svg PUBLIC "-//W3C//DTD SVG 1.1//EN" "http://www.w3.org/Graphics/SVG/1.1/DTD/svg11.dtd">
<svg version="1.1" xmlns="http://www.w3.org/2000/svg" xmlns:xlink="http://www.w3.org/1999/xlink" x="0px" y="0px" width="75px"
	 height="75px" viewBox="0 0 75 75" enable-background="new 0 0 75 75" xml:space="preserve">
<g id="Layer_1">
</g>
<g id="Fill">
	<g id="HATCH_14_">
		<polygon fill-rule="evenodd" clip-rule="evenodd" points="36.431,45.615 29.375,38.559 30.369,38.133 31.435,37.66 32.714,37.057 
			33.4,36.712 34.085,36.346 34.798,35.968 35.46,35.565 35.793,35.363 36.098,35.163 36.407,34.961 36.692,34.749 36.974,34.547 
			37.211,34.347 37.33,34.24 37.449,34.145 37.568,34.038 37.66,33.943 48.242,23.351 57.212,14.38 57.236,14.356 57.308,14.285 
			57.379,14.238 57.426,14.19 57.497,14.131 57.593,14.073 57.688,14.002 57.782,13.931 57.877,13.859 57.993,13.788 58.111,13.717 
			58.183,13.681 58.254,13.646 58.302,13.624 58.373,13.588 58.444,13.552 58.516,13.528 58.587,13.493 58.658,13.469 
			58.729,13.445 58.824,13.421 58.893,13.397 58.964,13.374 59.035,13.35 59.13,13.338 59.201,13.327 59.272,13.314 59.367,13.303 
			59.415,13.303 59.438,13.303 59.486,13.303 59.533,13.303 59.581,13.303 59.604,13.303 59.652,13.303 59.7,13.303 59.747,13.303 
			59.771,13.314 59.815,13.314 59.863,13.314 59.91,13.327 59.958,13.338 59.981,13.338 60.029,13.35 60.077,13.362 60.124,13.374 
			60.172,13.386 60.195,13.397 60.243,13.41 60.29,13.433 60.338,13.445 60.386,13.469 60.409,13.481 60.457,13.504 60.504,13.528 
			60.552,13.552 60.6,13.576 60.623,13.6 60.671,13.624 60.715,13.646 60.763,13.681 60.81,13.705 60.834,13.741 60.881,13.776 
			60.929,13.8 60.977,13.835 61,13.883 61.048,13.918 61.095,13.954 61.143,13.99 61.166,14.038 61.214,14.073 61.261,14.119 
			61.285,14.167 61.332,14.202 61.356,14.25 61.403,14.285 61.428,14.333 61.451,14.368 61.475,14.416 61.499,14.463 61.546,14.499 
			61.57,14.546 61.594,14.581 61.617,14.628 61.617,14.676 61.638,14.711 61.662,14.759 61.686,14.794 61.709,14.842 61.709,14.889 
			61.733,14.925 61.733,14.973 61.757,15.008 61.757,15.054 61.78,15.102 61.78,15.137 61.805,15.185 61.805,15.22 61.805,15.268 
			61.805,15.303 61.828,15.351 61.828,15.398 61.828,15.434 61.828,15.48 61.828,15.516 61.828,15.563 61.828,15.599 61.828,15.646 
			61.828,15.682 61.828,15.729 61.828,15.765 61.805,15.848 61.805,15.931 61.78,16.013 61.78,16.084 61.757,16.167 61.733,16.238 
			61.709,16.322 61.686,16.393 61.662,16.474 61.638,16.545 61.617,16.617 61.57,16.688 61.546,16.759 61.522,16.819 61.475,16.888 
			61.451,16.948 61.403,17.019 61.332,17.138 61.261,17.245 61.189,17.35 61.119,17.457 61.071,17.54 61,17.623 60.929,17.694 
			60.881,17.764 60.834,17.812 60.763,17.883 60.738,17.907 60.738,17.907 41.094,37.566 40.999,37.683 40.881,37.79 40.785,37.909 
			40.571,38.169 40.385,38.43 40.171,38.713 39.957,39.021 39.554,39.648 39.129,40.312 38.749,40.985 38.016,42.347 37.378,43.599 
			36.55,45.354 		"/>
	</g>
	<g id="HATCH_15_">
		<polygon fill-rule="evenodd" clip-rule="evenodd" points="13.114,59.225 13.375,59.164 13.613,59.096 13.847,59.011 
			14.085,58.939 14.299,58.858 14.513,58.764 14.723,58.668 14.913,58.573 15.103,58.465 15.293,58.359 15.388,58.315 
			15.459,58.254 15.551,58.193 15.646,58.136 15.717,58.078 15.812,58.017 15.884,57.955 15.955,57.888 16.05,57.826 16.122,57.759 
			16.193,57.697 16.264,57.626 16.406,57.483 16.545,57.345 16.665,57.202 16.807,57.046 16.926,56.883 17.044,56.727 
			17.163,56.561 17.282,56.384 17.374,56.204 17.493,56.027 17.587,55.838 17.683,55.647 17.778,55.461 17.873,55.261 
			18.062,54.847 18.253,54.405 18.416,53.957 18.749,53 20.286,48.385 20.761,47.047 21.352,45.615 21.423,45.436 21.494,45.269 
			21.589,45.093 21.66,44.93 21.755,44.773 21.851,44.607 21.945,44.454 22.061,44.298 22.156,44.155 22.251,44.017 22.37,43.874 
			22.488,43.741 22.583,43.599 22.702,43.483 22.821,43.353 22.937,43.234 23.055,43.117 23.174,42.998 23.293,42.892 
			23.412,42.772 23.53,42.666 23.673,42.572 23.907,42.37 24.145,42.194 24.406,42.027 24.644,41.873 24.878,41.721 25.115,41.59 
			25.353,41.459 25.567,41.353 25.801,41.247 25.991,41.152 26.181,41.068 26.371,40.997 26.538,40.926 26.819,40.831 
			27.033,40.762 27.176,40.714 27.223,40.702 34.299,47.767 34.299,47.767 34.299,47.801 34.276,47.933 34.276,48.134 
			34.252,48.405 34.205,48.737 34.157,49.138 34.109,49.355 34.062,49.579 34.014,49.827 33.967,50.074 33.899,50.336 
			33.828,50.598 33.733,50.883 33.638,51.164 33.542,51.459 33.424,51.758 33.305,52.05 33.163,52.358 33.023,52.668 32.881,52.986 
			32.714,53.292 32.524,53.614 32.311,53.934 32.121,54.253 31.886,54.562 31.649,54.881 31.53,55.037 31.388,55.186 31.245,55.342 
			31.129,55.498 30.987,55.647 30.821,55.79 30.678,55.946 30.512,56.089 30.369,56.241 30.207,56.384 30.04,56.523 29.85,56.666 
			29.684,56.809 29.494,56.951 29.307,57.08 29.117,57.212 28.927,57.354 28.737,57.474 28.523,57.603 28.312,57.731 28.099,57.854 
			27.861,57.969 27.647,58.088 27.413,58.193 27.176,58.315 26.938,58.417 26.677,58.525 26.442,58.621 26.181,58.716 
			25.896,58.811 25.638,58.906 25.353,58.987 25.068,59.068 24.783,59.153 24.501,59.225 24.192,59.293 23.578,59.425 22.937,59.53 
			22.274,59.625 21.565,59.7 20.856,59.754 20.099,59.792 19.339,59.802 18.535,59.792 17.707,59.754 16.854,59.71 15.955,59.625 
			15.056,59.521 14.109,59.388 		"/>
	</g>
</g>
<g id="Outline">
</g>
<g id="Frame">
</g>
</svg>
