<?xml version="1.0" encoding="utf-8"?>
<!-- Generator: Adobe Illustrator 16.0.0, SVG Export Plug-In . SVG Version: 6.00 Build 0)  -->
<!DOCTYPE svg PUBLIC "-//W3C//DTD SVG 1.1//EN" "http://www.w3.org/Graphics/SVG/1.1/DTD/svg11.dtd">
<svg version="1.1" id="Layer_1" xmlns="http://www.w3.org/2000/svg" xmlns:xlink="http://www.w3.org/1999/xlink" x="0px" y="0px"
	 width="77px" height="77px" viewBox="0 0 77 77" enable-background="new 0 0 77 77" xml:space="preserve">
<g id="Layer_1_1_">
</g>
<g id="HATCH_1_">
	<polygon points="42.738,56.508 41.043,54.814 61.488,34.37 61.695,34.158 61.898,33.94 62.098,33.715 62.296,33.484 62.491,33.247 
		62.68,33.003 62.865,32.753 63.045,32.496 63.223,32.234 63.393,31.966 63.559,31.692 63.718,31.412 63.873,31.125 64.02,30.834 
		64.162,30.539 64.296,30.237 64.424,29.931 64.545,29.62 64.66,29.305 64.766,28.986 64.863,28.663 64.954,28.337 65.036,28.007 
		65.109,27.674 65.175,27.338 65.232,27 65.282,26.661 65.322,26.319 65.352,25.975 65.375,25.631 65.389,25.287 65.393,24.942 
		65.389,24.597 65.375,24.252 65.352,23.908 65.322,23.564 65.282,23.224 65.232,22.883 65.175,22.545 65.109,22.209 65.036,21.877 
		64.954,21.547 64.863,21.221 64.766,20.897 64.66,20.578 64.545,20.263 64.424,19.952 64.296,19.646 64.162,19.346 64.02,19.048 
		63.873,18.757 63.718,18.472 63.559,18.192 63.393,17.917 63.223,17.649 63.045,17.387 62.865,17.131 62.68,16.881 62.491,16.637 
		62.296,16.399 62.098,16.168 61.898,15.944 61.695,15.726 61.488,15.515 61.277,15.308 61.059,15.103 60.833,14.902 60.602,14.705 
		60.365,14.511 60.122,14.322 59.871,14.136 59.615,13.956 59.354,13.78 59.083,13.609 58.811,13.444 58.529,13.284 58.244,13.13 
		57.953,12.982 57.657,12.841 57.355,12.706 57.049,12.578 56.738,12.457 56.423,12.344 56.104,12.238 55.781,12.14 55.455,12.049 
		55.125,11.966 54.792,11.892 54.457,11.826 54.119,11.769 53.779,11.72 53.436,11.681 53.093,11.649 52.75,11.626 52.404,11.613 
		52.061,11.608 51.715,11.613 51.371,11.626 51.025,11.649 50.684,11.681 50.341,11.72 50.001,11.769 49.664,11.826 49.328,11.892 
		48.996,11.966 48.666,12.049 48.339,12.14 48.016,12.238 47.695,12.344 47.381,12.457 47.07,12.578 46.764,12.706 46.463,12.841 
		46.167,12.982 45.875,13.13 45.59,13.284 45.311,13.444 45.036,13.609 44.768,13.78 44.505,13.956 44.249,14.136 43.999,14.322 
		43.755,14.511 43.518,14.705 43.287,14.902 43.062,15.103 42.843,15.308 42.632,15.515 13.57,44.576 13.4,44.75 13.233,44.928 
		13.069,45.113 12.906,45.302 12.748,45.498 12.592,45.698 12.44,45.902 12.292,46.113 12.147,46.328 12.008,46.548 11.872,46.773 
		11.741,47.002 11.615,47.236 11.494,47.477 11.377,47.719 11.267,47.966 11.162,48.217 11.062,48.471 10.969,48.73 10.882,48.991 
		10.801,49.256 10.727,49.523 10.659,49.795 10.599,50.068 10.545,50.343 10.498,50.621 10.458,50.9 10.425,51.18 10.4,51.46 
		10.382,51.743 10.371,52.025 10.367,52.309 10.371,52.592 10.382,52.875 10.4,53.158 10.425,53.438 10.458,53.718 10.498,53.998 
		10.545,54.275 10.599,54.549 10.659,54.823 10.727,55.094 10.801,55.361 10.882,55.626 10.969,55.889 11.062,56.146 11.162,56.4 
		11.267,56.652 11.377,56.898 11.494,57.143 11.615,57.381 11.741,57.616 11.872,57.845 12.008,58.07 12.147,58.291 12.292,58.505 
		12.44,58.715 12.592,58.921 12.748,59.121 12.906,59.316 13.069,59.506 13.233,59.689 13.4,59.868 13.57,60.042 13.744,60.212 
		13.922,60.379 14.106,60.543 14.296,60.706 14.491,60.865 14.69,61.02 14.896,61.171 15.106,61.32 15.321,61.464 15.542,61.604 
		15.767,61.741 15.997,61.872 16.23,61.998 16.469,62.12 16.713,62.234 16.96,62.345 17.211,62.451 17.465,62.549 17.724,62.643 
		17.985,62.73 18.25,62.811 18.518,62.884 18.79,62.952 19.062,63.014 19.336,63.066 19.615,63.114 19.894,63.154 20.174,63.188 
		20.455,63.211 20.737,63.23 21.02,63.241 21.303,63.245 21.586,63.241 21.869,63.23 22.151,63.211 22.432,63.188 22.712,63.154 
		22.992,63.114 23.269,63.066 23.543,63.014 23.817,62.952 24.087,62.884 24.355,62.811 24.62,62.73 24.882,62.643 25.141,62.549 
		25.395,62.451 25.646,62.345 25.893,62.234 26.136,62.12 26.375,61.998 26.609,61.872 26.839,61.741 27.063,61.604 27.285,61.464 
		27.5,61.32 27.709,61.171 27.915,61.02 28.115,60.865 28.31,60.706 28.499,60.543 28.684,60.379 28.862,60.212 29.035,60.042 
		57.335,31.742 57.467,31.607 57.598,31.467 57.727,31.323 57.854,31.176 57.979,31.023 58.1,30.867 58.217,30.707 58.333,30.542 
		58.445,30.375 58.557,30.202 58.662,30.027 58.764,29.847 58.863,29.665 58.957,29.479 59.047,29.288 59.134,29.096 59.216,28.9 
		59.293,28.701 59.366,28.499 59.434,28.295 59.497,28.088 59.555,27.879 59.607,27.667 59.656,27.454 59.698,27.239 59.734,27.022 
		59.766,26.806 59.792,26.586 59.811,26.366 59.825,26.146 59.833,25.925 59.836,25.704 59.833,25.483 59.825,25.262 59.811,25.042 
		59.792,24.822 59.766,24.604 59.734,24.386 59.698,24.169 59.656,23.955 59.607,23.742 59.555,23.531 59.497,23.32 59.434,23.114 
		59.366,22.91 59.293,22.708 59.216,22.508 59.134,22.313 59.047,22.119 58.957,21.93 58.863,21.744 58.764,21.561 58.662,21.381 
		58.557,21.206 58.445,21.034 58.333,20.866 58.217,20.702 58.1,20.541 57.979,20.386 57.854,20.233 57.727,20.084 57.598,19.942 
		57.467,19.802 57.335,19.667 57.201,19.534 57.061,19.403 56.917,19.274 56.768,19.148 56.616,19.024 56.46,18.902 56.3,18.784 
		56.137,18.668 55.968,18.555 55.796,18.446 55.62,18.34 55.441,18.238 55.259,18.139 55.072,18.045 54.881,17.954 54.689,17.868 
		54.494,17.785 54.293,17.708 54.091,17.636 53.889,17.567 53.682,17.505 53.471,17.447 53.26,17.394 53.047,17.347 52.833,17.304 
		52.616,17.268 52.398,17.237 52.18,17.211 51.96,17.191 51.738,17.177 51.52,17.169 51.296,17.165 51.077,17.169 50.855,17.177 
		50.635,17.191 50.416,17.211 50.198,17.237 49.979,17.268 49.762,17.304 49.548,17.347 49.334,17.394 49.124,17.447 48.915,17.505 
		48.708,17.567 48.503,17.636 48.301,17.708 48.102,17.785 47.906,17.868 47.712,17.954 47.523,18.045 47.336,18.139 47.154,18.238 
		46.975,18.34 46.798,18.446 46.627,18.555 46.458,18.668 46.294,18.784 46.134,18.902 45.979,19.024 45.827,19.148 45.678,19.274 
		45.535,19.403 45.395,19.534 45.259,19.667 25.578,39.348 23.883,37.653 43.564,17.971 43.738,17.801 43.917,17.634 44.102,17.47 
		44.291,17.308 44.484,17.149 44.686,16.994 44.891,16.842 45.1,16.694 45.316,16.549 45.537,16.41 45.762,16.274 45.992,16.143 
		46.225,16.017 46.464,15.895 46.707,15.779 46.954,15.667 47.205,15.563 47.459,15.464 47.718,15.371 47.98,15.284 48.245,15.204 
		48.514,15.129 48.784,15.062 49.057,15 49.332,14.946 49.607,14.899 49.889,14.859 50.167,14.826 50.45,14.801 50.732,14.783 
		51.016,14.772 51.296,14.769 51.581,14.772 51.863,14.783 52.146,14.801 52.427,14.826 52.708,14.859 52.986,14.899 53.264,14.946 
		53.539,15 53.811,15.062 54.082,15.129 54.352,15.204 54.615,15.284 54.876,15.371 55.135,15.464 55.391,15.563 55.641,15.667 
		55.889,15.779 56.131,15.895 56.369,16.017 56.604,16.143 56.834,16.274 57.059,16.41 57.279,16.549 57.495,16.694 57.705,16.842 
		57.91,16.994 58.109,17.149 58.303,17.308 58.494,17.47 58.677,17.634 58.857,17.801 59.029,17.971 59.2,18.145 59.367,18.324 
		59.532,18.508 59.693,18.697 59.852,18.893 60.008,19.092 60.16,19.297 60.309,19.507 60.453,19.724 60.592,19.943 60.729,20.168 
		60.859,20.398 60.984,20.632 61.105,20.87 61.223,21.114 61.334,21.361 61.438,21.612 61.538,21.867 61.631,22.125 61.717,22.387 
		61.798,22.652 61.873,22.92 61.941,23.19 62.001,23.463 62.055,23.739 62.104,24.016 62.143,24.295 62.174,24.575 62.2,24.856 
		62.218,25.138 62.23,25.421 62.232,25.704 62.23,25.987 62.218,26.271 62.2,26.552 62.174,26.833 62.143,27.114 62.104,27.393 
		62.055,27.669 62.001,27.945 61.941,28.218 61.873,28.489 61.798,28.757 61.717,29.022 61.631,29.283 61.538,29.542 61.438,29.797 
		61.334,30.047 61.223,30.294 61.105,30.538 60.984,30.776 60.859,31.011 60.729,31.241 60.592,31.466 60.453,31.686 60.309,31.901 
		60.16,32.111 60.008,32.316 59.852,32.517 59.693,32.711 59.532,32.9 59.367,33.085 59.2,33.263 59.029,33.437 30.73,61.736 
		30.519,61.943 30.3,62.148 30.076,62.35 29.845,62.545 29.608,62.74 29.364,62.93 29.114,63.114 28.858,63.295 28.595,63.471 
		28.327,63.643 28.053,63.807 27.772,63.967 27.487,64.122 27.195,64.27 26.899,64.411 26.599,64.545 26.292,64.673 25.981,64.794 
		25.667,64.908 25.347,65.014 25.025,65.113 24.698,65.203 24.368,65.285 24.035,65.359 23.7,65.424 23.361,65.482 23.021,65.531 
		22.679,65.57 22.336,65.602 21.992,65.625 21.648,65.637 21.303,65.641 20.958,65.637 20.613,65.625 20.269,65.602 19.926,65.57 
		19.584,65.531 19.245,65.482 18.906,65.424 18.571,65.359 18.238,65.285 17.908,65.203 17.581,65.113 17.259,65.014 16.939,64.908 
		16.624,64.794 16.314,64.673 16.007,64.545 15.707,64.411 15.41,64.27 15.12,64.122 14.833,63.967 14.553,63.807 14.279,63.643 
		14.01,63.471 13.748,63.295 13.492,63.114 13.242,62.93 12.998,62.74 12.761,62.545 12.53,62.35 12.305,62.148 12.086,61.943 
		11.875,61.736 11.667,61.525 11.464,61.307 11.263,61.083 11.066,60.852 10.872,60.614 10.683,60.371 10.498,60.12 10.317,59.864 
		10.141,59.602 9.97,59.333 9.805,59.059 9.645,58.779 9.491,58.493 9.343,58.203 9.202,57.906 9.067,57.604 8.939,57.298 
		8.818,56.989 8.705,56.673 8.598,56.354 8.5,56.031 8.41,55.704 8.327,55.374 8.252,55.041 8.188,54.706 8.13,54.368 8.082,54.027 
		8.042,53.686 8.011,53.343 7.988,53 7.975,52.654 7.971,52.309 7.975,51.964 7.988,51.62 8.011,51.275 8.042,50.932 8.082,50.59 
		8.13,50.25 8.188,49.913 8.252,49.578 8.327,49.245 8.41,48.915 8.5,48.587 8.598,48.266 8.705,47.945 8.818,47.631 8.939,47.32 
		9.067,47.014 9.202,46.712 9.343,46.416 9.491,46.125 9.645,45.839 9.805,45.559 9.97,45.286 10.141,45.018 10.317,44.754 
		10.498,44.499 10.683,44.248 10.872,44.004 11.066,43.768 11.263,43.536 11.464,43.311 11.667,43.092 11.875,42.881 40.938,13.819 
		41.188,13.575 41.443,13.334 41.709,13.098 41.98,12.865 42.262,12.637 42.549,12.413 42.844,12.195 43.146,11.98 43.457,11.773 
		43.773,11.571 44.098,11.377 44.427,11.188 44.764,11.006 45.107,10.833 45.458,10.665 45.812,10.506 46.173,10.355 46.541,10.212 
		46.912,10.078 47.289,9.953 47.668,9.837 48.055,9.731 48.443,9.633 48.837,9.546 49.232,9.468 49.631,9.401 50.033,9.343 
		50.436,9.296 50.839,9.259 51.246,9.233 51.652,9.217 52.061,9.212 52.467,9.217 52.875,9.233 53.279,9.259 53.684,9.296 
		54.087,9.343 54.488,9.401 54.887,9.468 55.283,9.546 55.676,9.633 56.064,9.731 56.45,9.837 56.832,9.953 57.208,10.078 
		57.58,10.212 57.945,10.355 58.309,10.506 58.663,10.665 59.014,10.833 59.355,11.006 59.693,11.188 60.023,11.377 60.346,11.571 
		60.664,11.773 60.973,11.98 61.275,12.195 61.57,12.413 61.857,12.637 62.137,12.865 62.411,13.098 62.675,13.334 62.934,13.575 
		63.184,13.819 63.427,14.069 63.667,14.326 63.904,14.591 64.137,14.864 64.365,15.144 64.589,15.432 64.807,15.727 65.02,16.029 
		65.229,16.339 65.43,16.655 65.625,16.979 65.814,17.309 65.996,17.646 66.169,17.989 66.336,18.339 66.496,18.694 66.646,19.056 
		66.789,19.421 66.923,19.793 67.048,20.17 67.165,20.552 67.271,20.937 67.368,21.326 67.456,21.719 67.533,22.114 67.602,22.513 
		67.659,22.915 67.707,23.317 67.742,23.723 67.768,24.128 67.784,24.535 67.791,24.942 67.784,25.349 67.768,25.756 67.742,26.161 
		67.707,26.566 67.659,26.97 67.602,27.371 67.533,27.769 67.456,28.165 67.368,28.558 67.271,28.947 67.165,29.332 67.048,29.713 
		66.923,30.09 66.789,30.461 66.646,30.829 66.496,31.189 66.336,31.545 66.169,31.894 65.996,32.238 65.814,32.575 65.625,32.905 
		65.43,33.229 65.229,33.545 65.02,33.855 64.807,34.157 64.589,34.453 64.365,34.74 64.137,35.02 63.904,35.292 63.667,35.558 
		63.427,35.815 63.184,36.065 	"/>
</g>
</svg>
