<?xml version="1.0" encoding="utf-8"?>
<!-- Generator: Adobe Illustrator 16.0.0, SVG Export Plug-In . SVG Version: 6.00 Build 0)  -->
<!DOCTYPE svg PUBLIC "-//W3C//DTD SVG 1.1//EN" "http://www.w3.org/Graphics/SVG/1.1/DTD/svg11.dtd">
<svg version="1.1" id="Layer_1" xmlns="http://www.w3.org/2000/svg" xmlns:xlink="http://www.w3.org/1999/xlink" x="0px" y="0px"
	 width="77px" height="77px" viewBox="0 0 77 77" enable-background="new 0 0 77 77" xml:space="preserve">
<g id="Layer_1_1_">
</g>
<path d="M36.103,9.836c0-1.616,1.564-2.768,3.108-2.29c2.077,0.645,1.688,2.193,1.688,3.808c0,3.017,0,6.032,0,9.049
	c0,6.032,0,12.066,0,18.098c0,1.615-1.564,2.769-3.109,2.29c-2.077-0.646-1.686-2.193-1.686-3.809c0-3.015,0-6.032,0-9.049
	C36.103,21.9,36.103,15.869,36.103,9.836z"/>
<path d="M58.945,18.055c17.58,17.583,6.242,47.684-18.568,49.296c-24.81,1.613-39.95-26.763-24.798-46.473
	c0.802-1.045,1.596-2.074,2.61-2.946c1.306-1.125,3.336-0.544,3.849,1.104c0.597,1.906-0.822,2.58-1.775,3.679
	c-0.852,0.988-1.613,2.026-2.3,3.137c-3.079,5.002-4.11,9.695-3.409,15.527c1.373,11.416,10.607,20.271,22.072,21.166
	c11.459,0.894,21.956-6.422,25.085-17.481c1.59-5.621,1.309-10.397-0.927-15.793c-1.028-2.485-2.376-4.652-4.151-6.674
	c-0.98-1.121-2.371-1.855-1.602-3.751C55.675,17.259,57.732,16.843,58.945,18.055z"/>
</svg>
