<?xml version="1.0" encoding="utf-8"?>
<!-- Generator: Adobe Illustrator 16.0.0, SVG Export Plug-In . SVG Version: 6.00 Build 0)  -->
<!DOCTYPE svg PUBLIC "-//W3C//DTD SVG 1.1//EN" "http://www.w3.org/Graphics/SVG/1.1/DTD/svg11.dtd">
<svg version="1.1" id="Layer_1" xmlns="http://www.w3.org/2000/svg" xmlns:xlink="http://www.w3.org/1999/xlink" x="0px" y="0px"
	 width="76.958px" height="76.958px" viewBox="0 0 76.958 76.958" enable-background="new 0 0 76.958 76.958" xml:space="preserve">
<path d="M66.066,53.247c2.099,1.123,4.196,2.246,6.294,3.369c0.262,0.141,0.523,0.28,0.786,0.42
	c0.131,0.069,0.263,0.141,0.394,0.211c0.887,0.473-0.912,0.42-1.396,0.565c-3.721,1.127-7.438,2.252-11.157,3.378
	c-0.465,0.141-0.931,0.281-1.396,0.421c-0.287,0.089-0.704,0.765-0.877,0.193c-0.035-0.116-0.071-0.231-0.106-0.349
	c-0.069-0.232-0.142-0.465-0.211-0.697c-0.142-0.465-0.28-0.93-0.422-1.396c-1.125-3.719-2.253-7.438-3.377-11.155
	c-0.103-0.338-0.205-0.676-0.308-1.015c-0.141-0.461,0.478,0.003,0.709,0.127c0.764,0.408,1.523,0.815,2.285,1.224
	c0.762,0.406,1.522,0.814,2.284,1.223c0.38,0.203,0.761,0.406,1.144,0.611c0.189,0.103,0.381,0.203,0.57,0.305
	c0.188,0.1,0.365,0.667,0.565,0.292c1.513-2.83,2.444-5.702,2.884-8.882c0.959-6.964-0.287-12.417-4.175-18.274
	c-7.449-11.217-22.12-15.066-34.116-8.949C14.441,20.988,8.939,35.135,13.652,47.752c1.134,3.035,2.689,5.651,4.811,8.098
	c0.442,0.508,1.837,0.809,0.956,1.689c-0.609,0.607-1.218,1.217-1.826,1.826c-0.512,0.512-0.938,1.571-1.751,0.719
	c-0.534-0.559-1.045-1.135-1.535-1.731c-4.424-5.38-6.581-10.817-7.05-17.767C6.361,27.322,13.938,14.949,26.16,9.714
	C53.351-1.93,80.025,27.167,66.066,53.247z"/>
</svg>
