<?xml version="1.0" encoding="utf-8"?>
<!-- Generator: Adobe Illustrator 16.0.0, SVG Export Plug-In . SVG Version: 6.00 Build 0)  -->
<!DOCTYPE svg PUBLIC "-//W3C//DTD SVG 1.1//EN" "http://www.w3.org/Graphics/SVG/1.1/DTD/svg11.dtd">
<svg version="1.1" id="Layer_1" xmlns="http://www.w3.org/2000/svg" xmlns:xlink="http://www.w3.org/1999/xlink" x="0px" y="0px"
	 width="76.958px" height="76.958px" viewBox="0 0 76.958 76.958" enable-background="new 0 0 76.958 76.958" xml:space="preserve">
<path d="M25.108,58.508c0,3.681-2.979,6.66-6.654,6.66c-3.68,0-6.66-2.979-6.66-6.66c0-3.676,2.98-6.654,6.66-6.654
	C22.13,51.854,25.108,54.833,25.108,58.508z"/>
<path d="M18.45,29.507c8.89,0,15.055,2.667,21.14,9.149c2.796,2.975,4.765,6.188,6.146,10.03c0.686,1.902,1.159,3.826,1.439,5.83
	c0.131,0.949,0.216,1.896,0.252,2.854c0.017,0.418,0.498,1.139-0.262,1.139c-0.514,0-1.025,0-1.539,0c-1.203,0-2.404,0-3.605,0
	c-0.602,0-1.203,0-1.805,0c-0.469,0-1.25,0.492-1.264-0.346c-0.027-1.627-0.239-3.195-0.646-4.77
	c-1.051-4.077-2.91-7.174-6.017-10.016c-3.105-2.842-6.354-4.419-10.508-5.104c-0.743-0.123-1.488-0.204-2.239-0.243
	c-0.365-0.021-0.729-0.03-1.094-0.03c-0.564,0-0.001-0.565-0.001-0.847c0-0.284,0-0.566,0-0.85
	C18.45,34.04,18.45,31.773,18.45,29.507z"/>
<path d="M18.45,10.94c12.932,0,25.306,5.265,34.273,14.583c4.568,4.748,7.833,9.896,10.18,16.054
	c1.17,3.071,2.001,6.182,2.521,9.428c0.246,1.539,0.414,3.08,0.508,4.638c0.046,0.755,0.074,1.512,0.084,2.269
	c0.016,1.219-1.119,0.6-1.819,0.6c-1.884,0-3.768,0-5.651,0c-0.381,0-1.017,0.389-1.021-0.291c-0.003-0.35-0.01-0.702-0.022-1.053
	c-0.022-0.715-0.067-1.426-0.131-2.139c-0.271-3.012-0.867-5.896-1.815-8.77c-2.097-6.352-5.288-11.398-10.126-16.016
	c-4.838-4.616-10.027-7.568-16.468-9.368c-2.82-0.786-5.642-1.246-8.566-1.392c-0.419-0.021-1.943,0.611-1.943-0.219
	c0-0.924,0-1.849,0-2.773C18.45,14.639,18.45,12.79,18.45,10.94z"/>
</svg>
