<?xml version="1.0" encoding="utf-8"?>
<!-- Generator: Adobe Illustrator 16.0.0, SVG Export Plug-In . SVG Version: 6.00 Build 0)  -->
<!DOCTYPE svg PUBLIC "-//W3C//DTD SVG 1.1//EN" "http://www.w3.org/Graphics/SVG/1.1/DTD/svg11.dtd">
<svg version="1.1" id="Layer_1" xmlns="http://www.w3.org/2000/svg" xmlns:xlink="http://www.w3.org/1999/xlink" x="0px" y="0px"
	 width="77px" height="77px" viewBox="0 0 77 77" enable-background="new 0 0 77 77" xml:space="preserve">
<g id="Layer_1_1_">
</g>
<path d="M65.887,41.13c0,5.672,0,11.345,0,17.019c-18.257,0-36.517,0-54.775,0c0-13.099,0-26.196,0-39.294
	c7.932,0,15.864,0,23.796,0c-2.838,1.506-5.298,3.414-7.325,5.766c-3.585-0.016-7.17-0.034-10.756-0.049c0,9.288,0,18.576,0,27.863
	c14.448,0,28.897,0,43.345,0c0-2.236,0-4.476,0-6.713C62.079,44.191,63.982,42.661,65.887,41.13z"/>
<path d="M27.243,44.173c0,0-3.231-23.264,25.526-23.588c0-3.554,0-7.108,0-10.662c6.838,5.979,13.679,11.956,20.52,17.934
	c-6.841,5.493-13.682,10.985-20.52,16.478c0-3.394,0-6.786,0-10.178C52.77,34.157,35.32,29.956,27.243,44.173z"/>
</svg>
