<?xml version="1.0" encoding="utf-8"?>
<!-- Generator: Adobe Illustrator 16.0.0, SVG Export Plug-In . SVG Version: 6.00 Build 0)  -->
<!DOCTYPE svg PUBLIC "-//W3C//DTD SVG 1.1//EN" "http://www.w3.org/Graphics/SVG/1.1/DTD/svg11.dtd">
<svg version="1.1" id="Layer_1" xmlns="http://www.w3.org/2000/svg" xmlns:xlink="http://www.w3.org/1999/xlink" x="0px" y="0px"
	 width="77px" height="77px" viewBox="0 0 77 77" enable-background="new 0 0 77 77" xml:space="preserve">
<g id="Layer_1_1_">
</g>
<path d="M34.952,14.667c0.675,0,1.351,0,2.027,0c0,13.981,11.375,25.354,25.354,25.354c0,0.677,0,1.354,0,2.028
	C47.232,42.05,34.952,29.765,34.952,14.667z"/>
<path d="M14.667,14.667c0.677,0,1.353,0,2.031,0c0,25.165,20.471,45.638,45.635,45.638c0,0.678,0,1.353,0,2.028
	C36.052,62.333,14.667,40.953,14.667,14.667z"/>
<path d="M19.739,14.667c0.675,0,1.352,0,2.028,0c0,22.368,18.2,40.567,40.566,40.567c0,0.677,0,1.353,0,2.029
	C38.847,57.264,19.739,38.152,19.739,14.667z"/>
<path d="M29.881,14.667c0.677,0,1.352,0,2.026,0c0,16.778,13.651,30.426,30.425,30.426c0,0.677,0,1.353,0,2.029
	C44.438,47.123,29.881,32.562,29.881,14.667z"/>
<path d="M19.739,14.667c0.675,0,1.352,0,2.028,0c0,22.368,18.2,40.567,40.566,40.567c0,0.677,0,1.353,0,2.029
	C38.847,57.264,19.739,38.152,19.739,14.667z"/>
<path d="M29.881,14.667c0.677,0,1.352,0,2.026,0c0,16.778,13.651,30.426,30.425,30.426c0,0.677,0,1.353,0,2.029
	C44.438,47.123,29.881,32.562,29.881,14.667z"/>
<path d="M24.808,14.667c0.676,0,1.353,0,2.03,0c0,19.574,15.924,35.497,35.494,35.497c0,0.675,0,1.352,0,2.027
	C41.643,52.191,24.808,35.358,24.808,14.667z"/>
<g id="Problem" display="none">
	<polygon display="inline" points="-107.258,379.302 -107.258,382.162 -113.514,382.162 -113.514,379.302 -113.514,382.162 
		-107.258,382.162 	"/>
	<polygon display="inline" points="-31.499,379.302 -31.499,382.162 -37.754,382.162 -37.754,379.302 -37.754,382.162 
		-31.499,382.162 	"/>
</g>
</svg>
