<?xml version="1.0" encoding="utf-8"?>
<!-- Generator: Adobe Illustrator 16.0.0, SVG Export Plug-In . SVG Version: 6.00 Build 0)  -->
<!DOCTYPE svg PUBLIC "-//W3C//DTD SVG 1.1//EN" "http://www.w3.org/Graphics/SVG/1.1/DTD/svg11.dtd">
<svg version="1.1" xmlns="http://www.w3.org/2000/svg" xmlns:xlink="http://www.w3.org/1999/xlink" x="0px" y="0px" width="75px"
	 height="75px" viewBox="0 0 75 75" enable-background="new 0 0 75 75" xml:space="preserve">
<g id="Layer_1">
</g>
<g id="Fill">
	<g id="HATCH_8_">
		<polygon fill-rule="evenodd" clip-rule="evenodd" points="18.519,29.417 15.36,27.666 15.289,27.761 15.217,27.88 15.134,27.999 
			15.063,28.094 14.97,28.212 14.887,28.308 14.792,28.402 14.697,28.518 14.602,28.613 14.497,28.708 14.39,28.803 14.283,28.874 
			14.176,28.969 14.057,29.041 13.94,29.135 13.821,29.207 13.702,29.278 13.573,29.346 13.455,29.417 13.324,29.464 13.193,29.512 
			13.076,29.583 12.934,29.631 12.803,29.678 12.672,29.702 12.543,29.75 12.413,29.773 12.271,29.797 12.142,29.821 12.011,29.845 
			11.88,29.868 11.739,29.868 11.609,29.868 11.478,29.892 11.335,29.892 11.207,29.868 11.076,29.868 10.934,29.868 10.792,29.845 
			10.662,29.821 10.52,29.797 10.389,29.773 10.248,29.726 10.117,29.702 9.987,29.655 9.858,29.607 9.715,29.56 9.584,29.512 
			9.466,29.441 9.337,29.393 9.206,29.325 9.087,29.254 8.97,29.183 8.852,29.112 8.733,29.041 8.626,28.945 8.519,28.874 
			8.414,28.779 8.307,28.684 8.212,28.589 8.117,28.494 8.023,28.402 7.929,28.308 7.845,28.188 7.762,28.094 7.679,27.975 
			7.608,27.88 7.526,27.761 7.455,27.642 7.384,27.523 7.325,27.408 7.265,27.29 7.206,27.147 7.146,27.028 7.101,26.909 
			7.053,26.767 7.005,26.625 6.97,26.509 6.935,26.366 6.899,26.224 6.875,26.082 6.851,25.962 6.828,25.82 6.815,25.678 
			6.804,25.539 6.804,25.396 6.804,25.253 6.804,25.111 6.804,24.968 6.815,24.85 6.839,24.71 6.851,24.568 6.875,24.449 
			6.899,24.307 6.935,24.164 6.97,24.045 7.005,23.927 7.041,23.788 7.089,23.668 7.135,23.55 7.194,23.407 7.241,23.289 
			7.312,23.17 7.372,23.051 7.443,22.909 7.515,22.793 7.586,22.698 7.667,22.58 7.75,22.46 7.845,22.342 7.929,22.247 
			8.023,22.128 8.117,22.033 8.224,21.941 8.331,21.847 8.426,21.751 8.543,21.656 8.65,21.585 8.756,21.49 8.875,21.419 
			8.992,21.348 9.111,21.276 9.23,21.205 9.349,21.134 9.478,21.086 9.596,21.019 9.715,20.971 9.846,20.923 9.822,20.805 
			9.798,20.662 9.774,20.543 9.763,20.401 9.751,20.258 9.751,20.119 9.751,20 9.751,19.858 9.751,19.715 9.763,19.573 9.787,19.43 
			9.798,19.288 9.822,19.149 9.846,19.03 9.881,18.887 9.916,18.745 9.963,18.603 9.999,18.483 10.046,18.341 10.105,18.226 
			10.153,18.083 10.212,17.964 10.284,17.846 10.343,17.727 10.413,17.608 10.484,17.489 10.567,17.371 10.65,17.255 10.721,17.16 
			10.816,17.042 10.898,16.946 10.981,16.852 11.076,16.756 11.171,16.662 11.278,16.566 11.371,16.471 11.478,16.38 11.585,16.309 
			11.704,16.213 11.809,16.142 11.928,16.071 12.046,16 12.177,15.928 12.294,15.857 12.425,15.81 12.556,15.738 12.685,15.691 
			12.815,15.644 12.946,15.596 13.076,15.548 13.217,15.524 13.348,15.48 13.49,15.457 13.619,15.433 13.762,15.409 13.904,15.409 
			14.035,15.386 14.176,15.386 14.307,15.386 14.449,15.386 14.578,15.386 14.72,15.386 14.851,15.409 14.98,15.409 15.111,15.433 
			15.241,15.457 15.384,15.48 15.513,15.524 15.644,15.548 15.774,15.596 15.903,15.644 16.034,15.691 16.164,15.738 16.283,15.786 
			16.412,15.857 16.542,15.928 16.662,16 16.78,16.071 16.897,16.142 17.016,16.213 17.135,16.309 17.242,16.38 17.347,16.471 
			17.454,16.566 17.561,16.662 17.656,16.756 17.749,16.852 17.844,16.97 17.927,17.065 18.022,17.184 18.105,17.279 18.177,17.395 
			18.258,17.513 18.317,17.632 18.389,17.75 18.448,17.87 18.519,17.988 18.567,18.107 18.626,18.226 18.672,18.341 18.719,18.483 
			18.767,18.603 18.803,18.745 18.838,18.864 18.874,19.006 18.897,19.149 18.921,19.288 18.945,19.407 18.957,19.549 
			18.969,19.692 18.969,19.834 18.981,19.977 18.969,20.119 18.969,20.258 18.957,20.401 18.945,20.543 18.921,20.686 
			18.897,20.805 18.874,20.947 18.838,21.086 18.814,21.229 18.767,21.348 18.731,21.49 18.684,21.609 18.638,21.728 18.579,21.87 
			18.519,21.985 18.46,22.104 20.862,23.431 20.72,23.645 20.484,23.998 20.247,24.378 20.034,24.731 19.833,25.111 19.643,25.491 
			19.549,25.701 19.454,25.891 19.371,26.105 19.288,26.295 19.205,26.509 19.133,26.719 19.064,26.909 19.004,27.123 
			18.933,27.337 18.874,27.547 18.826,27.761 18.767,27.975 18.684,28.402 18.603,28.827 18.543,29.254 		"/>
	</g>
	<g id="HATCH_9_">
		<polygon fill-rule="evenodd" clip-rule="evenodd" points="54.044,23.312 56.209,22.104 56.148,21.985 56.087,21.87 56.04,21.728 
			55.992,21.609 55.948,21.49 55.9,21.348 55.863,21.229 55.829,21.086 55.795,20.947 55.769,20.805 55.748,20.686 55.734,20.543 
			55.711,20.401 55.711,20.258 55.7,20.119 55.7,19.977 55.7,19.834 55.711,19.692 55.721,19.549 55.734,19.407 55.758,19.288 
			55.781,19.149 55.806,19.006 55.843,18.864 55.877,18.745 55.911,18.603 55.958,18.483 55.992,18.341 56.053,18.226 
			56.101,18.107 56.162,17.988 56.22,17.87 56.277,17.75 56.352,17.632 56.42,17.513 56.491,17.395 56.576,17.279 56.657,17.184 
			56.738,17.065 56.834,16.97 56.915,16.852 57.023,16.756 57.119,16.662 57.228,16.566 57.332,16.471 57.438,16.38 57.546,16.309 
			57.662,16.213 57.771,16.142 57.886,16.071 58.018,16 58.137,15.928 58.256,15.857 58.385,15.786 58.517,15.738 58.646,15.691 
			58.774,15.644 58.903,15.596 59.036,15.548 59.168,15.524 59.297,15.48 59.426,15.457 59.555,15.433 59.684,15.409 59.826,15.409 
			59.959,15.386 60.091,15.386 60.23,15.386 60.362,15.386 60.505,15.386 60.634,15.386 60.776,15.409 60.919,15.409 61.048,15.433 
			61.19,15.457 61.319,15.48 61.462,15.524 61.591,15.548 61.733,15.596 61.862,15.644 61.991,15.691 62.124,15.738 62.256,15.81 
			62.372,15.857 62.501,15.928 62.623,16 62.738,16.071 62.86,16.142 62.976,16.213 63.084,16.309 63.189,16.38 63.295,16.471 
			63.403,16.566 63.498,16.662 63.593,16.756 63.688,16.852 63.783,16.946 63.864,17.042 63.946,17.16 64.027,17.255 64.112,17.371 
			64.184,17.489 64.255,17.608 64.326,17.727 64.395,17.846 64.455,17.964 64.517,18.083 64.574,18.226 64.621,18.341 
			64.669,18.483 64.717,18.603 64.75,18.745 64.788,18.887 64.821,19.03 64.846,19.149 64.869,19.288 64.893,19.43 64.903,19.573 
			64.917,19.715 64.931,19.858 64.931,20 64.931,20.119 64.917,20.258 64.903,20.401 64.893,20.543 64.883,20.662 64.855,20.805 
			64.835,20.923 64.95,20.971 65.083,21.019 65.202,21.086 65.317,21.134 65.449,21.205 65.568,21.276 65.684,21.348 65.792,21.419 
			65.911,21.49 66.029,21.585 66.135,21.656 66.24,21.751 66.349,21.847 66.457,21.941 66.552,22.033 66.644,22.128 66.739,22.247 
			66.834,22.342 66.919,22.46 67,22.58 67.082,22.698 67.163,22.793 67.237,22.909 67.306,23.051 67.366,23.17 67.428,23.289 
			67.485,23.407 67.529,23.55 67.591,23.668 67.625,23.788 67.672,23.927 67.709,24.045 67.747,24.164 67.767,24.307 67.805,24.449 
			67.814,24.568 67.842,24.71 67.852,24.85 67.862,24.968 67.876,25.111 67.876,25.253 67.876,25.396 67.862,25.539 67.852,25.678 
			67.842,25.82 67.828,25.962 67.805,26.082 67.767,26.224 67.747,26.366 67.709,26.509 67.662,26.625 67.625,26.767 67.577,26.909 
			67.52,27.028 67.476,27.147 67.414,27.29 67.354,27.408 67.285,27.523 67.211,27.642 67.143,27.761 67.068,27.88 66.986,27.975 
			66.919,28.094 66.834,28.188 66.739,28.308 66.654,28.402 66.562,28.494 66.468,28.589 66.362,28.684 66.268,28.779 
			66.158,28.874 66.054,28.945 65.935,29.041 65.815,29.112 65.711,29.183 65.582,29.254 65.46,29.325 65.344,29.393 65.212,29.441 
			65.083,29.512 64.95,29.56 64.821,29.607 64.692,29.655 64.55,29.702 64.421,29.726 64.289,29.773 64.149,29.797 64.018,29.821 
			63.875,29.845 63.746,29.868 63.604,29.868 63.471,29.868 63.332,29.892 63.199,29.892 63.057,29.868 62.928,29.868 
			62.799,29.868 62.67,29.845 62.527,29.821 62.398,29.797 62.267,29.773 62.134,29.75 61.991,29.702 61.862,29.678 61.733,29.631 
			61.604,29.583 61.476,29.512 61.344,29.464 61.225,29.417 61.096,29.346 60.977,29.278 60.845,29.207 60.729,29.135 
			60.621,29.041 60.505,28.969 60.396,28.874 60.278,28.803 60.183,28.708 60.078,28.613 59.982,28.518 59.888,28.402 
			59.793,28.308 59.697,28.212 59.616,28.094 59.535,27.999 59.46,27.88 59.379,27.761 59.308,27.666 56.447,29.254 56.386,28.827 
			56.314,28.402 56.22,27.975 56.172,27.761 56.114,27.547 56.053,27.337 55.992,27.123 55.924,26.909 55.853,26.719 55.781,26.509 
			55.711,26.295 55.626,26.105 55.53,25.891 55.449,25.701 55.354,25.491 55.164,25.111 54.954,24.731 54.74,24.378 54.516,23.998 
			54.278,23.645 		"/>
	</g>
	<g id="HATCH_10_">
		<polygon fill-rule="evenodd" clip-rule="evenodd" points="22.578,48.186 17.406,51.073 17.466,51.192 17.525,51.311 17.572,51.43 
			17.62,51.545 17.667,51.688 17.715,51.807 17.749,51.949 17.785,52.092 17.808,52.21 17.844,52.353 17.868,52.492 17.879,52.635 
			17.892,52.777 17.903,52.896 17.915,53.038 17.915,53.181 17.915,53.32 17.903,53.462 17.892,53.604 17.879,53.747 17.856,53.89 
			17.832,54.032 17.808,54.151 17.773,54.29 17.737,54.433 17.703,54.552 17.656,54.694 17.608,54.812 17.561,54.955 17.513,55.074 
			17.454,55.189 17.395,55.309 17.335,55.427 17.266,55.546 17.194,55.665 17.123,55.76 17.04,55.879 16.957,55.997 16.874,56.089 
			16.78,56.208 16.685,56.303 16.59,56.397 16.495,56.517 16.388,56.611 16.283,56.683 16.176,56.777 16.069,56.873 15.951,56.944 
			15.833,57.035 15.715,57.106 15.596,57.178 15.477,57.249 15.348,57.297 15.229,57.368 15.099,57.416 14.97,57.487 14.839,57.534 
			14.708,57.559 14.578,57.605 14.449,57.653 14.318,57.677 14.188,57.7 14.057,57.725 13.928,57.748 13.786,57.771 13.655,57.771 
			13.526,57.796 13.383,57.796 13.253,57.796 13.112,57.796 12.981,57.771 12.839,57.771 12.696,57.748 12.567,57.725 12.425,57.7 
			12.294,57.677 12.153,57.653 12.022,57.605 11.88,57.559 11.75,57.511 11.621,57.463 11.49,57.416 11.359,57.368 11.23,57.297 
			11.111,57.226 10.993,57.178 10.874,57.106 10.757,57.012 10.638,56.944 10.531,56.873 10.424,56.777 10.319,56.683 
			10.212,56.611 10.117,56.517 10.022,56.421 9.927,56.326 9.834,56.231 9.751,56.112 9.667,56.021 9.584,55.902 9.501,55.808 
			9.432,55.688 9.36,55.569 9.29,55.451 9.218,55.332 9.159,55.189 9.099,55.074 9.04,54.955 8.992,54.812 8.947,54.694 
			8.899,54.552 8.863,54.409 8.828,54.29 8.792,54.151 8.769,54.009 8.745,53.866 8.721,53.724 8.709,53.581 8.697,53.462 
			8.685,53.32 8.685,53.181 8.685,53.038 8.697,52.896 8.709,52.777 8.721,52.635 8.733,52.492 8.756,52.377 8.78,52.234 
			8.662,52.187 8.531,52.139 8.414,52.092 8.295,52.021 8.165,51.973 8.047,51.901 7.929,51.83 7.81,51.759 7.703,51.664 
			7.586,51.593 7.479,51.498 7.372,51.406 7.265,51.335 7.158,51.239 7.065,51.121 6.97,51.026 6.875,50.931 6.78,50.812 
			6.697,50.717 6.615,50.599 6.532,50.483 6.449,50.364 6.378,50.245 6.307,50.127 6.247,50.008 6.189,49.889 6.13,49.747 
			6.071,49.628 6.023,49.513 5.988,49.37 5.94,49.251 5.904,49.108 5.869,48.99 5.845,48.871 5.81,48.729 5.786,48.59 5.774,48.471 
			5.762,48.328 5.75,48.186 5.74,48.043 5.74,47.9 5.74,47.762 5.75,47.643 5.75,47.5 5.774,47.357 5.786,47.215 5.81,47.072 
			5.833,46.93 5.869,46.791 5.904,46.672 5.94,46.529 5.988,46.387 6.035,46.269 6.083,46.126 6.142,46.007 6.201,45.892 
			6.259,45.749 6.33,45.631 6.401,45.512 6.473,45.393 6.544,45.298 6.627,45.179 6.697,45.084 6.78,44.969 6.875,44.874 
			6.958,44.778 7.053,44.66 7.146,44.565 7.253,44.47 7.348,44.398 7.455,44.304 7.562,44.209 7.679,44.138 7.798,44.069 
			7.905,43.975 8.036,43.903 8.152,43.832 8.271,43.784 8.402,43.713 8.531,43.666 8.662,43.595 8.792,43.547 8.923,43.499 
			9.052,43.476 9.194,43.428 9.325,43.404 9.466,43.357 9.596,43.333 9.739,43.333 9.87,43.31 10.01,43.286 10.141,43.286 
			10.284,43.286 10.413,43.286 10.555,43.286 10.686,43.286 10.816,43.31 10.945,43.31 11.076,43.333 11.218,43.357 11.347,43.381 
			11.478,43.428 11.621,43.452 11.75,43.499 11.88,43.547 12.011,43.595 12.142,43.642 12.271,43.689 12.389,43.761 12.52,43.832 
			12.639,43.88 12.756,43.951 12.875,44.046 12.993,44.113 13.112,44.185 13.217,44.28 13.324,44.375 13.431,44.47 13.538,44.565 
			13.631,44.66 13.726,44.755 13.821,44.85 13.916,44.969 14,45.061 14.081,45.179 14.152,45.274 14.235,45.393 14.307,45.512 
			20.175,42.224 20.282,42.481 20.401,42.719 20.542,43.004 20.684,43.286 20.827,43.523 20.968,43.784 21.241,44.209 
			22.294,45.773 22.399,45.939 22.435,46.007 22.471,46.078 22.506,46.149 22.53,46.174 22.542,46.221 22.566,46.269 22.589,46.34 
			22.613,46.387 22.637,46.458 22.661,46.506 22.673,46.577 22.696,46.625 22.708,46.696 22.72,46.743 22.732,46.814 22.744,46.862 
			22.756,46.93 22.756,47.001 22.768,47.072 22.768,47.144 22.78,47.215 22.78,47.263 22.78,47.311 22.78,47.357 22.78,47.405 
			22.768,47.429 22.768,47.477 22.768,47.5 22.756,47.548 22.756,47.571 22.756,47.596 22.756,47.596 22.756,47.596 22.744,47.596 
			22.744,47.619 22.744,47.619 22.732,47.666 22.661,47.877 22.625,47.996 22.602,48.091 		"/>
	</g>
	<g id="HATCH_11_">
		<polygon fill-rule="evenodd" clip-rule="evenodd" points="54.75,42.362 60.373,45.512 60.444,45.393 60.516,45.274 60.597,45.179 
			60.682,45.061 60.763,44.969 60.845,44.85 60.939,44.755 61.034,44.66 61.144,44.565 61.238,44.47 61.344,44.375 61.448,44.28 
			61.567,44.185 61.673,44.113 61.795,44.046 61.91,43.951 62.029,43.88 62.161,43.832 62.276,43.761 62.409,43.689 62.538,43.642 
			62.67,43.595 62.799,43.547 62.928,43.499 63.057,43.452 63.189,43.428 63.332,43.381 63.461,43.357 63.593,43.333 63.723,43.31 
			63.864,43.31 63.993,43.286 64.123,43.286 64.255,43.286 64.395,43.286 64.526,43.286 64.669,43.286 64.798,43.31 64.94,43.333 
			65.072,43.333 65.212,43.357 65.344,43.404 65.486,43.428 65.615,43.476 65.744,43.499 65.887,43.547 66.016,43.595 
			66.146,43.666 66.277,43.713 66.396,43.784 66.525,43.832 66.644,43.903 66.763,43.975 66.882,44.069 67,44.138 67.105,44.209 
			67.211,44.304 67.319,44.398 67.428,44.47 67.52,44.565 67.625,44.66 67.709,44.778 67.805,44.874 67.89,44.969 67.971,45.084 
			68.052,45.179 68.134,45.298 68.208,45.393 68.276,45.512 68.351,45.631 68.408,45.749 68.479,45.892 68.527,46.007 
			68.585,46.126 68.633,46.269 68.68,46.387 68.728,46.529 68.765,46.672 68.799,46.791 68.833,46.93 68.859,47.072 68.88,47.215 
			68.904,47.357 68.914,47.5 68.928,47.643 68.928,47.762 68.941,47.9 68.928,48.043 68.928,48.186 68.914,48.328 68.904,48.471 
			68.88,48.59 68.859,48.729 68.833,48.871 68.799,48.99 68.774,49.108 68.737,49.251 68.69,49.37 68.643,49.513 68.595,49.628 
			68.548,49.747 68.49,49.889 68.433,50.008 68.361,50.127 68.29,50.245 68.219,50.364 68.147,50.483 68.065,50.599 67.98,50.717 
			67.899,50.812 67.805,50.931 67.709,51.026 67.614,51.121 67.509,51.239 67.414,51.335 67.306,51.406 67.2,51.498 67.082,51.593 
			66.977,51.664 66.857,51.759 66.739,51.83 66.62,51.901 66.505,51.973 66.383,52.021 66.268,52.092 66.135,52.139 66.016,52.187 
			65.887,52.234 65.911,52.377 65.935,52.492 65.958,52.635 65.969,52.777 65.982,52.896 65.982,53.038 65.982,53.181 65.982,53.32 
			65.982,53.462 65.969,53.581 65.958,53.724 65.935,53.866 65.911,54.009 65.887,54.151 65.854,54.29 65.815,54.409 65.778,54.552 
			65.731,54.694 65.684,54.812 65.64,54.955 65.582,55.074 65.521,55.189 65.449,55.332 65.392,55.451 65.317,55.569 65.249,55.688 
			65.168,55.808 65.093,55.902 65.012,56.021 64.931,56.112 64.835,56.231 64.75,56.326 64.659,56.421 64.563,56.517 64.469,56.611 
			64.36,56.683 64.255,56.777 64.149,56.873 64.027,56.944 63.923,57.012 63.804,57.106 63.688,57.178 63.566,57.226 63.438,57.297 
			63.309,57.368 63.189,57.416 63.057,57.463 62.928,57.511 62.785,57.559 62.656,57.605 62.527,57.653 62.385,57.677 62.242,57.7 
			62.113,57.725 61.972,57.748 61.842,57.771 61.7,57.771 61.558,57.796 61.429,57.796 61.286,57.796 61.153,57.796 61.015,57.771 
			60.882,57.771 60.75,57.748 60.621,57.725 60.491,57.7 60.362,57.677 60.23,57.653 60.091,57.605 59.959,57.559 59.826,57.534 
			59.697,57.487 59.582,57.416 59.45,57.368 59.317,57.297 59.202,57.249 59.073,57.178 58.951,57.106 58.836,57.035 58.717,56.944 
			58.611,56.873 58.489,56.777 58.385,56.683 58.279,56.611 58.185,56.517 58.075,56.397 57.98,56.303 57.886,56.208 57.804,56.089 
			57.723,55.997 57.642,55.879 57.557,55.76 57.485,55.665 57.414,55.546 57.343,55.427 57.285,55.309 57.228,55.189 57.166,55.074 
			57.105,54.955 57.058,54.812 57.01,54.694 56.977,54.552 56.929,54.433 56.895,54.29 56.871,54.151 56.834,54.032 56.813,53.89 
			56.8,53.747 56.776,53.604 56.766,53.462 56.766,53.32 56.766,53.181 56.766,53.038 56.766,52.896 56.776,52.777 56.786,52.635 
			56.813,52.492 56.834,52.353 56.86,52.21 56.895,52.092 56.929,51.949 56.963,51.807 57,51.688 57.048,51.545 57.105,51.43 
			57.152,51.311 57.214,51.192 57.274,51.073 52.456,48.376 52.456,48.352 52.442,48.28 52.433,48.209 52.409,48.162 52.396,48.091 
			52.361,47.996 52.338,47.877 52.256,47.643 52.246,47.619 52.246,47.619 52.246,47.596 52.246,47.596 52.246,47.596 
			52.232,47.571 52.232,47.548 52.232,47.5 52.219,47.477 52.219,47.429 52.219,47.405 52.219,47.357 52.219,47.311 52.219,47.263 
			52.219,47.215 52.219,47.144 52.232,47.072 52.232,47.001 52.246,46.93 52.256,46.862 52.267,46.814 52.279,46.743 52.293,46.696 
			52.304,46.625 52.313,46.577 52.338,46.506 52.348,46.458 52.375,46.387 52.396,46.34 52.422,46.269 52.442,46.221 52.48,46.149 
			52.518,46.078 52.551,46.007 52.599,45.939 52.707,45.773 53.759,44.209 54.018,43.784 54.173,43.523 54.302,43.286 
			54.458,43.004 54.601,42.719 		"/>
	</g>
	<g id="HATCH_12_">
		<path fill-rule="evenodd" clip-rule="evenodd" d="M37.5,17.489l0.888,0.024l0.84,0.024l0.39,0.047l0.391,0.023l0.366,0.048
			l0.356,0.047l0.343,0.047l0.319,0.048l0.318,0.071l0.309,0.047l0.296,0.071l0.285,0.071l0.283,0.071l0.26,0.095l0.261,0.068
			l0.236,0.095l0.249,0.071l0.224,0.095l0.226,0.095l0.211,0.095l0.414,0.19l0.394,0.19l0.366,0.21l0.686,0.38l1.256,0.781
			l0.566,0.356l0.546,0.377l0.52,0.404l0.248,0.19l0.251,0.187l0.244,0.214l0.237,0.214l0.238,0.214l0.224,0.237l0.224,0.21
			l0.228,0.237l0.224,0.262l0.214,0.234l0.214,0.261l0.214,0.261l0.2,0.285l0.187,0.258l0.19,0.285l0.177,0.285l0.169,0.282
			l0.163,0.309l0.156,0.285l0.143,0.305l0.129,0.309L53.63,27.1l0.059,0.166l0.058,0.143l0.061,0.163l0.048,0.142l0.047,0.167
			l0.082,0.309l0.081,0.329l0.075,0.333l0.054,0.333l0.048,0.329l0.037,0.356l0.037,0.356l0.021,0.353l0.027,0.356v0.376v0.76
			l-0.027,0.804l-0.047,0.852l-0.068,0.875l-0.095,0.875l-0.108,0.875l-0.129,0.875l-0.156,0.828l-0.149,0.78l-0.095,0.38
			l-0.096,0.354l-0.095,0.332l-0.095,0.333l-0.109,0.305l-0.104,0.285l-0.105,0.262l-0.108,0.258l-0.105,0.262l-0.119,0.237
			l-0.108,0.214l-0.115,0.21l-0.108,0.19l-0.105,0.189l-0.228,0.356l-1.052,1.562l-0.129,0.213l-0.071,0.119l-0.058,0.095
			l-0.048,0.092l-0.061,0.119l-0.048,0.095l-0.047,0.119l-0.048,0.095l-0.034,0.119l-0.033,0.095L50.22,45.82l-0.037,0.119
			l-0.021,0.092l-0.027,0.118l-0.02,0.096l-0.027,0.095l-0.021,0.118l-0.014,0.096l-0.014,0.095l-0.021,0.095v0.096l-0.014,0.091
			l-0.01,0.096v0.095v0.095v0.096v0.071v0.095l0.01,0.071v0.095l0.014,0.071v0.071l0.011,0.068l0.01,0.071l0.014,0.071l0.014,0.071
			l0.01,0.047l0.024,0.071l0.014,0.048l0.033,0.095l0.071,0.237l0.011,0.048l0.014,0.048l0.014,0.023v0.021l0.01,0.023v0.023v0.024
			l0.01,0.023v0.023v0.024v0.023v0.023v0.048v0.023v0.024v0.023v0.023v0.024v0.023l-0.01,0.048v0.023l-0.01,0.023v0.024
			l-0.014,0.023v0.048l-0.014,0.023v0.023l-0.011,0.024l-0.01,0.023l-0.014,0.023l-0.014,0.048l-0.01,0.023l-0.011,0.023
			l-0.014,0.024l-0.014,0.023l-0.01,0.023l-0.023,0.024l-0.014,0.023l-0.011,0.021l-0.01,0.023h-0.014H50.04v0.024h-0.01
			l-0.011,0.023h-0.014l-0.01,0.023l0,0h-0.01l-0.014,0.024h-0.014l-0.011,0.023h-0.01h-0.014l-0.014,0.023h-0.01h-0.011
			l-0.027,0.024l-0.02,0.023l-0.038,0.023h-0.023l-0.034,0.023h-0.027l-0.033,0.024l-0.082,0.023l-2.759,1.065l-1.68,0.709
			l-0.332,0.143l-0.271,0.143l-0.225,0.119l-0.106,0.048l-0.095,0.047l-0.083,0.048l-0.082,0.048l-0.071,0.047l-0.06,0.044
			l-0.059,0.048l-0.06,0.048l-0.048,0.047l-0.048,0.048l-0.047,0.023l-0.036,0.048l-0.046,0.048l-0.012,0.023l-0.023,0.023
			l-0.012,0.024l-0.024,0.023l-0.012,0.023l-0.023,0.024l-0.012,0.023l-0.023,0.023l-0.013,0.024l-0.012,0.023l-0.012,0.023
			L43.31,52.99l-0.023,0.024l-0.013,0.023l-0.023,0.048l-0.023,0.047l-0.024,0.048l-0.023,0.071L43.167,53.3l-0.023,0.067
			l-0.024,0.048l-0.012,0.071l-0.023,0.071l-0.011,0.071l-0.035,0.143l-0.023,0.166l-0.024,0.166l-0.023,0.187l-0.023,0.214
			l-0.048,0.686l-0.012,0.119l-0.024,0.118v0.071l-0.012,0.048l-0.023,0.071l-0.012,0.071l-0.012,0.048l-0.024,0.071l-0.012,0.071
			l-0.023,0.047l-0.023,0.071l-0.024,0.048l-0.023,0.044l-0.012,0.023l-0.012,0.024l-0.013,0.023l-0.021,0.048l-0.012,0.023
			l-0.024,0.023l-0.012,0.024l-0.023,0.047l-0.024,0.024l-0.012,0.023l-0.023,0.023l-0.023,0.023l-0.024,0.048l-0.023,0.023
			l-0.023,0.024l-0.024,0.023l-0.023,0.023l-0.023,0.024l-0.036,0.023l-0.023,0.023l-0.023,0.048l-0.036,0.023l-0.035,0.024
			l-0.022,0.023l-0.035,0.023l-0.036,0.024l-0.035,0.023l-0.036,0.023l-0.035,0.024l-0.036,0.023l-0.048,0.023l-0.035,0.024h-0.048
			l-0.035,0.023l-0.048,0.023l-0.093,0.044l-0.096,0.048l-0.106,0.023l-0.107,0.048l-0.116,0.023l-0.119,0.048l-0.131,0.023
			L40.8,57.273l-0.141,0.023l-0.154,0.048l-0.319,0.047l-0.354,0.024l-0.392,0.047l-0.426,0.024l-0.462,0.023H37.5h-1.054
			l-0.461-0.023l-0.426-0.024l-0.39-0.047l-0.356-0.024l-0.331-0.047l-0.143-0.048l-0.152-0.023l-0.131-0.024l-0.13-0.023
			l-0.117-0.048l-0.119-0.023l-0.107-0.048l-0.107-0.023l-0.105-0.048l-0.083-0.044l-0.047-0.023l-0.048-0.023h-0.035l-0.048-0.024
			l-0.036-0.023l-0.036-0.023l-0.036-0.024l-0.047-0.023l-0.022-0.023l-0.036-0.024l-0.036-0.023l-0.036-0.023l-0.024-0.024
			l-0.036-0.023l-0.023-0.048l-0.036-0.023l-0.024-0.023l-0.024-0.024l-0.023-0.023L32.6,56.517l-0.024-0.024l-0.024-0.023
			l-0.023-0.048l-0.012-0.023l-0.024-0.023l-0.022-0.023l-0.024-0.024l-0.012-0.047l-0.024-0.024L32.4,56.231l-0.024-0.023
			l-0.012-0.048l-0.012-0.023l-0.023-0.024l-0.012-0.023l-0.012-0.044l-0.023-0.048l-0.024-0.071l-0.024-0.047l-0.023-0.071
			l-0.012-0.071l-0.023-0.048l-0.012-0.071l-0.012-0.071l-0.012-0.048l-0.012-0.071l-0.012-0.118l-0.012-0.119l-0.06-0.686
			l-0.012-0.214l-0.022-0.187l-0.024-0.166l-0.036-0.166l-0.024-0.143l-0.023-0.071l-0.012-0.071l-0.023-0.071l-0.012-0.048
			L31.832,53.3l-0.024-0.048l-0.024-0.071l-0.023-0.048l-0.024-0.047l-0.024-0.048l-0.012-0.023l-0.012-0.024l-0.012-0.023
			l-0.012-0.023l-0.023-0.023l-0.012-0.024l-0.012-0.023l-0.024-0.023l-0.012-0.024l-0.012-0.023l-0.022-0.023l-0.012-0.024
			l-0.024-0.023l-0.023-0.023l-0.036-0.048l-0.047-0.048l-0.036-0.023l-0.048-0.048l-0.059-0.047l-0.048-0.048l-0.059-0.048
			l-0.07-0.044l-0.071-0.047l-0.071-0.048l-0.095-0.048l-0.083-0.047l-0.107-0.048l-0.224-0.119l-0.283-0.143l-0.321-0.143
			l-1.68-0.709l-2.769-1.065l-0.071-0.023l-0.036-0.024H25.24l-0.024-0.023H25.18l-0.023-0.023l-0.024-0.023l-0.034-0.024h-0.012
			h-0.012l-0.012-0.023h-0.012l0,0l-0.012-0.023h-0.012l-0.012-0.024h-0.012h-0.012l-0.012-0.023h-0.012v-0.023h-0.012l-0.012-0.024
			h-0.012l0,0l-0.012-0.023l-0.024-0.021l-0.012-0.023l-0.012-0.024l-0.012-0.023l-0.012-0.023l-0.024-0.024l-0.012-0.023
			l-0.012-0.023l-0.012-0.048V49.37l-0.012-0.023l-0.012-0.024l-0.012-0.023v-0.023l-0.012-0.048v-0.023l-0.012-0.024v-0.023
			l-0.012-0.023v-0.048v-0.023v-0.024l-0.012-0.023V48.99v-0.024v-0.023v-0.048v-0.023l0.012-0.023v-0.024V48.8v-0.023v-0.024
			l0.012-0.023v-0.023l0.012-0.021v-0.023l0.024-0.048l0.012-0.048l0.071-0.237l0.036-0.095l0.012-0.048l0.012-0.071l0.012-0.047
			l0.012-0.071l0.012-0.071l0.012-0.071l0.012-0.068l0.012-0.071v-0.071l0.012-0.095v-0.071l0.012-0.095v-0.071v-0.096l-0.012-0.095
			v-0.095V46.93l-0.012-0.091l-0.012-0.096l-0.012-0.095l-0.012-0.095l-0.023-0.096l-0.012-0.118l-0.024-0.095l-0.024-0.096
			l-0.023-0.118l-0.036-0.092l-0.024-0.119l-0.036-0.095l-0.036-0.095l-0.047-0.119l-0.046-0.095l-0.036-0.119l-0.06-0.095
			l-0.047-0.119l-0.06-0.092l-0.059-0.095l-0.06-0.119l-0.129-0.213l-1.065-1.562l-0.214-0.356l-0.105-0.189l-0.119-0.19
			l-0.107-0.21l-0.119-0.214l-0.105-0.237l-0.107-0.262l-0.119-0.258l-0.107-0.262l-0.107-0.285l-0.093-0.305l-0.107-0.333
			l-0.095-0.332l-0.083-0.354l-0.095-0.38l-0.165-0.78l-0.143-0.828l-0.13-0.875l-0.105-0.875l-0.095-0.875l-0.071-0.875
			l-0.047-0.852l-0.024-0.804l-0.012-0.76l0.012-0.376l0.012-0.356l0.024-0.353l0.036-0.356l0.047-0.356l0.048-0.329l0.059-0.333
			l0.06-0.333l0.082-0.329l0.095-0.309l0.047-0.167l0.048-0.142l0.047-0.163l0.06-0.143l0.059-0.166l0.07-0.143l0.13-0.309
			l0.143-0.305l0.154-0.285l0.153-0.309l0.178-0.282l0.176-0.285l0.19-0.285l0.19-0.258l0.2-0.285l0.202-0.261l0.212-0.261
			l0.226-0.234l0.212-0.262l0.226-0.237l0.224-0.21l0.237-0.237l0.236-0.214l0.238-0.214l0.236-0.214l0.25-0.187l0.248-0.19
			l0.521-0.404l0.544-0.377l0.58-0.356l1.254-0.781l0.686-0.38l0.368-0.21l0.39-0.19l0.402-0.19l0.224-0.095l0.213-0.095
			l0.236-0.095l0.238-0.071l0.248-0.095l0.261-0.068l0.26-0.095l0.273-0.071l0.284-0.071l0.295-0.071l0.309-0.047l0.319-0.071
			l0.331-0.048l0.344-0.047l0.354-0.047l0.367-0.048l0.378-0.023l0.402-0.047l0.83-0.024L37.5,17.489z M34.151,39.902l0.012,0.19
			l0.012,0.166l0.012,0.163v0.166v0.143l-0.012,0.143v0.071l-0.012,0.071l-0.012,0.071v0.071l-0.012,0.071l-0.012,0.047
			l-0.012,0.068l-0.012,0.071l-0.023,0.071l-0.012,0.071l-0.023,0.071l-0.012,0.071l-0.024,0.071l-0.024,0.071l-0.036,0.071
			l-0.023,0.071l-0.024,0.071l-0.034,0.071L33.832,42.2l-0.035,0.067l-0.048,0.071l-0.036,0.071l-0.047,0.071l-0.047,0.071
			l-0.095,0.166l-0.107,0.143l-0.105,0.143l-0.107,0.143l-0.119,0.14l-0.107,0.118l-0.105,0.143l-0.059,0.048l-0.048,0.047
			l-0.059,0.071l-0.06,0.048l-0.06,0.048l-0.059,0.047l-0.058,0.048l-0.06,0.048l-0.071,0.047l-0.071,0.048l-0.071,0.048
			l-0.071,0.044l-0.083,0.023l-0.082,0.048l-0.083,0.047l-0.095,0.024l-0.095,0.047l-0.107,0.048l-0.093,0.023l-0.107,0.024
			l-0.107,0.047l-0.119,0.024l-0.105,0.023h-0.119l-0.06,0.023h-0.047h-0.059l-0.06,0.024h-0.06h-0.058H30.53h-0.06h-0.06h-0.059
			h-0.06h-0.06l-0.058-0.024h-0.059h-0.06l-0.06-0.023h-0.059l-0.06-0.023h-0.059l-0.06-0.024l-0.058-0.023h-0.06l-0.119-0.048
			l-0.107-0.023l-0.119-0.048l-0.105-0.047l-0.107-0.048l-0.106-0.048l-0.095-0.071l-0.105-0.044l-0.095-0.047l-0.095-0.071
			l-0.095-0.048l-0.083-0.071l-0.082-0.048l-0.083-0.071l-0.071-0.047l-0.071-0.071l-0.071-0.048l-0.071-0.071l-0.071-0.071
			l-0.058-0.047l-0.06-0.071l-0.06-0.071l-0.059-0.068l-0.048-0.071l-0.059-0.071L27.5,42.933l-0.048-0.071l-0.046-0.071
			l-0.047-0.071l-0.047-0.071l-0.036-0.095l-0.047-0.071l-0.036-0.071l-0.036-0.095l-0.036-0.068l-0.036-0.095l-0.036-0.095
			l-0.036-0.071l-0.024-0.096l-0.024-0.095l-0.034-0.095l-0.024-0.095l-0.012-0.096l-0.024-0.095l-0.023-0.092l-0.012-0.095
			l-0.012-0.095l-0.024-0.19l-0.023-0.19l-0.012-0.214l-0.012-0.187v-0.189v-0.19v-0.189l0.012-0.19l0.012-0.187l0.012-0.071
			l0.012-0.095l0.012-0.096l0.012-0.095l0.012-0.071l0.024-0.095l0.012-0.071l0.024-0.096l0.024-0.071l0.034-0.091l0.024-0.071
			l0.036-0.071l0.023-0.096l0.036-0.071l0.048-0.071l0.036-0.07l0.047-0.071l0.047-0.096l0.048-0.071l0.047-0.071l0.047-0.071
			l0.058-0.071l0.048-0.068l0.059-0.071l0.119-0.143l0.131-0.143l0.069-0.071l0.06-0.071l0.071-0.071l0.071-0.071l0.083-0.071
			l0.071-0.071l0.083-0.071l0.082-0.044l0.083-0.071l0.083-0.047l0.083-0.071l0.095-0.047l0.047-0.024l0.046-0.024l0.047-0.023
			l0.047-0.024l0.048-0.024l0.047-0.023l0.047-0.024l0.047-0.024l0.107-0.047l0.105-0.023l0.107-0.024l0.107-0.047l0.107-0.024
			l0.105-0.024l0.107-0.023h0.107l0.107-0.024h0.105l0.107-0.024h0.107h0.107h0.107h0.105h0.095h0.107l0.095,0.024h0.048h0.045
			l0.048,0.024h0.047l0.06,0.023h0.047l0.047,0.024h0.048l0.047,0.024H31.5l0.047,0.023l0.046,0.024l0.048,0.024h0.047l0.047,0.023
			l0.047,0.024l0.048,0.023l0.059,0.024l0.048,0.024l0.047,0.023l0.046,0.048l0.047,0.023l0.107,0.071l0.095,0.048l0.106,0.095
			l0.095,0.071l0.105,0.068l0.107,0.095l0.095,0.095l0.107,0.095l0.093,0.095l0.095,0.119l0.095,0.095l0.083,0.119l0.095,0.119
			l0.082,0.091l0.036,0.071l0.036,0.048l0.036,0.071l0.036,0.047l0.036,0.071l0.036,0.048l0.036,0.071l0.023,0.047l0.036,0.071
			l0.024,0.048l0.024,0.071l0.023,0.071l0.047,0.118l0.046,0.115l0.036,0.119l0.036,0.119l0.024,0.118l0.024,0.119l0.023,0.119
			l0.024,0.118l0.023,0.119l0.024,0.21L34.151,39.902z M38.162,46.103l0.012-0.024l0.012-0.023v-0.023l0.012-0.024l0,0l0.012-0.023
			l0,0V45.96h0.012l0,0v-0.021h0.013l0,0l0.012-0.023l0,0l0,0l0.012-0.024l0,0h0.012l0,0l0.012-0.023l0,0l0,0h0.012l0,0l0.013-0.023
			l0,0l0,0h0.012l0,0l0,0l0,0l0,0h0.012l0,0l0,0l0,0h0.012V45.82l0,0l0,0l0,0h0.012l0,0l0,0l0,0h0.012l0,0l0,0l0,0l0,0h0.012l0,0
			l0,0l0,0l0,0h0.013l0,0l0,0l0,0h0.012l0,0l0,0l0,0l0,0h0.012l0,0l0,0l0,0l0,0h0.012l0,0l0,0l0,0l0,0l0.012,0.024l0,0l0,0l0,0l0,0
			h0.012l0,0l0,0l0,0l0,0l0,0h0.013l0,0l0,0l0,0l0,0v0.023h0.012l0,0l0,0l0,0h0.01l0,0v0.023h0.012l0,0l0,0l0,0l0.013,0.024l0,0l0,0
			l0.012,0.023l0,0l0.012,0.021l0,0l0.012,0.023v0.023l0.012,0.024l0.071,0.309l0.023,0.047l0.013,0.048l0.012,0.048l0.023,0.047
			l0.036,0.119l0.047,0.095l0.391,0.876l0.06,0.118l0.059,0.14l0.048,0.119l0.023,0.071l0.013,0.071l0.021,0.07l0.012,0.071
			l0.024,0.048l0.012,0.071l0.012,0.071l0.012,0.071l0.012,0.071v0.048v0.067l0.012,0.071v0.048v0.071v0.118l-0.012,0.096v0.095
			l-0.012,0.095l-0.012,0.096v0.023v0.023l-0.012,0.023v0.024l0,0v0.023h-0.012v0.023l0,0l0,0h-0.012v0.024l0,0l0,0l0,0
			l-0.013,0.023l0,0l0,0l0,0h-0.012v0.021l0,0l0,0h-0.01l0,0l0,0l-0.012,0.023l0,0l0,0h-0.013l0,0l0,0l-0.012,0.024l0,0l0,0h-0.012
			l0,0h-0.012l0,0h-0.012v0.023h-0.012l0,0h-0.013h-0.012h-0.012l-0.012,0.023h-0.012h-0.012h-0.024h-0.012H39.18h-0.023h-0.012
			H39.12l-0.012,0.024h-0.023h-0.012h-0.024l-0.012-0.024h-0.023h-0.012h-0.024h-0.012l0,0h-0.012h-0.012h-0.012H38.92v-0.023
			h-0.012h-0.012h-0.012l0,0h-0.012H38.86l-0.012-0.023l0,0h-0.012h-0.012h-0.012v-0.024h-0.012h-0.013h-0.012v-0.023h-0.012h-0.012
			l0,0l-0.012-0.021H38.73l0,0l-0.013-0.023h-0.012l0,0l-0.012-0.024h-0.012v-0.023h-0.012l-0.012-0.023l-0.013-0.024h-0.012
			l-0.012-0.023l-0.012-0.023L38.6,49.418l-0.012-0.024l-0.012-0.023l-0.013-0.023l-0.023-0.071l-0.023-0.048l-0.024-0.071
			l-0.021-0.048l-0.012-0.071l-0.036-0.143l-0.035-0.143l-0.071-0.305l-0.071-0.333l-0.024-0.189l-0.023-0.163l-0.023-0.19
			l-0.024-0.189l-0.012-0.19l-0.012-0.166l-0.012-0.187v-0.167v-0.095v-0.071l0.012-0.071v-0.071l0.012-0.071l0.012-0.071v-0.023
			v-0.048l0.013-0.023V46.103z M36.825,46.103v-0.024l-0.012-0.023l-0.012-0.023v-0.024h-0.012v-0.023l0,0l-0.012-0.023l0,0l0,0
			l-0.012-0.021l0,0h-0.012v-0.023l0,0h-0.012v-0.024h-0.012l0,0h-0.012v-0.023l0,0h-0.012l0,0h-0.012v-0.023h-0.012l0,0l0,0l0,0
			l0,0H36.67l0,0l0,0l0,0h-0.012l0,0l0,0V45.82l0,0h-0.012l0,0l0,0l0,0h-0.012l0,0l0,0l0,0l0,0h-0.01l0,0l0,0l0,0l0,0h-0.012l0,0
			l0,0l0,0h-0.012l0,0l0,0l0,0l0,0h-0.012l0,0l0,0l0,0l0,0h-0.012l0,0l0,0l0,0l0,0h-0.012l0,0v0.024l0,0l0,0h-0.012l0,0l0,0l0,0l0,0
			l0,0h-0.012l0,0l0,0l0,0l0,0h-0.012l0,0v0.023l0,0l0,0l0,0h-0.012l0,0l0,0l-0.012,0.023l0,0l0,0l0,0h-0.012v0.024l0,0h-0.012
			v0.023H36.47v0.021l0,0l-0.012,0.023v0.023l-0.012,0.024l-0.083,0.309l-0.012,0.047l-0.012,0.048l-0.023,0.048l-0.012,0.047
			l-0.047,0.119l-0.047,0.095l-0.391,0.876l-0.047,0.118l-0.058,0.14l-0.047,0.119l-0.024,0.071l-0.024,0.071l-0.012,0.07
			l-0.024,0.071l-0.012,0.048l-0.012,0.071l-0.012,0.071l-0.012,0.071l-0.012,0.071v0.048l-0.012,0.067V48.8v0.048v0.071v0.118
			v0.096l0.012,0.095v0.095l0.012,0.096l0.012,0.023v0.023v0.023v0.024h0.012v0.023l0,0l0.012,0.023l0,0l0,0l0,0v0.024h0.012l0,0
			l0,0v0.023l0,0h0.012l0,0l0,0v0.021h0.012l0,0l0,0h0.012l0,0v0.023l0,0h0.012l0,0l0,0h0.012v0.024h0.012l0,0l0,0h0.012l0,0h0.012
			l0,0l0.012,0.023l0,0h0.012l0,0h0.012h0.01l0.024,0.023h0.012h0.012h0.012h0.023h0.012h0.012h0.023h0.012l0.023,0.024h0.012h0.023
			h0.012l0.023-0.024h0.012h0.023h0.012h0.012h0.012h0.012h0.012l0,0h0.012l0.012-0.023h0.012l0,0h0.012h0.012h0.012h0.012v-0.023
			h0.012h0.012h0.01l0,0l0.012-0.024h0.012l0,0h0.012l0.012-0.023h0.012l0,0h0.012l0.012-0.021l0,0h0.012l0.012-0.023l0,0h0.012
			l0.012-0.024l0,0l0.012-0.023l0,0l0.023-0.023l0.012-0.024h0.012l0.012-0.023l0.012-0.023l0.012-0.023l0.012-0.024l0.012-0.023
			l0.012-0.023l0.023-0.071l0.024-0.048l0.012-0.071l0.024-0.048l0.024-0.071l0.036-0.143l0.036-0.143l0.069-0.305l0.06-0.333
			l0.036-0.189l0.023-0.163l0.024-0.19l0.012-0.189l0.024-0.19l0.012-0.166v-0.187v-0.167v-0.095v-0.071v-0.071l-0.012-0.071v-0.071
			l-0.012-0.071v-0.023l-0.012-0.048v-0.023L36.825,46.103z M40.848,39.902l-0.023,0.19l-0.013,0.166v0.163v0.166v0.143v0.143
			l0.013,0.071v0.071l0.012,0.071l0.012,0.071l0.012,0.071l0.012,0.047l0.012,0.068l0.013,0.071l0.012,0.071l0.023,0.071
			l0.012,0.071l0.024,0.071l0.023,0.071l0.023,0.071l0.023,0.071l0.024,0.071l0.035,0.071l0.036,0.071l0.035,0.071l0.036,0.067
			l0.033,0.071l0.048,0.071l0.048,0.071l0.047,0.071l0.096,0.166l0.095,0.143l0.119,0.143l0.104,0.143l0.107,0.14l0.106,0.118
			l0.119,0.143l0.046,0.048l0.06,0.047l0.059,0.071l0.048,0.048l0.06,0.048l0.06,0.047l0.059,0.048l0.071,0.048l0.059,0.047
			l0.071,0.048l0.07,0.048l0.084,0.044l0.083,0.023l0.083,0.048l0.081,0.047l0.096,0.024l0.095,0.047l0.095,0.048l0.107,0.023
			l0.104,0.024l0.107,0.047l0.106,0.024l0.119,0.023h0.105l0.059,0.023h0.06h0.06l0.06,0.024h0.061h0.058h0.058h0.062h0.058h0.058
			h0.062h0.061l0.058-0.024h0.058h0.062l0.058-0.023h0.058l0.062-0.023h0.061l0.058-0.024l0.058-0.023h0.062l0.105-0.048
			l0.118-0.023l0.108-0.048l0.105-0.047l0.105-0.048l0.108-0.048l0.105-0.071l0.095-0.044l0.105-0.047l0.095-0.071l0.081-0.048
			l0.085-0.071l0.085-0.048l0.082-0.071l0.081-0.047l0.071-0.071l0.071-0.048l0.071-0.071l0.058-0.071l0.062-0.047l0.071-0.071
			l0.044-0.071l0.061-0.068l0.062-0.071l0.047-0.071l0.048-0.071l0.058-0.071l0.048-0.071l0.037-0.071l0.048-0.071l0.044-0.095
			l0.037-0.071l0.048-0.071l0.033-0.095l0.034-0.068l0.037-0.095l0.038-0.095l0.02-0.071l0.038-0.096l0.023-0.095l0.023-0.095
			l0.024-0.095l0.023-0.096l0.023-0.095l0.014-0.092l0.021-0.095l0.014-0.095l0.021-0.19l0.027-0.19l0.01-0.214v-0.187l0.01-0.189
			v-0.19l-0.01-0.189l-0.01-0.19l-0.014-0.187v-0.071l-0.014-0.095l-0.011-0.096l-0.01-0.095l-0.023-0.071l-0.011-0.095
			l-0.027-0.071l-0.02-0.096l-0.027-0.071l-0.021-0.091l-0.027-0.071l-0.034-0.071l-0.033-0.096l-0.038-0.071l-0.037-0.071
			l-0.047-0.07l-0.034-0.071l-0.048-0.096l-0.047-0.071l-0.048-0.071l-0.048-0.071l-0.058-0.071l-0.058-0.068l-0.061-0.071
			l-0.119-0.143l-0.119-0.143l-0.067-0.071l-0.075-0.071l-0.067-0.071l-0.075-0.071l-0.067-0.071l-0.081-0.071l-0.075-0.071
			L46.6,36.686l-0.082-0.071l-0.085-0.047l-0.095-0.071l-0.081-0.047l-0.048-0.024L46.161,36.4l-0.047-0.023l-0.048-0.024
			l-0.048-0.024l-0.047-0.023l-0.058-0.024l-0.048-0.024l-0.095-0.047l-0.108-0.023l-0.105-0.024l-0.105-0.047l-0.108-0.024
			l-0.105-0.024l-0.104-0.023h-0.109l-0.115-0.024h-0.108l-0.108-0.024h-0.105h-0.105h-0.095H44.28h-0.107h-0.095l-0.094,0.024
			h-0.059h-0.048l-0.048,0.024h-0.047l-0.048,0.023h-0.048l-0.047,0.024h-0.048l-0.048,0.024h-0.046l-0.047,0.023l-0.048,0.024
			l-0.06,0.024h-0.047L43.25,36.21l-0.048,0.024l-0.047,0.023l-0.048,0.024l-0.046,0.024l-0.047,0.023l-0.048,0.048l-0.06,0.023
			l-0.095,0.071l-0.107,0.048l-0.093,0.095l-0.107,0.071l-0.106,0.068l-0.095,0.095l-0.107,0.095l-0.093,0.095l-0.096,0.095
			l-0.095,0.119l-0.095,0.095l-0.096,0.119l-0.081,0.119l-0.083,0.091l-0.036,0.071l-0.035,0.048l-0.048,0.071l-0.035,0.047
			l-0.036,0.071l-0.023,0.048l-0.036,0.071l-0.035,0.047l-0.023,0.071l-0.022,0.048l-0.035,0.071l-0.024,0.071l-0.047,0.118
			l-0.036,0.115l-0.035,0.119l-0.036,0.119l-0.035,0.118l-0.024,0.119l-0.023,0.119l-0.012,0.118l-0.023,0.119l-0.024,0.21
			L40.848,39.902z"/>
	</g>
</g>
<g id="Outline">
</g>
<g id="Frame">
</g>
</svg>
