<?xml version="1.0" encoding="utf-8"?>
<!-- Generator: Adobe Illustrator 16.0.0, SVG Export Plug-In . SVG Version: 6.00 Build 0)  -->
<!DOCTYPE svg PUBLIC "-//W3C//DTD SVG 1.1//EN" "http://www.w3.org/Graphics/SVG/1.1/DTD/svg11.dtd">
<svg version="1.1" id="Layer_1" xmlns="http://www.w3.org/2000/svg" xmlns:xlink="http://www.w3.org/1999/xlink" x="0px" y="0px"
	 width="76.958px" height="76.958px" viewBox="0 0 76.958 76.958" enable-background="new 0 0 76.958 76.958" xml:space="preserve">
<polygon points="31.578,71.454 30.649,57.465 20.131,66.731 24.318,53.354 11.164,58.195 19.9,47.235 5.884,46.999 17.992,39.932 
	5.01,34.648 18.85,32.433 8.652,22.816 22.358,25.751 16.324,13.098 28.045,20.788 26.988,6.81 35.14,18.212 39.204,4.797 
	42.687,18.375 51.322,7.333 49.665,21.252 61.706,14.075 55.129,26.456 68.952,24.114 58.351,33.284 72.083,36.091 58.883,40.812 
	70.676,48.392 56.663,48.024 64.918,59.353 51.986,53.95 55.592,67.495 45.484,57.786 43.956,71.719 38.038,59.012 "/>
</svg>
