<?xml version="1.0" encoding="utf-8"?>
<!-- Generator: Adobe Illustrator 16.0.0, SVG Export Plug-In . SVG Version: 6.00 Build 0)  -->
<!DOCTYPE svg PUBLIC "-//W3C//DTD SVG 1.1//EN" "http://www.w3.org/Graphics/SVG/1.1/DTD/svg11.dtd">
<svg version="1.1" xmlns="http://www.w3.org/2000/svg" xmlns:xlink="http://www.w3.org/1999/xlink" x="0px" y="0px" width="75px"
	 height="75px" viewBox="0 0 75 75" enable-background="new 0 0 75 75" xml:space="preserve">
<g id="Layer_1">
</g>
<g id="Fill">
	<g id="HATCH_22_">
		<path fill-rule="evenodd" clip-rule="evenodd" d="M65.201,9.798v38.236l0,0v0.203l-0.014,0.224l-0.02,0.318l-0.037,0.399
			l-0.047,0.46l-0.059,0.531l-0.095,0.579l-0.119,0.637l-0.142,0.683l-0.176,0.711l-0.095,0.379l-0.119,0.376l-0.117,0.389
			l-0.129,0.39l-0.142,0.39l-0.144,0.402l-0.165,0.402l-0.176,0.399l-0.177,0.413l-0.203,0.399l-0.209,0.412l-0.223,0.403
			l-0.237,0.413l-0.25,0.402l-0.272,0.39l-0.27,0.402l-0.295,0.386l-0.32,0.393l-0.319,0.376l-0.338,0.369l-0.18,0.185l-0.187,0.181
			l-0.179,0.176l-0.2,0.176l-0.189,0.177l-0.203,0.165l-0.196,0.18l-0.217,0.162l-0.21,0.166l-0.213,0.151l-0.224,0.156
			l-0.227,0.163l-0.232,0.142L57.401,63l-0.234,0.142l-0.25,0.143l-0.258,0.142l-0.25,0.128l-0.257,0.13l-0.273,0.129l-0.271,0.117
			l-0.271,0.119l-0.284,0.117l-0.295,0.105l-0.284,0.108l-0.305,0.095l-0.298,0.105l-0.318,0.084l-0.305,0.095l-0.317,0.083
			l-0.332,0.066l-0.331,0.075l-0.342,0.067l-0.343,0.061l-0.341,0.062l-0.355,0.047l-0.731,0.081L49.4,65.359l-0.781,0.047
			l-0.799,0.009H9.594V9.798H65.201z M48.998,60.719V49.213h11.445v0.047l-0.044,0.312l-0.048,0.317l-0.057,0.353l-0.074,0.352
			l-0.081,0.394l-0.083,0.389l-0.117,0.413L59.82,52.19l-0.128,0.423l-0.143,0.438l-0.165,0.426l-0.18,0.433l-0.196,0.427
			l-0.203,0.426l-0.118,0.21l-0.105,0.214l-0.128,0.213l-0.122,0.203l-0.129,0.196l-0.129,0.203l-0.142,0.21L57.79,56.4
			l-0.142,0.203l-0.153,0.189l-0.151,0.189l-0.156,0.176l-0.162,0.176l-0.169,0.177l-0.176,0.176l-0.176,0.169l-0.177,0.163
			l-0.189,0.165l-0.189,0.166l-0.199,0.152l-0.214,0.143l-0.21,0.151l-0.217,0.143l-0.233,0.143l-0.227,0.128l-0.243,0.144
			l-0.251,0.117l-0.257,0.133l-0.264,0.114l-0.281,0.108l-0.28,0.105l-0.298,0.104l-0.305,0.095l-0.318,0.095l-0.332,0.083
			l-0.345,0.084l-0.352,0.071l-0.366,0.07l-0.379,0.059l-0.399,0.047l-0.393,0.037L48.998,60.719z M60.538,44.566V14.46H14.244
			v46.295h30.104V44.566H60.538z"/>
	</g>
	<g id="HATCH_23_">
		<rect x="30.27" y="35.278" fill-rule="evenodd" clip-rule="evenodd" width="15.345" height="4.662"/>
	</g>
	<g id="HATCH_24_">
		<rect x="20.958" y="35.278" fill-rule="evenodd" clip-rule="evenodd" width="4.649" height="4.662"/>
	</g>
	<g id="HATCH_25_">
		<rect x="20.958" y="49.392" fill-rule="evenodd" clip-rule="evenodd" width="4.649" height="4.66"/>
	</g>
	<g id="HATCH_26_">
		<rect x="30.27" y="49.392" fill-rule="evenodd" clip-rule="evenodd" width="7.129" height="4.66"/>
	</g>
	<g id="HATCH_27_">
		<rect x="20.958" y="21.162" fill-rule="evenodd" clip-rule="evenodd" width="4.649" height="4.662"/>
	</g>
	<g id="HATCH_28_">
		<rect x="30.27" y="21.162" fill-rule="evenodd" clip-rule="evenodd" width="23.568" height="4.662"/>
	</g>
</g>
<g id="Outline">
</g>
<g id="Frame">
</g>
</svg>
