<?xml version="1.0" encoding="utf-8"?>
<!-- Generator: Adobe Illustrator 16.0.0, SVG Export Plug-In . SVG Version: 6.00 Build 0)  -->
<!DOCTYPE svg PUBLIC "-//W3C//DTD SVG 1.1//EN" "http://www.w3.org/Graphics/SVG/1.1/DTD/svg11.dtd">
<svg version="1.1" id="Layer_1" xmlns="http://www.w3.org/2000/svg" xmlns:xlink="http://www.w3.org/1999/xlink" x="0px" y="0px"
	 width="76.958px" height="76.958px" viewBox="0 0 76.958 76.958" enable-background="new 0 0 76.958 76.958" xml:space="preserve">
<circle cx="36.083" cy="17.942" r="9.582"/>
<path d="M36.083,72.167c0-6.006-1.768-10.271-6.017-14.519c-1.961-1.96-4.102-3.388-6.663-4.448
	c-1.265-0.523-2.549-0.91-3.892-1.175c-0.658-0.13-1.32-0.224-1.988-0.289c-0.331-0.032-0.661-0.057-0.993-0.071
	c-0.329-0.016-0.985,0.633-0.986-0.023c-0.007-11.348,9.187-20.547,20.532-20.551c6.008-0.001,10.278,1.765,14.528,6.012
	c1.961,1.962,3.393,4.104,4.453,6.665c0.523,1.265,0.912,2.549,1.177,3.892c0.129,0.66,0.228,1.321,0.292,1.99
	c0.032,0.33,0.055,0.661,0.071,0.992c0.016,0.33,0.683,0.986,0.024,0.986C45.279,51.627,36.083,60.823,36.083,72.167z"/>
</svg>
