<?xml version="1.0" encoding="utf-8"?>
<!-- Generator: Adobe Illustrator 16.0.0, SVG Export Plug-In . SVG Version: 6.00 Build 0)  -->
<!DOCTYPE svg PUBLIC "-//W3C//DTD SVG 1.1//EN" "http://www.w3.org/Graphics/SVG/1.1/DTD/svg11.dtd">
<svg version="1.1" id="Layer_1" xmlns="http://www.w3.org/2000/svg" xmlns:xlink="http://www.w3.org/1999/xlink" x="0px" y="0px"
	 width="77px" height="77px" viewBox="0 0 77 77" enable-background="new 0 0 77 77" xml:space="preserve">
<g id="Layer_1_1_">
</g>
<path d="M23.969,21.572c0,1.229,0.928,2.258,2.15,2.385c0.578,0.059,1.15,0.012,1.726,0.012c0.583,0,1.166,0,1.749,0
	c2.331,0,4.662,0,6.993,0c4.662,0,9.324,0,13.985,0c1.236,0,2.279-0.842,2.439-2.092c0.074-0.577,0.021-1.147,0.021-1.722
	c0-0.583,0-1.166,0-1.749c0-1.165,0-2.331,0-3.496c0-0.073,0-0.146,0-0.219c0-0.081,0.151-0.026,0.192-0.026
	c0.146,0,0.291,0,0.437,0c0.292,0,0.583,0,0.874,0c0.583,0,1.166,0,1.749,0c1.165,0,2.329,0,3.495,0c0.584,0,1.166,0,1.748,0
	c0.146,0,0.291,0,0.438,0c0.08,0,0.369-0.086,0.369,0.068c0,0.292,0,0.583,0,0.874c0,2.331,0,4.662,0,6.993
	c0,9.324,0,18.648,0,27.97c0,2.332,0,4.662,0,6.992c0,1.166,0,2.332,0,3.498c0,0.291,0,0.582,0,0.873c0,0.072,0,0.146,0,0.219
	c0,0.063,0.082,0.181-0.038,0.181c-0.146,0-0.291,0-0.438,0c-0.582,0-1.166,0-1.748,0c-2.33,0-4.662,0-6.992,0
	c-0.032,0-0.087,0.036-0.087-0.021c0-0.037,0-0.073,0-0.109c0-0.073,0-0.146,0-0.219c0-0.146,0-0.293,0-0.438
	c0-0.291,0-0.582,0-0.874c0-0.583,0-1.165,0-1.748c0-1.165,0-2.331,0-3.496c0-1.229-0.929-2.258-2.151-2.385
	c-0.576-0.061-1.15-0.012-1.727-0.012c-0.582,0-1.164,0-1.747,0c-2.331,0-4.662,0-6.992,0c-4.662,0-9.324,0-13.986,0
	c-1.237,0-2.28,0.842-2.44,2.092c-0.074,0.576-0.02,1.146-0.02,1.722c0,0.583,0,1.165,0,1.748c0,1.165,0,2.331,0,3.496
	c0,0.073,0,0.146,0,0.22c0,0.08-0.151,0.024-0.193,0.024c-0.146,0-0.292,0-0.437,0c-0.292,0-0.583,0-0.875,0
	c-0.583,0-1.165,0-1.748,0c-1.166,0-2.331,0-3.496,0c-0.583,0-1.166,0-1.749,0c-0.146,0-0.292,0-0.437,0
	c-0.081,0-0.369,0.087-0.369-0.067c0-0.291,0-0.582,0-0.873c0-2.332,0-4.662,0-6.992c0-9.324,0-18.647,0-27.973
	c0-2.331,0-4.662,0-6.993c0-1.165,0-2.331,0-3.496c0-0.292,0-0.583,0-0.875c0-0.073,0-0.146,0-0.218
	c0-0.064-0.083-0.181,0.038-0.181c0.146,0,0.291,0,0.437,0c0.583,0,1.166,0,1.748,0c2.331,0,4.662,0,6.993,0
	c0.032,0,0.087-0.035,0.087,0.022c0,0.037,0,0.073,0,0.109c0,0.073,0,0.146,0,0.218c0,0.146,0,0.292,0,0.438
	c0,0.291,0,0.583,0,0.874c0,0.583,0,1.165,0,1.748C23.969,19.241,23.969,20.407,23.969,21.572z M23.969,31.16
	c0,3.873,0,7.747,0,11.62c0,0.968,0,1.937,0,2.903c0,1.037,0.45,1.926,1.444,2.356c0.459,0.198,0.912,0.196,1.389,0.196
	c0.484,0,0.968,0,1.452,0c0.968,0,1.937,0,2.905,0c3.874,0,7.747,0,11.62,0c1.937,0,3.873,0,5.81,0c0.53,0,2.312,0.054,2.853-0.139
	c0.953-0.343,1.591-1.244,1.591-2.259c0-3.873,0-7.746,0-11.62c0-0.968,0-1.937,0-2.905c0-1.037-0.451-1.925-1.444-2.355
	c-0.459-0.199-0.912-0.197-1.389-0.197c-0.484,0-0.969,0-1.453,0c-0.969,0-1.938,0-2.905,0c-3.873,0-7.746,0-11.62,0
	c-1.936,0-3.873,0-5.81,0c-0.53,0-2.311-0.053-2.851,0.14C24.605,29.243,23.969,30.146,23.969,31.16z"/>
</svg>
