<?xml version="1.0" encoding="utf-8"?>
<!-- Generator: Adobe Illustrator 16.0.0, SVG Export Plug-In . SVG Version: 6.00 Build 0)  -->
<!DOCTYPE svg PUBLIC "-//W3C//DTD SVG 1.1//EN" "http://www.w3.org/Graphics/SVG/1.1/DTD/svg11.dtd">
<svg version="1.1" id="Layer_1" xmlns="http://www.w3.org/2000/svg" xmlns:xlink="http://www.w3.org/1999/xlink" x="0px" y="0px"
	 width="77px" height="77px" viewBox="0 0 77 77" enable-background="new 0 0 77 77" xml:space="preserve">
<g id="Layer_1_1_">
</g>
<path d="M62.334,14.666c6.385,6.384,9.938,15.062,9.872,24.091c-0.035,4.599-0.907,8.769-2.718,12.999
	c-0.906,2.12-2.002,4.1-3.318,5.99c-0.626,0.9-1.289,1.768-2.002,2.602c-0.345,0.404-0.701,0.803-1.062,1.192
	c-0.18,0.19-0.361,0.38-0.547,0.567c-0.244,0.25-0.406,0.047-0.588-0.137c-0.436-0.435-0.873-0.871-1.308-1.307
	c-0.168-0.168,0.142-0.193,0.226-0.277c0.094-0.093,0.184-0.188,0.272-0.281c0.18-0.188,0.356-0.379,0.532-0.572
	c0.72-0.794,1.396-1.622,2.031-2.485c1.344-1.827,2.455-3.745,3.381-5.815c1.877-4.225,2.74-8.368,2.701-12.988
	c-0.037-4.619-0.968-8.75-2.916-12.939c-0.951-2.043-2.086-3.932-3.447-5.727c-0.644-0.847-1.323-1.658-2.051-2.436
	c-0.177-0.189-0.355-0.376-0.539-0.562c-0.261-0.265-0.008-0.426,0.178-0.609C61.466,15.535,61.9,15.101,62.334,14.666z"/>
<path d="M43.762,33.237c1.619,1.621,2.254,3.229,2.176,5.52c-0.035,1.054-0.267,1.995-0.719,2.945
	c-0.203,0.423-0.438,0.815-0.713,1.192c-0.13,0.18-0.27,0.354-0.417,0.519c-0.071,0.084-0.146,0.163-0.22,0.241
	c-0.237,0.248-0.333-0.119-0.473-0.256c-0.438-0.438-0.875-0.875-1.312-1.312c-0.268-0.267,0.24-0.293,0.357-0.44
	c0.125-0.155,0.242-0.32,0.349-0.491c0.573-0.927,0.803-1.822,0.748-2.911c-0.056-1.089-0.377-1.955-1.04-2.82
	c-0.109-0.142-0.229-0.279-0.354-0.41c-0.311-0.326,0.233-0.393,0.398-0.559C42.952,34.048,43.357,33.643,43.762,33.237z"/>
<path d="M53.031,53.033c-0.547-0.549-1.096-1.096-1.643-1.643c-0.19-0.191,0.133-0.24,0.231-0.343
	c0.106-0.112,0.214-0.229,0.317-0.345c0.215-0.234,0.42-0.475,0.621-0.719c0.849-1.036,1.559-2.135,2.16-3.33
	c1.277-2.545,1.893-5.053,1.932-7.898c0.041-2.844-0.504-5.37-1.709-7.948c-0.575-1.231-1.266-2.362-2.1-3.435
	c-0.392-0.507-0.809-0.988-1.252-1.448c-0.513-0.533,0.801-1.317,1.075-1.593c0.698-0.695,0.987,0.275,1.37,0.717
	c0.439,0.507,0.852,1.033,1.236,1.58c0.816,1.153,1.498,2.358,2.062,3.651c1.127,2.585,1.677,5.14,1.712,7.961
	C59.117,43.781,56.948,49.114,53.031,53.033z"/>
<path d="M8.086,45.766c0-2.537,0-5.078,0-7.618c0-1.27,0-2.539,0-3.809c0-0.634,0-1.269,0-1.904c0-0.317,0-0.634,0-0.952
	c0-0.443,0.93-0.249,1.166-0.249c2.97,0,5.942,0,8.914,0c0.743,0,1.486,0,2.229,0c0.611,0,1.171,0.13,1.697-0.396
	c0.634-0.634,1.269-1.269,1.903-1.903c1.793-1.794,3.587-3.587,5.38-5.38c0.896-0.896,1.793-1.793,2.689-2.691
	c1.007-1.005,1.666-2.28,3.147-2.874c1.41-0.563,2.979,0.307,3.249,1.8c0.249,1.38,0.038,2.727,0.038,4.09c0,2.451,0,4.903,0,7.353
	c0,5.231,0,10.464,0,15.695c0,2.469,0,4.937,0,7.404c0,1.32,0.496,2.574-0.469,3.875c-0.982,1.327-2.649,1.24-3.759,0.131
	c-3.701-3.699-7.401-7.398-11.1-11.097c-0.669-0.673-1.112-1.478-2.286-1.478c-1.422,0-2.844,0-4.267,0
	C13.775,45.766,10.93,45.766,8.086,45.766z"/>
</svg>
