<?xml version="1.0" encoding="utf-8"?>
<!-- Generator: Adobe Illustrator 16.0.0, SVG Export Plug-In . SVG Version: 6.00 Build 0)  -->
<!DOCTYPE svg PUBLIC "-//W3C//DTD SVG 1.1//EN" "http://www.w3.org/Graphics/SVG/1.1/DTD/svg11.dtd">
<svg version="1.1" id="Layer_1" xmlns="http://www.w3.org/2000/svg" xmlns:xlink="http://www.w3.org/1999/xlink" x="0px" y="0px"
	 width="77px" height="77px" viewBox="0 0 77 77" enable-background="new 0 0 77 77" xml:space="preserve">
<g id="Layer_1_1_">
</g>
<path d="M43.764,43.762c-0.406-0.404-0.812-0.811-1.218-1.217c-0.168-0.166-0.709-0.234-0.399-0.559
	c0.125-0.131,0.244-0.268,0.354-0.41c0.663-0.864,0.981-1.73,1.04-2.82c0.055-1.089-0.174-1.982-0.747-2.911
	c-0.106-0.171-0.224-0.334-0.349-0.493c-0.118-0.147-0.625-0.172-0.358-0.437c0.438-0.439,0.875-0.878,1.312-1.315
	c0.138-0.136,0.235-0.502,0.474-0.255c0.075,0.079,0.147,0.16,0.22,0.241c0.148,0.167,0.284,0.339,0.417,0.519
	c0.275,0.378,0.511,0.772,0.714,1.193c0.451,0.95,0.68,1.893,0.719,2.944C46.018,40.533,45.382,42.143,43.764,43.762z"/>
<path d="M8.088,45.766c0-2.539,0-5.078,0-7.617c0-1.27,0-2.539,0-3.809c0-0.634,0-1.269,0-1.904c0-0.317,0-0.634,0-0.952
	c0-0.443,0.928-0.249,1.164-0.249c2.971,0,5.942,0,8.914,0c0.745,0,1.486,0,2.229,0c0.611,0,1.172,0.13,1.699-0.396
	c0.633-0.634,1.267-1.269,1.902-1.903c1.794-1.794,3.587-3.587,5.38-5.38c0.896-0.896,1.793-1.793,2.691-2.691
	c1.005-1.005,1.666-2.279,3.146-2.873c1.409-0.563,2.98,0.307,3.25,1.8c0.249,1.38,0.038,2.727,0.038,4.09c0,2.451,0,4.902,0,7.353
	c0,5.231,0,10.464,0,15.695c0,2.467,0,4.935,0,7.401c0,1.321,0.494,2.575-0.469,3.877c-0.982,1.325-2.65,1.24-3.76,0.131
	c-3.699-3.7-7.399-7.399-11.099-11.099c-0.669-0.67-1.112-1.477-2.285-1.477c-1.422,0-2.845,0-4.267,0
	C13.775,45.766,10.931,45.766,8.088,45.766z"/>
<g id="Problem">
</g>
</svg>
