<?xml version="1.0" encoding="utf-8"?>
<!-- Generator: Adobe Illustrator 16.0.0, SVG Export Plug-In . SVG Version: 6.00 Build 0)  -->
<!DOCTYPE svg PUBLIC "-//W3C//DTD SVG 1.1//EN" "http://www.w3.org/Graphics/SVG/1.1/DTD/svg11.dtd">
<svg version="1.1" id="Layer_1" xmlns="http://www.w3.org/2000/svg" xmlns:xlink="http://www.w3.org/1999/xlink" x="0px" y="0px"
	 width="76.958px" height="76.958px" viewBox="0 0 76.958 76.958" enable-background="new 0 0 76.958 76.958" xml:space="preserve">
<path d="M66.319,69.715c-4.468-4.471-8.936-8.941-13.404-13.412c-0.473,0.384-0.961,0.748-1.463,1.093
	c-0.492,0.336-0.996,0.655-1.512,0.953c-0.592,0.343-1.199,0.657-1.822,0.946c-0.727,0.334-1.471,0.634-2.229,0.892
	c-0.637,0.216-1.284,0.405-1.938,0.565c-0.65,0.158-1.305,0.291-1.966,0.392c-0.657,0.103-1.321,0.176-1.985,0.219
	c-0.664,0.044-1.331,0.06-1.997,0.046c-0.665-0.013-1.33-0.057-1.992-0.127c-0.664-0.072-1.324-0.173-1.98-0.302
	c-0.658-0.128-1.31-0.288-1.954-0.474c-0.611-0.178-1.216-0.381-1.811-0.608c-0.634-0.241-1.258-0.513-1.869-0.812
	c-0.307-0.15-0.611-0.308-0.911-0.473c-0.301-0.164-0.599-0.335-0.893-0.514c-0.511-0.311-1.011-0.641-1.496-0.989
	c-0.284-0.204-0.563-0.416-0.838-0.632c-0.277-0.221-0.549-0.445-0.816-0.678c-0.153-0.133-0.304-0.268-0.454-0.406
	c-0.131-0.12-0.259-0.24-0.386-0.363c-0.122-0.117-0.241-0.234-0.36-0.354c-0.063-0.062-0.124-0.124-0.187-0.189
	c-0.146-0.148-0.289-0.3-0.431-0.451c-0.12-0.131-0.239-0.262-0.356-0.396c-0.23-0.261-0.453-0.524-0.67-0.793
	c-0.265-0.33-0.521-0.665-0.766-1.007c-0.186-0.258-0.366-0.52-0.541-0.788c-0.154-0.234-0.304-0.47-0.449-0.71
	c-0.179-0.293-0.349-0.592-0.514-0.893c-0.273-0.5-0.527-1.011-0.762-1.529c-0.139-0.309-0.271-0.623-0.397-0.936
	c-0.199-0.496-0.378-0.996-0.541-1.505c-0.206-0.642-0.382-1.289-0.53-1.946c-0.147-0.652-0.266-1.31-0.355-1.972
	c-0.089-0.661-0.15-1.323-0.181-1.991c-0.032-0.665-0.035-1.331-0.009-1.996c0.027-0.666,0.081-1.331,0.165-1.991
	c0.085-0.662,0.197-1.323,0.339-1.976c0.07-0.327,0.149-0.654,0.234-0.979c0.086-0.324,0.178-0.649,0.278-0.97
	c0.167-0.539,0.355-1.073,0.563-1.599c0.249-0.634,0.527-1.255,0.833-1.864c0.153-0.305,0.313-0.608,0.481-0.907
	c0.161-0.289,0.33-0.574,0.502-0.855c0.323-0.521,0.667-1.03,1.029-1.522c0.208-0.284,0.421-0.561,0.642-0.832
	c0.214-0.265,0.434-0.526,0.66-0.781c0.118-0.132,0.236-0.265,0.358-0.395c0.079-0.085,0.158-0.17,0.239-0.254
	c0.061-0.065,0.123-0.128,0.185-0.192c0.061-0.063,0.123-0.126,0.186-0.188c0.062-0.062,0.125-0.125,0.188-0.185
	c0.063-0.062,0.127-0.124,0.192-0.187c0.076-0.073,0.151-0.145,0.229-0.216c0.13-0.122,0.261-0.241,0.394-0.36
	c0.443-0.395,0.902-0.772,1.375-1.131c0.507-0.385,1.03-0.75,1.568-1.092c0.574-0.365,1.165-0.704,1.77-1.018
	c0.605-0.312,1.225-0.597,1.854-0.854c0.443-0.181,0.893-0.349,1.347-0.5c0.638-0.215,1.285-0.4,1.939-0.558
	c0.65-0.155,1.307-0.284,1.968-0.382c0.659-0.099,1.323-0.169,1.988-0.211c0.665-0.041,1.331-0.051,1.998-0.035
	c0.665,0.016,1.33,0.062,1.992,0.136c0.662,0.074,1.324,0.178,1.979,0.311c0.657,0.132,1.311,0.293,1.953,0.484
	c0.594,0.176,1.182,0.375,1.758,0.599c0.316,0.122,0.631,0.251,0.941,0.387c0.627,0.274,1.238,0.576,1.838,0.905
	c0.542,0.297,1.072,0.618,1.588,0.96c0.271,0.178,0.537,0.362,0.801,0.553c0.281,0.204,0.562,0.416,0.834,0.634
	c0.555,0.44,1.086,0.907,1.598,1.396c0.257,0.246,0.509,0.499,0.752,0.755c0.246,0.257,0.484,0.519,0.717,0.788
	c0.459,0.528,0.896,1.08,1.307,1.649c0.348,0.485,0.678,0.985,0.988,1.496c0.355,0.586,0.684,1.189,0.984,1.805
	c0.298,0.61,0.57,1.234,0.812,1.868c0.227,0.595,0.43,1.2,0.607,1.811c0.187,0.645,0.344,1.296,0.474,1.954
	c0.128,0.656,0.229,1.316,0.3,1.98c0.071,0.661,0.113,1.326,0.127,1.992c0.014,0.665,0,1.331-0.045,1.997
	c-0.044,0.664-0.117,1.326-0.219,1.986s-0.232,1.315-0.393,1.965c-0.158,0.653-0.349,1.299-0.564,1.936
	c-0.148,0.438-0.311,0.869-0.484,1.296c-0.131,0.313-0.266,0.626-0.408,0.935c-0.287,0.619-0.604,1.229-0.945,1.821
	c-0.297,0.517-0.615,1.019-0.953,1.511c-0.346,0.504-0.709,0.991-1.093,1.465c4.468,4.471,8.937,8.942,13.405,13.412
	C68.579,67.458,67.45,68.586,66.319,69.715z M51.31,51.309c0.2-0.199,0.396-0.402,0.585-0.611c0.188-0.207,0.372-0.419,0.552-0.635
	c0.353-0.424,0.688-0.865,1.001-1.322c0.127-0.186,0.252-0.375,0.373-0.566c0.131-0.205,0.256-0.416,0.379-0.627
	c0.271-0.469,0.52-0.949,0.746-1.441c0.112-0.243,0.221-0.488,0.322-0.736c0.139-0.338,0.266-0.681,0.384-1.023
	c0.171-0.504,0.32-1.016,0.447-1.532c0.125-0.515,0.229-1.032,0.31-1.554c0.082-0.522,0.139-1.047,0.174-1.574
	c0.018-0.264,0.029-0.525,0.035-0.791c0.006-0.262,0.006-0.527,0-0.789c-0.011-0.527-0.045-1.054-0.102-1.579
	c-0.057-0.526-0.135-1.049-0.238-1.568c-0.104-0.52-0.227-1.035-0.375-1.546c-0.14-0.484-0.301-0.961-0.48-1.431
	c-0.192-0.501-0.405-0.995-0.643-1.477c-0.236-0.487-0.496-0.962-0.777-1.424c-0.246-0.404-0.506-0.8-0.782-1.184
	c-0.323-0.45-0.669-0.885-1.032-1.304c-0.184-0.212-0.373-0.42-0.568-0.624c-0.193-0.204-0.395-0.404-0.597-0.6
	c-0.405-0.388-0.829-0.758-1.267-1.107c-0.217-0.173-0.438-0.341-0.662-0.503c-0.207-0.149-0.418-0.295-0.631-0.437
	c-0.408-0.269-0.827-0.523-1.256-0.758c-0.473-0.26-0.957-0.497-1.451-0.714c-0.246-0.108-0.493-0.211-0.743-0.307
	c-0.208-0.081-0.419-0.157-0.63-0.23c-0.252-0.086-0.506-0.167-0.762-0.243c-0.508-0.15-1.023-0.277-1.545-0.383
	c-0.518-0.105-1.041-0.186-1.565-0.246s-1.05-0.095-1.579-0.108c-0.527-0.013-1.054-0.004-1.58,0.028
	c-0.263,0.016-0.527,0.038-0.789,0.066c-0.262,0.027-0.524,0.061-0.785,0.1c-0.523,0.078-1.043,0.178-1.557,0.303
	c-0.518,0.124-1.03,0.272-1.534,0.441c-0.358,0.122-0.713,0.253-1.065,0.396c-0.498,0.203-0.986,0.428-1.463,0.674
	c-0.479,0.247-0.945,0.515-1.399,0.803c-0.424,0.272-0.838,0.56-1.239,0.865c-0.375,0.284-0.738,0.582-1.088,0.895
	c-0.105,0.095-0.209,0.189-0.312,0.285c-0.061,0.057-0.122,0.114-0.182,0.172c-0.05,0.049-0.1,0.097-0.151,0.146
	c-0.05,0.05-0.102,0.1-0.151,0.151c-0.05,0.05-0.1,0.1-0.15,0.151c-0.049,0.05-0.098,0.1-0.146,0.151
	c-0.063,0.068-0.127,0.134-0.189,0.203c-0.096,0.103-0.19,0.207-0.284,0.312c-0.18,0.201-0.353,0.408-0.523,0.618
	c-0.174,0.216-0.343,0.435-0.508,0.659c-0.287,0.389-0.558,0.791-0.812,1.203c-0.138,0.221-0.271,0.447-0.397,0.676
	c-0.132,0.235-0.259,0.476-0.381,0.716c-0.241,0.481-0.459,0.972-0.657,1.472c-0.163,0.416-0.312,0.838-0.444,1.265
	c-0.08,0.254-0.153,0.509-0.22,0.766c-0.068,0.257-0.13,0.515-0.185,0.774c-0.112,0.516-0.202,1.038-0.268,1.564
	c-0.068,0.521-0.111,1.049-0.131,1.576c-0.02,0.527-0.019,1.054,0.007,1.58c0.012,0.264,0.031,0.527,0.054,0.789
	c0.024,0.263,0.054,0.525,0.089,0.787c0.072,0.524,0.165,1.045,0.281,1.562c0.058,0.259,0.123,0.517,0.192,0.772
	c0.07,0.256,0.146,0.512,0.227,0.766c0.128,0.4,0.271,0.799,0.427,1.189c0.1,0.248,0.204,0.496,0.314,0.738
	c0.297,0.657,0.634,1.297,1.007,1.914c0.115,0.189,0.232,0.376,0.354,0.561c0.139,0.211,0.281,0.418,0.428,0.623
	c0.195,0.271,0.396,0.535,0.605,0.795c0.173,0.216,0.35,0.425,0.531,0.631c0.093,0.105,0.188,0.211,0.284,0.312
	c0.112,0.123,0.226,0.24,0.34,0.359c0.05,0.052,0.1,0.102,0.15,0.15c0.094,0.096,0.189,0.189,0.286,0.281
	c0.102,0.098,0.203,0.192,0.307,0.286c0.117,0.11,0.238,0.216,0.359,0.323c0.212,0.184,0.427,0.361,0.647,0.537
	c0.216,0.172,0.438,0.338,0.662,0.5c0.384,0.275,0.778,0.537,1.183,0.781c0.231,0.14,0.466,0.276,0.704,0.406
	c0.238,0.129,0.478,0.254,0.72,0.373c0.482,0.236,0.974,0.45,1.477,0.643c0.469,0.18,0.947,0.341,1.431,0.479
	c0.509,0.147,1.026,0.272,1.546,0.374c0.518,0.104,1.041,0.184,1.566,0.239c0.524,0.055,1.051,0.091,1.579,0.101
	c0.264,0.006,0.527,0.004,0.791,0c0.264-0.008,0.526-0.019,0.791-0.035c0.262-0.019,0.524-0.043,0.786-0.069
	c0.265-0.03,0.527-0.065,0.787-0.104c0.523-0.08,1.043-0.185,1.556-0.309c0.517-0.127,1.028-0.277,1.532-0.449
	c0.6-0.203,1.188-0.439,1.762-0.706c0.491-0.228,0.973-0.476,1.439-0.745c0.408-0.236,0.807-0.488,1.194-0.755
	c0.457-0.313,0.897-0.647,1.324-1.001c0.216-0.18,0.427-0.363,0.634-0.551C50.907,51.704,51.111,51.508,51.31,51.309z"/>
<rect x="23.956" y="36.083" width="29.046" height="4.792"/>
</svg>
