<?xml version="1.0" encoding="utf-8"?>
<!-- Generator: Adobe Illustrator 16.0.0, SVG Export Plug-In . SVG Version: 6.00 Build 0)  -->
<!DOCTYPE svg PUBLIC "-//W3C//DTD SVG 1.1//EN" "http://www.w3.org/Graphics/SVG/1.1/DTD/svg11.dtd">
<svg version="1.1" id="Layer_1" xmlns="http://www.w3.org/2000/svg" xmlns:xlink="http://www.w3.org/1999/xlink" x="0px" y="0px"
	 width="76.958px" height="76.958px" viewBox="0 0 76.958 76.958" enable-background="new 0 0 76.958 76.958" xml:space="preserve">
<path d="M60.601,63.997c-4.468-4.47-8.937-8.941-13.403-13.41c-0.473,0.383-0.962,0.746-1.464,1.093
	c-0.491,0.338-0.996,0.655-1.512,0.952c-0.593,0.343-1.202,0.658-1.822,0.945c-0.728,0.338-1.472,0.635-2.229,0.893
	c-0.637,0.219-1.282,0.406-1.938,0.566c-0.649,0.158-1.304,0.289-1.965,0.393c-0.66,0.1-1.322,0.173-1.987,0.218
	c-0.665,0.045-1.331,0.06-1.996,0.045c-0.666-0.015-1.331-0.054-1.992-0.127c-0.663-0.069-1.324-0.17-1.979-0.3
	c-0.658-0.131-1.31-0.288-1.954-0.475c-0.612-0.177-1.216-0.379-1.811-0.606c-0.635-0.243-1.258-0.515-1.869-0.813
	c-0.307-0.15-0.611-0.308-0.911-0.472c-0.302-0.164-0.6-0.336-0.894-0.515c-0.511-0.311-1.011-0.639-1.496-0.989
	c-0.284-0.204-0.563-0.415-0.838-0.634c-0.277-0.219-0.549-0.444-0.816-0.676c-0.152-0.135-0.305-0.27-0.455-0.408
	c-0.13-0.118-0.258-0.239-0.387-0.361c-0.12-0.115-0.241-0.234-0.359-0.352c-0.062-0.062-0.125-0.127-0.187-0.188
	c-0.145-0.149-0.288-0.3-0.43-0.454c-0.121-0.13-0.239-0.262-0.357-0.395c-0.229-0.26-0.453-0.524-0.67-0.795
	c-0.265-0.327-0.52-0.662-0.766-1.006c-0.187-0.26-0.366-0.521-0.542-0.787c-0.153-0.234-0.303-0.471-0.447-0.709
	c-0.178-0.295-0.35-0.592-0.515-0.896c-0.271-0.499-0.525-1.01-0.761-1.528c-0.139-0.311-0.273-0.621-0.398-0.938
	c-0.197-0.495-0.377-0.997-0.541-1.506c-0.204-0.639-0.381-1.289-0.529-1.943c-0.147-0.653-0.266-1.311-0.355-1.973
	c-0.089-0.66-0.15-1.324-0.183-1.99c-0.031-0.666-0.034-1.333-0.008-1.997c0.027-0.666,0.081-1.33,0.165-1.992
	c0.084-0.662,0.197-1.322,0.339-1.975c0.07-0.328,0.148-0.653,0.234-0.977c0.085-0.326,0.178-0.649,0.278-0.97
	c0.167-0.541,0.355-1.074,0.562-1.6c0.25-0.632,0.528-1.254,0.833-1.862c0.154-0.307,0.315-0.61,0.482-0.908
	c0.161-0.289,0.329-0.574,0.503-0.855c0.321-0.52,0.665-1.029,1.028-1.522c0.207-0.281,0.421-0.559,0.641-0.833
	c0.215-0.265,0.435-0.524,0.661-0.78c0.118-0.134,0.237-0.263,0.357-0.395c0.08-0.085,0.16-0.17,0.239-0.254
	c0.062-0.065,0.124-0.128,0.187-0.192c0.061-0.063,0.123-0.125,0.185-0.188s0.125-0.124,0.188-0.187s0.127-0.124,0.19-0.185
	c0.076-0.073,0.153-0.145,0.229-0.216c0.13-0.12,0.261-0.24,0.394-0.358c0.443-0.395,0.903-0.773,1.375-1.133
	c0.508-0.386,1.031-0.75,1.569-1.092c0.574-0.365,1.165-0.706,1.771-1.016c0.604-0.313,1.223-0.599,1.854-0.855
	c0.443-0.181,0.894-0.347,1.348-0.501c0.638-0.213,1.285-0.4,1.939-0.557c0.65-0.157,1.306-0.284,1.968-0.384
	c0.66-0.097,1.323-0.168,1.988-0.208c0.665-0.042,1.331-0.054,1.996-0.038c0.667,0.018,1.332,0.063,1.994,0.138
	c0.664,0.074,1.324,0.178,1.98,0.311c0.657,0.132,1.308,0.295,1.953,0.484c0.593,0.176,1.18,0.375,1.758,0.597
	c0.315,0.122,0.63,0.251,0.94,0.388c0.625,0.274,1.238,0.576,1.838,0.906c0.541,0.299,1.072,0.617,1.588,0.958
	c0.271,0.178,0.537,0.364,0.799,0.554c0.284,0.205,0.562,0.416,0.836,0.634c0.553,0.441,1.087,0.907,1.598,1.396
	c0.258,0.246,0.508,0.497,0.754,0.754c0.244,0.258,0.482,0.522,0.715,0.789c0.461,0.53,0.896,1.078,1.305,1.649
	c0.35,0.487,0.68,0.985,0.988,1.497c0.355,0.587,0.685,1.188,0.986,1.803c0.299,0.611,0.569,1.235,0.812,1.869
	c0.229,0.596,0.431,1.199,0.608,1.812c0.187,0.643,0.344,1.295,0.474,1.953c0.128,0.656,0.229,1.315,0.3,1.98
	c0.07,0.662,0.113,1.326,0.127,1.992c0.014,0.665-0.001,1.331-0.046,1.995c-0.043,0.665-0.116,1.328-0.22,1.987
	c-0.102,0.661-0.23,1.316-0.391,1.965c-0.16,0.654-0.349,1.3-0.566,1.938c-0.147,0.435-0.309,0.867-0.484,1.295
	c-0.128,0.312-0.263,0.625-0.406,0.933c-0.289,0.622-0.604,1.229-0.945,1.822c-0.297,0.517-0.615,1.021-0.952,1.512
	c-0.345,0.501-0.709,0.99-1.093,1.464c4.468,4.471,8.936,8.941,13.404,13.412C62.861,61.739,61.731,62.87,60.601,63.997z
	 M45.592,45.592c0.199-0.2,0.395-0.406,0.584-0.614c0.189-0.205,0.373-0.417,0.551-0.632c0.354-0.426,0.689-0.868,1.001-1.324
	c0.128-0.188,0.253-0.376,0.375-0.566c0.13-0.207,0.257-0.416,0.378-0.627c0.27-0.469,0.52-0.949,0.747-1.438
	c0.112-0.243,0.219-0.489,0.321-0.738c0.139-0.338,0.267-0.678,0.383-1.024c0.172-0.503,0.322-1.014,0.449-1.531
	c0.125-0.514,0.229-1.032,0.31-1.555c0.08-0.522,0.138-1.046,0.173-1.573c0.018-0.262,0.029-0.527,0.035-0.789
	c0.005-0.265,0.008-0.528,0-0.792c-0.011-0.527-0.043-1.054-0.1-1.577c-0.057-0.526-0.137-1.049-0.238-1.568
	c-0.104-0.521-0.227-1.037-0.375-1.545c-0.139-0.484-0.3-0.962-0.48-1.433c-0.191-0.501-0.404-0.995-0.642-1.476
	c-0.237-0.487-0.498-0.962-0.776-1.426c-0.246-0.404-0.508-0.799-0.783-1.182c-0.323-0.451-0.668-0.887-1.032-1.306
	c-0.185-0.213-0.374-0.422-0.567-0.624c-0.195-0.205-0.395-0.406-0.599-0.6c-0.404-0.388-0.827-0.757-1.267-1.107
	c-0.217-0.172-0.438-0.339-0.662-0.501c-0.207-0.151-0.418-0.297-0.631-0.438c-0.408-0.269-0.826-0.521-1.254-0.757
	c-0.474-0.261-0.959-0.5-1.451-0.716c-0.246-0.107-0.494-0.209-0.744-0.305c-0.209-0.081-0.419-0.157-0.63-0.23
	c-0.251-0.087-0.505-0.168-0.761-0.243c-0.509-0.15-1.024-0.278-1.544-0.384c-0.519-0.104-1.042-0.187-1.568-0.245
	c-0.523-0.058-1.05-0.096-1.577-0.109c-0.527-0.012-1.054-0.003-1.581,0.03c-0.262,0.016-0.526,0.038-0.788,0.066
	c-0.262,0.027-0.524,0.061-0.787,0.1c-0.523,0.077-1.042,0.18-1.557,0.302c-0.516,0.125-1.028,0.271-1.533,0.442
	c-0.359,0.119-0.715,0.251-1.065,0.395c-0.497,0.203-0.986,0.428-1.465,0.676c-0.477,0.246-0.943,0.513-1.397,0.803
	c-0.424,0.27-0.839,0.558-1.239,0.862c-0.374,0.285-0.738,0.584-1.089,0.897c-0.105,0.093-0.208,0.188-0.312,0.284
	c-0.061,0.057-0.122,0.114-0.181,0.172c-0.051,0.049-0.101,0.097-0.151,0.147c-0.051,0.049-0.101,0.1-0.151,0.149
	c-0.05,0.051-0.1,0.101-0.15,0.153c-0.049,0.05-0.099,0.101-0.146,0.151c-0.063,0.066-0.127,0.134-0.19,0.201
	c-0.096,0.104-0.19,0.208-0.284,0.313c-0.179,0.203-0.353,0.408-0.522,0.619c-0.174,0.215-0.344,0.435-0.508,0.657
	c-0.287,0.391-0.558,0.792-0.812,1.204c-0.138,0.223-0.27,0.447-0.397,0.676c-0.132,0.236-0.259,0.474-0.381,0.718
	c-0.241,0.48-0.461,0.97-0.657,1.47c-0.165,0.416-0.312,0.838-0.446,1.265c-0.078,0.254-0.151,0.51-0.219,0.768
	c-0.067,0.255-0.13,0.514-0.187,0.773c-0.111,0.516-0.201,1.038-0.268,1.562c-0.066,0.524-0.109,1.05-0.13,1.576
	c-0.021,0.527-0.019,1.055,0.007,1.583c0.012,0.263,0.03,0.526,0.054,0.788c0.024,0.263,0.054,0.526,0.089,0.787
	c0.07,0.524,0.165,1.046,0.281,1.562c0.058,0.26,0.122,0.516,0.192,0.773c0.07,0.255,0.146,0.511,0.227,0.765
	c0.128,0.4,0.271,0.797,0.427,1.189c0.099,0.248,0.204,0.494,0.315,0.738c0.296,0.658,0.634,1.296,1.007,1.915
	c0.115,0.188,0.232,0.376,0.354,0.56c0.138,0.211,0.281,0.42,0.428,0.623c0.195,0.271,0.396,0.537,0.605,0.797
	c0.172,0.213,0.35,0.422,0.531,0.627c0.093,0.105,0.188,0.209,0.284,0.313c0.111,0.122,0.226,0.242,0.341,0.36
	c0.05,0.05,0.1,0.101,0.148,0.15c0.095,0.094,0.19,0.188,0.288,0.281c0.1,0.096,0.203,0.193,0.305,0.288
	c0.119,0.108,0.239,0.216,0.361,0.321c0.211,0.185,0.427,0.363,0.646,0.535c0.218,0.174,0.438,0.34,0.662,0.5
	c0.384,0.277,0.779,0.539,1.183,0.785c0.232,0.141,0.468,0.275,0.706,0.405c0.238,0.13,0.477,0.255,0.72,0.373
	c0.481,0.235,0.975,0.449,1.476,0.642c0.47,0.181,0.948,0.34,1.432,0.48c0.51,0.146,1.024,0.273,1.545,0.376
	c0.519,0.101,1.042,0.181,1.567,0.238c0.524,0.057,1.052,0.089,1.577,0.1c0.264,0.005,0.529,0.005,0.792,0
	c0.264-0.007,0.527-0.019,0.79-0.034c0.263-0.02,0.525-0.041,0.788-0.07c0.264-0.028,0.526-0.063,0.787-0.104
	c0.523-0.08,1.042-0.184,1.556-0.311c0.516-0.127,1.027-0.276,1.531-0.447c0.6-0.204,1.188-0.439,1.762-0.705
	c0.491-0.227,0.97-0.477,1.438-0.748c0.408-0.234,0.807-0.486,1.195-0.753c0.457-0.312,0.898-0.647,1.325-1.001
	c0.215-0.178,0.427-0.361,0.634-0.551C45.188,45.985,45.392,45.792,45.592,45.592z"/>
</svg>
