<?xml version="1.0" encoding="utf-8"?>
<!-- Generator: Adobe Illustrator 16.0.0, SVG Export Plug-In . SVG Version: 6.00 Build 0)  -->
<!DOCTYPE svg PUBLIC "-//W3C//DTD SVG 1.1//EN" "http://www.w3.org/Graphics/SVG/1.1/DTD/svg11.dtd">
<svg version="1.1" id="Layer_1" xmlns="http://www.w3.org/2000/svg" xmlns:xlink="http://www.w3.org/1999/xlink" x="0px" y="0px"
	 width="76.958px" height="76.958px" viewBox="0 0 76.958 76.958" enable-background="new 0 0 76.958 76.958" xml:space="preserve">
<polygon points="40.874,40.875 40.874,53.002 36.082,53.002 36.082,40.875 23.956,40.875 23.956,36.083 36.082,36.083 
	36.082,23.956 40.874,23.956 40.874,36.083 53.002,36.083 53.002,40.875 "/>
<path d="M66.319,69.715c-4.468-4.471-8.936-8.941-13.402-13.412c-0.476,0.384-0.963,0.748-1.465,1.093
	c-0.492,0.336-0.996,0.655-1.512,0.953c-0.593,0.343-1.201,0.657-1.822,0.946c-0.727,0.334-1.472,0.634-2.229,0.892
	c-0.637,0.216-1.283,0.405-1.938,0.565c-0.647,0.158-1.304,0.291-1.965,0.392c-0.66,0.103-1.322,0.176-1.988,0.219
	c-0.664,0.044-1.33,0.06-1.995,0.046c-0.667-0.013-1.332-0.057-1.994-0.127c-0.664-0.072-1.324-0.173-1.98-0.302
	c-0.657-0.128-1.31-0.288-1.953-0.474c-0.612-0.178-1.216-0.381-1.811-0.608c-0.635-0.241-1.258-0.513-1.869-0.812
	c-0.308-0.15-0.611-0.308-0.911-0.473c-0.301-0.164-0.6-0.335-0.894-0.514c-0.512-0.311-1.011-0.641-1.496-0.989
	c-0.285-0.204-0.564-0.416-0.838-0.632c-0.277-0.221-0.55-0.445-0.816-0.678c-0.154-0.133-0.306-0.268-0.456-0.406
	c-0.13-0.12-0.258-0.24-0.387-0.363c-0.12-0.117-0.24-0.234-0.359-0.354c-0.062-0.062-0.124-0.124-0.187-0.189
	c-0.145-0.148-0.289-0.3-0.43-0.451c-0.12-0.131-0.24-0.262-0.358-0.396c-0.229-0.261-0.453-0.524-0.669-0.793
	c-0.265-0.33-0.521-0.665-0.767-1.007c-0.187-0.258-0.367-0.52-0.542-0.788c-0.154-0.234-0.303-0.47-0.448-0.71
	c-0.178-0.293-0.35-0.592-0.515-0.893c-0.273-0.5-0.527-1.011-0.761-1.529c-0.139-0.309-0.273-0.623-0.399-0.936
	c-0.197-0.496-0.377-0.996-0.541-1.505c-0.204-0.642-0.381-1.289-0.53-1.946c-0.146-0.652-0.265-1.31-0.354-1.972
	c-0.089-0.661-0.15-1.323-0.183-1.991c-0.031-0.665-0.034-1.331-0.008-1.996c0.025-0.666,0.081-1.331,0.165-1.991
	c0.084-0.662,0.197-1.323,0.338-1.976c0.072-0.327,0.15-0.654,0.235-0.979c0.085-0.324,0.178-0.649,0.278-0.97
	c0.167-0.539,0.355-1.073,0.562-1.599c0.25-0.634,0.529-1.255,0.833-1.864c0.154-0.305,0.315-0.608,0.482-0.907
	c0.161-0.289,0.329-0.574,0.503-0.855c0.322-0.521,0.665-1.03,1.028-1.522c0.207-0.284,0.422-0.561,0.641-0.832
	c0.215-0.265,0.435-0.526,0.661-0.781c0.117-0.132,0.236-0.265,0.356-0.395c0.08-0.085,0.16-0.17,0.239-0.254
	c0.062-0.065,0.123-0.128,0.185-0.192c0.062-0.063,0.125-0.126,0.187-0.188s0.125-0.125,0.187-0.185
	c0.063-0.062,0.128-0.124,0.192-0.187c0.076-0.073,0.153-0.145,0.229-0.216c0.131-0.122,0.262-0.241,0.395-0.36
	c0.443-0.395,0.901-0.772,1.375-1.131c0.508-0.385,1.031-0.75,1.569-1.092c0.575-0.365,1.165-0.704,1.769-1.018
	c0.605-0.312,1.225-0.597,1.854-0.854c0.444-0.181,0.893-0.349,1.349-0.5c0.638-0.215,1.284-0.4,1.939-0.558
	c0.648-0.155,1.305-0.284,1.968-0.382c0.658-0.099,1.321-0.169,1.988-0.211c0.665-0.041,1.331-0.051,1.996-0.035
	c0.666,0.016,1.33,0.062,1.992,0.136c0.664,0.074,1.326,0.178,1.979,0.311c0.658,0.132,1.31,0.293,1.953,0.484
	c0.594,0.176,1.181,0.375,1.759,0.599c0.316,0.122,0.631,0.251,0.941,0.387c0.625,0.274,1.238,0.576,1.838,0.905
	c0.542,0.297,1.072,0.618,1.588,0.96c0.27,0.178,0.537,0.362,0.799,0.553c0.284,0.204,0.562,0.416,0.836,0.634
	c0.553,0.44,1.086,0.907,1.598,1.396c0.256,0.246,0.506,0.499,0.752,0.755c0.246,0.257,0.484,0.519,0.717,0.788
	c0.459,0.528,0.895,1.08,1.304,1.649c0.349,0.485,0.681,0.985,0.989,1.496c0.355,0.586,0.684,1.189,0.984,1.805
	c0.299,0.61,0.57,1.234,0.812,1.868c0.227,0.595,0.43,1.2,0.607,1.811c0.186,0.645,0.344,1.296,0.474,1.954
	c0.128,0.656,0.229,1.316,0.301,1.98c0.07,0.661,0.114,1.326,0.127,1.992c0.015,0.665-0.001,1.331-0.046,1.997
	c-0.043,0.664-0.115,1.326-0.219,1.986c-0.102,0.659-0.232,1.315-0.391,1.965c-0.162,0.653-0.35,1.299-0.566,1.936
	c-0.148,0.438-0.309,0.869-0.485,1.296c-0.128,0.313-0.264,0.626-0.407,0.935c-0.287,0.619-0.603,1.229-0.945,1.821
	c-0.299,0.517-0.615,1.019-0.952,1.511c-0.345,0.504-0.711,0.991-1.093,1.465c4.468,4.471,8.936,8.942,13.402,13.412
	C68.579,67.458,67.45,68.586,66.319,69.715z M51.31,51.309c0.198-0.199,0.396-0.402,0.583-0.611
	c0.189-0.207,0.373-0.419,0.552-0.635c0.354-0.424,0.688-0.865,1.001-1.322c0.129-0.186,0.252-0.375,0.373-0.566
	c0.131-0.205,0.258-0.416,0.381-0.627c0.271-0.469,0.521-0.949,0.747-1.441c0.112-0.243,0.22-0.488,0.322-0.736
	c0.138-0.338,0.265-0.681,0.382-1.023c0.171-0.504,0.322-1.016,0.447-1.532c0.125-0.515,0.229-1.032,0.311-1.554
	c0.08-0.522,0.139-1.047,0.174-1.574c0.018-0.264,0.027-0.525,0.035-0.791c0.004-0.262,0.004-0.527,0-0.789
	c-0.012-0.527-0.046-1.054-0.101-1.579c-0.058-0.526-0.138-1.049-0.238-1.568c-0.103-0.52-0.229-1.035-0.376-1.546
	c-0.139-0.484-0.3-0.961-0.479-1.431c-0.192-0.501-0.406-0.995-0.643-1.477c-0.238-0.487-0.496-0.962-0.777-1.424
	c-0.246-0.404-0.506-0.8-0.781-1.184c-0.324-0.45-0.669-0.885-1.032-1.304c-0.187-0.212-0.375-0.42-0.569-0.624
	c-0.193-0.204-0.393-0.404-0.597-0.6c-0.405-0.388-0.827-0.758-1.267-1.107c-0.215-0.173-0.437-0.341-0.66-0.503
	c-0.208-0.149-0.419-0.295-0.633-0.437c-0.407-0.269-0.825-0.523-1.254-0.758c-0.473-0.26-0.957-0.497-1.45-0.714
	c-0.246-0.108-0.495-0.211-0.743-0.307c-0.209-0.081-0.419-0.157-0.631-0.23c-0.251-0.086-0.504-0.167-0.76-0.243
	c-0.51-0.15-1.023-0.277-1.545-0.383c-0.519-0.105-1.041-0.186-1.567-0.246c-0.522-0.06-1.05-0.095-1.577-0.108
	c-0.527-0.013-1.055-0.004-1.581,0.028c-0.263,0.016-0.525,0.038-0.788,0.066c-0.262,0.027-0.524,0.061-0.787,0.1
	c-0.523,0.078-1.042,0.178-1.557,0.303c-0.516,0.124-1.028,0.272-1.532,0.441c-0.359,0.122-0.715,0.253-1.065,0.396
	c-0.499,0.203-0.987,0.428-1.465,0.674c-0.478,0.247-0.943,0.515-1.397,0.803c-0.426,0.272-0.839,0.56-1.239,0.865
	c-0.375,0.284-0.738,0.582-1.089,0.895c-0.105,0.095-0.209,0.189-0.312,0.285c-0.061,0.057-0.122,0.114-0.181,0.172
	c-0.052,0.049-0.102,0.097-0.151,0.146c-0.052,0.05-0.102,0.1-0.151,0.151c-0.052,0.05-0.1,0.1-0.15,0.151
	c-0.05,0.05-0.099,0.1-0.147,0.151c-0.063,0.068-0.127,0.134-0.189,0.203c-0.096,0.103-0.19,0.207-0.284,0.312
	c-0.178,0.201-0.353,0.408-0.523,0.618c-0.174,0.216-0.343,0.435-0.507,0.659c-0.287,0.389-0.558,0.791-0.813,1.203
	c-0.137,0.221-0.269,0.447-0.397,0.676c-0.131,0.235-0.258,0.476-0.38,0.716c-0.24,0.481-0.46,0.972-0.658,1.472
	c-0.163,0.416-0.312,0.838-0.444,1.265c-0.079,0.254-0.153,0.509-0.22,0.766c-0.068,0.257-0.128,0.515-0.185,0.774
	c-0.112,0.516-0.202,1.038-0.268,1.564c-0.066,0.521-0.11,1.049-0.131,1.576c-0.02,0.527-0.018,1.054,0.007,1.58
	c0.014,0.264,0.031,0.527,0.055,0.789c0.024,0.263,0.054,0.525,0.089,0.787c0.07,0.524,0.165,1.045,0.281,1.562
	c0.058,0.259,0.122,0.517,0.192,0.772c0.07,0.256,0.146,0.512,0.227,0.766c0.128,0.4,0.27,0.799,0.427,1.189
	c0.099,0.248,0.204,0.496,0.313,0.738c0.297,0.657,0.634,1.297,1.008,1.914c0.115,0.189,0.232,0.376,0.354,0.561
	c0.138,0.211,0.281,0.418,0.429,0.623c0.193,0.271,0.396,0.535,0.605,0.795c0.171,0.216,0.349,0.425,0.531,0.631
	c0.093,0.105,0.187,0.211,0.283,0.312c0.112,0.123,0.227,0.24,0.342,0.359c0.05,0.052,0.099,0.102,0.149,0.15
	c0.094,0.096,0.19,0.189,0.286,0.281c0.102,0.098,0.204,0.192,0.307,0.286c0.119,0.11,0.239,0.216,0.361,0.323
	c0.21,0.184,0.427,0.361,0.646,0.537c0.217,0.172,0.438,0.338,0.662,0.5c0.384,0.275,0.778,0.537,1.183,0.781
	c0.232,0.14,0.467,0.276,0.705,0.406c0.238,0.129,0.477,0.254,0.721,0.373c0.481,0.236,0.974,0.45,1.476,0.643
	c0.47,0.18,0.949,0.341,1.431,0.479c0.509,0.147,1.026,0.272,1.546,0.374c0.519,0.104,1.042,0.184,1.568,0.239
	c0.524,0.055,1.05,0.091,1.577,0.101c0.264,0.006,0.527,0.004,0.791,0c0.266-0.008,0.527-0.019,0.791-0.035
	c0.264-0.018,0.525-0.043,0.788-0.069c0.263-0.03,0.524-0.065,0.785-0.104c0.522-0.08,1.043-0.185,1.555-0.309
	c0.519-0.127,1.029-0.277,1.533-0.449c0.599-0.203,1.188-0.439,1.761-0.706c0.492-0.228,0.973-0.476,1.441-0.745
	c0.408-0.236,0.805-0.488,1.195-0.755c0.457-0.313,0.897-0.647,1.324-1.001c0.215-0.18,0.426-0.363,0.633-0.551
	C50.907,51.704,51.11,51.508,51.31,51.309z"/>
</svg>
